<svg version="1.1" viewBox="0.0 200.0 960.0 340.0" fill="none" stroke="none" stroke-linecap="square" stroke-miterlimit="10" xmlns:xlink="http://www.w3.org/1999/xlink" xmlns="http://www.w3.org/2000/svg"><clipPath id="p.0"><path d="m0 0l960.0 0l0 540.0l-960.0 0l0 -540.0z" clip-rule="nonzero"/></clipPath><g clip-path="url(#p.0)"><path fill="#ffffff" d="m0 0l960.0 0l0 540.0l-960.0 0z" fill-rule="evenodd"/><path fill="#000000" fill-opacity="0.0" d="m21.385826 416.39633l30.519684 0l0 24.724396l-30.519684 0z" fill-rule="evenodd"/><path stroke="#595959" stroke-width="1.0" stroke-linejoin="round" stroke-linecap="butt" d="m21.385826 416.39633l30.519684 0l0 24.724396l-30.519684 0z" fill-rule="evenodd"/><path fill="#000000" d="m35.776398 432.26324q-0.71875 0.609375 -1.375 0.859375q-0.65625 0.25 -1.421875 0.25q-1.2499981 0 -1.9218731 -0.609375q-0.671875 -0.609375 -0.671875 -1.5625q0 -0.5625 0.25 -1.015625q0.25 -0.46875 0.65625 -0.75q0.421875 -0.28125 0.9374981 -0.421875q0.375 -0.09375 1.140625 -0.1875q1.5625 -0.1875 2.296875 -0.453125q0.015625 -0.265625 0.015625 -0.328125q0 -0.796875 -0.375 -1.109375q-0.484375 -0.4375 -1.453125 -0.4375q-0.921875 0 -1.359375 0.328125q-0.421875 0.3125 -0.6249981 1.109375l-1.265625 -0.171875q0.171875 -0.796875 0.5625 -1.296875q0.390625 -0.5 1.1406231 -0.765625q0.75 -0.265625 1.71875 -0.265625q0.984375 0 1.59375 0.234375q0.609375 0.21875 0.890625 0.5625q0.28125 0.34375 0.40625 0.875q0.0625 0.328125 0.0625 1.1875l0 1.71875q0 1.796875 0.078125 2.28125q0.078125 0.46875 0.328125 0.90625l-1.34375 0q-0.203125 -0.40625 -0.265625 -0.9375zm-0.109375 -2.875q-0.703125 0.28125 -2.09375 0.484375q-0.796875 0.109375 -1.125 0.265625q-0.328125 0.140625 -0.5156231 0.421875q-0.171875 0.265625 -0.171875 0.59375q0 0.515625 0.3906231 0.859375q0.390625 0.34375 1.140625 0.34375q0.734375 0 1.3125 -0.3125q0.59375 -0.328125 0.859375 -0.890625q0.203125 -0.4375 0.203125 -1.296875l0 -0.46875z" fill-rule="nonzero"/><path fill="#000000" d="m41.646255 438.70074l-0.859375 0l0 -5.46875q-0.3125 0.296875 -0.8125 0.59375q-0.5 0.296875 -0.90625 0.4375l0 -0.828125q0.71875 -0.34375 1.25 -0.8125q0.546875 -0.484375 0.765625 -0.9375l0.5625 0l0 7.015625z" fill-rule="nonzero"/><path fill="#000000" fill-opacity="0.0" d="m168.85608 416.39633l30.519684 0l0 24.724396l-30.519684 0z" fill-rule="evenodd"/><path stroke="#595959" stroke-width="1.0" stroke-linejoin="round" stroke-linecap="butt" d="m168.85608 416.39633l30.519684 0l0 24.724396l-30.519684 0z" fill-rule="evenodd"/><path fill="#000000" d="m183.24666 432.26324q-0.71875 0.609375 -1.375 0.859375q-0.65625 0.25 -1.421875 0.25q-1.25 0 -1.921875 -0.609375q-0.671875 -0.609375 -0.671875 -1.5625q0 -0.5625 0.25 -1.015625q0.25 -0.46875 0.65625 -0.75q0.421875 -0.28125 0.9375 -0.421875q0.375 -0.09375 1.140625 -0.1875q1.5625 -0.1875 2.296875 -0.453125q0.015625 -0.265625 0.015625 -0.328125q0 -0.796875 -0.375 -1.109375q-0.484375 -0.4375 -1.453125 -0.4375q-0.921875 0 -1.359375 0.328125q-0.421875 0.3125 -0.625 1.109375l-1.265625 -0.171875q0.171875 -0.796875 0.5625 -1.296875q0.390625 -0.5 1.140625 -0.765625q0.75 -0.265625 1.71875 -0.265625q0.984375 0 1.59375 0.234375q0.609375 0.21875 0.890625 0.5625q0.28125 0.34375 0.40625 0.875q0.0625 0.328125 0.0625 1.1875l0 1.71875q0 1.796875 0.078125 2.28125q0.078125 0.46875 0.328125 0.90625l-1.34375 0q-0.203125 -0.40625 -0.265625 -0.9375zm-0.109375 -2.875q-0.703125 0.28125 -2.09375 0.484375q-0.796875 0.109375 -1.125 0.265625q-0.328125 0.140625 -0.515625 0.421875q-0.171875 0.265625 -0.171875 0.59375q0 0.515625 0.390625 0.859375q0.390625 0.34375 1.140625 0.34375q0.734375 0 1.3125 -0.3125q0.59375 -0.328125 0.859375 -0.890625q0.203125 -0.4375 0.203125 -1.296875l0 -0.46875z" fill-rule="nonzero"/><path fill="#000000" d="m190.39777 437.87262l0 0.828125l-4.625 0q-0.015625 -0.3125 0.09375 -0.59375q0.1875 -0.46875 0.5625 -0.921875q0.390625 -0.46875 1.125 -1.0625q1.140625 -0.9375 1.546875 -1.484375q0.40625 -0.546875 0.40625 -1.03125q0 -0.515625 -0.375 -0.859375q-0.359375 -0.359375 -0.953125 -0.359375q-0.609375 0 -0.984375 0.375q-0.375 0.375 -0.375 1.03125l-0.890625 -0.09375q0.09375 -0.984375 0.6875 -1.5q0.59375 -0.515625 1.59375 -0.515625q1.0 0 1.578125 0.5625q0.59375 0.546875 0.59375 1.375q0 0.421875 -0.171875 0.828125q-0.171875 0.40625 -0.578125 0.859375q-0.390625 0.4375 -1.3125 1.21875q-0.78125 0.65625 -1.0 0.890625q-0.21875 0.21875 -0.359375 0.453125l3.4375 0z" fill-rule="nonzero"/><path fill="#000000" fill-opacity="0.0" d="m316.32632 416.39633l30.519684 0l0 24.724396l-30.519684 0z" fill-rule="evenodd"/><path stroke="#595959" stroke-width="1.0" stroke-linejoin="round" stroke-linecap="butt" d="m316.32632 416.39633l30.519684 0l0 24.724396l-30.519684 0z" fill-rule="evenodd"/><path fill="#000000" d="m330.71692 432.26324q-0.71875 0.609375 -1.375 0.859375q-0.65625 0.25 -1.421875 0.25q-1.25 0 -1.921875 -0.609375q-0.671875 -0.609375 -0.671875 -1.5625q0 -0.5625 0.25 -1.015625q0.25 -0.46875 0.65625 -0.75q0.421875 -0.28125 0.9375 -0.421875q0.375 -0.09375 1.140625 -0.1875q1.5625 -0.1875 2.296875 -0.453125q0.015625 -0.265625 0.015625 -0.328125q0 -0.796875 -0.375 -1.109375q-0.484375 -0.4375 -1.453125 -0.4375q-0.921875 0 -1.359375 0.328125q-0.421875 0.3125 -0.625 1.109375l-1.265625 -0.171875q0.171875 -0.796875 0.5625 -1.296875q0.390625 -0.5 1.140625 -0.765625q0.75 -0.265625 1.71875 -0.265625q0.984375 0 1.59375 0.234375q0.609375 0.21875 0.890625 0.5625q0.28125 0.34375 0.40625 0.875q0.0625 0.328125 0.0625 1.1875l0 1.71875q0 1.796875 0.078125 2.28125q0.078125 0.46875 0.328125 0.90625l-1.34375 0q-0.203125 -0.40625 -0.265625 -0.9375zm-0.109375 -2.875q-0.703125 0.28125 -2.09375 0.484375q-0.796875 0.109375 -1.125 0.265625q-0.328125 0.140625 -0.515625 0.421875q-0.171875 0.265625 -0.171875 0.59375q0 0.515625 0.390625 0.859375q0.390625 0.34375 1.140625 0.34375q0.734375 0 1.3125 -0.3125q0.59375 -0.328125 0.859375 -0.890625q0.203125 -0.4375 0.203125 -1.296875l0 -0.46875z" fill-rule="nonzero"/><path fill="#000000" d="m333.3524 436.857l0.859375 -0.109375q0.15625 0.71875 0.5 1.046875q0.359375 0.3125 0.875 0.3125q0.609375 0 1.015625 -0.40625q0.421875 -0.421875 0.421875 -1.046875q0 -0.59375 -0.390625 -0.96875q-0.390625 -0.390625 -0.984375 -0.390625q-0.234375 0 -0.59375 0.09375l0.09375 -0.75q0.078125 0.015625 0.140625 0.015625q0.546875 0 0.984375 -0.28125q0.4375 -0.296875 0.4375 -0.890625q0 -0.46875 -0.328125 -0.78125q-0.3125 -0.3125 -0.8125 -0.3125q-0.515625 0 -0.84375 0.3125q-0.328125 0.3125 -0.421875 0.953125l-0.859375 -0.15625q0.15625 -0.859375 0.703125 -1.328125q0.5625 -0.484375 1.390625 -0.484375q0.578125 0 1.0625 0.25q0.484375 0.234375 0.734375 0.671875q0.25 0.421875 0.25 0.890625q0 0.453125 -0.25 0.828125q-0.234375 0.375 -0.703125 0.59375q0.609375 0.140625 0.953125 0.59375q0.34375 0.453125 0.34375 1.125q0 0.90625 -0.671875 1.546875q-0.65625 0.640625 -1.6875 0.640625q-0.90625 0 -1.515625 -0.546875q-0.609375 -0.546875 -0.703125 -1.421875z" fill-rule="nonzero"/><path fill="#000000" fill-opacity="0.0" d="m463.7966 416.39633l30.519684 0l0 24.724396l-30.519684 0z" fill-rule="evenodd"/><path stroke="#595959" stroke-width="1.0" stroke-linejoin="round" stroke-linecap="butt" d="m463.7966 416.39633l30.519684 0l0 24.724396l-30.519684 0z" fill-rule="evenodd"/><path fill="#000000" d="m478.18716 432.26324q-0.71875 0.609375 -1.375 0.859375q-0.65625 0.25 -1.421875 0.25q-1.25 0 -1.921875 -0.609375q-0.671875 -0.609375 -0.671875 -1.5625q0 -0.5625 0.25 -1.015625q0.25 -0.46875 0.65625 -0.75q0.421875 -0.28125 0.9375 -0.421875q0.375 -0.09375 1.140625 -0.1875q1.5625 -0.1875 2.296875 -0.453125q0.015625 -0.265625 0.015625 -0.328125q0 -0.796875 -0.375 -1.109375q-0.484375 -0.4375 -1.453125 -0.4375q-0.921875 0 -1.359375 0.328125q-0.421875 0.3125 -0.625 1.109375l-1.265625 -0.171875q0.171875 -0.796875 0.5625 -1.296875q0.390625 -0.5 1.140625 -0.765625q0.75 -0.265625 1.71875 -0.265625q0.984375 0 1.59375 0.234375q0.609375 0.21875 0.890625 0.5625q0.28125 0.34375 0.40625 0.875q0.0625 0.328125 0.0625 1.1875l0 1.71875q0 1.796875 0.078125 2.28125q0.078125 0.46875 0.328125 0.90625l-1.34375 0q-0.203125 -0.40625 -0.265625 -0.9375zm-0.109375 -2.875q-0.703125 0.28125 -2.09375 0.484375q-0.796875 0.109375 -1.125 0.265625q-0.328125 0.140625 -0.515625 0.421875q-0.171875 0.265625 -0.171875 0.59375q0 0.515625 0.390625 0.859375q0.390625 0.34375 1.140625 0.34375q0.734375 0 1.3125 -0.3125q0.59375 -0.328125 0.859375 -0.890625q0.203125 -0.4375 0.203125 -1.296875l0 -0.46875z" fill-rule="nonzero"/><path fill="#000000" d="m483.57263 438.70074l0 -1.671875l-3.03125 0l0 -0.78125l3.1875 -4.53125l0.703125 0l0 4.53125l0.9375 0l0 0.78125l-0.9375 0l0 1.671875l-0.859375 0zm0 -2.453125l0 -3.15625l-2.1875 3.15625l2.1875 0z" fill-rule="nonzero"/><path fill="#000000" fill-opacity="0.0" d="m611.26685 416.39633l30.519653 0l0 24.724396l-30.519653 0z" fill-rule="evenodd"/><path stroke="#595959" stroke-width="1.0" stroke-linejoin="round" stroke-linecap="butt" d="m611.26685 416.39633l30.519653 0l0 24.724396l-30.519653 0z" fill-rule="evenodd"/><path fill="#000000" d="m625.6574 432.26324q-0.71875 0.609375 -1.375 0.859375q-0.65625 0.25 -1.421875 0.25q-1.25 0 -1.921875 -0.609375q-0.671875 -0.609375 -0.671875 -1.5625q0 -0.5625 0.25 -1.015625q0.25 -0.46875 0.65625 -0.75q0.421875 -0.28125 0.9375 -0.421875q0.375 -0.09375 1.140625 -0.1875q1.5625 -0.1875 2.296875 -0.453125q0.015625 -0.265625 0.015625 -0.328125q0 -0.796875 -0.375 -1.109375q-0.484375 -0.4375 -1.453125 -0.4375q-0.921875 0 -1.359375 0.328125q-0.421875 0.3125 -0.625 1.109375l-1.265625 -0.171875q0.171875 -0.796875 0.5625 -1.296875q0.390625 -0.5 1.140625 -0.765625q0.75 -0.265625 1.71875 -0.265625q0.984375 0 1.59375 0.234375q0.609375 0.21875 0.890625 0.5625q0.28125 0.34375 0.40625 0.875q0.0625 0.328125 0.0625 1.1875l0 1.71875q0 1.796875 0.078125 2.28125q0.078125 0.46875 0.328125 0.90625l-1.34375 0q-0.203125 -0.40625 -0.265625 -0.9375zm-0.109375 -2.875q-0.703125 0.28125 -2.09375 0.484375q-0.796875 0.109375 -1.125 0.265625q-0.328125 0.140625 -0.515625 0.421875q-0.171875 0.265625 -0.171875 0.59375q0 0.515625 0.390625 0.859375q0.390625 0.34375 1.140625 0.34375q0.734375 0 1.3125 -0.3125q0.59375 -0.328125 0.859375 -0.890625q0.203125 -0.4375 0.203125 -1.296875l0 -0.46875z" fill-rule="nonzero"/><path fill="#000000" d="m628.2929 436.87262l0.90625 -0.078125q0.09375 0.65625 0.453125 0.984375q0.375 0.328125 0.890625 0.328125q0.609375 0 1.03125 -0.453125q0.4375 -0.46875 0.4375 -1.25q0 -0.734375 -0.421875 -1.15625q-0.40625 -0.421875 -1.0625 -0.421875q-0.421875 0 -0.765625 0.1875q-0.328125 0.1875 -0.515625 0.484375l-0.796875 -0.09375l0.671875 -3.59375l3.484375 0l0 0.8125l-2.796875 0l-0.375 1.875q0.625 -0.4375 1.3125 -0.4375q0.921875 0 1.546875 0.640625q0.640625 0.640625 0.640625 1.625q0 0.953125 -0.5625 1.640625q-0.671875 0.859375 -1.828125 0.859375q-0.953125 0 -1.5625 -0.53125q-0.609375 -0.546875 -0.6875 -1.421875z" fill-rule="nonzero"/><path fill="#000000" fill-opacity="0.0" d="m758.7371 417.07086l30.519653 0l0 24.724426l-30.519653 0z" fill-rule="evenodd"/><path stroke="#595959" stroke-width="1.0" stroke-linejoin="round" stroke-linecap="butt" d="m758.7371 417.07086l30.519653 0l0 24.724426l-30.519653 0z" fill-rule="evenodd"/><path fill="#000000" d="m771.23914 436.79715l-0.140625 -1.203125q0.421875 0.109375 0.734375 0.109375q0.4375 0 0.6875 -0.140625q0.265625 -0.140625 0.421875 -0.40625q0.125 -0.1875 0.390625 -0.953125q0.046875 -0.109375 0.125 -0.3125l-2.890625 -7.609375l1.390625 0l1.578125 4.390625q0.3125 0.84375 0.546875 1.765625q0.234375 -0.890625 0.53125 -1.734375l1.625 -4.421875l1.296875 0l-2.890625 7.71875q-0.46875 1.25 -0.734375 1.734375q-0.34375 0.625 -0.78125 0.921875q-0.4375 0.296875 -1.0625 0.296875q-0.375 0 -0.828125 -0.15625z" fill-rule="nonzero"/><path fill="#000000" fill-opacity="0.0" d="m95.12096 429.43176l0 0c0 -6.8274536 6.832062 -12.362213 15.259842 -12.362213l0 0c8.4277725 0 15.259842 5.5347595 15.259842 12.362213l0 0c0 6.8274536 -6.8320694 12.362213 -15.259842 12.362213l0 0c-8.42778 0 -15.259842 -5.5347595 -15.259842 -12.362213z" fill-rule="evenodd"/><path stroke="#595959" stroke-width="1.0" stroke-linejoin="round" stroke-linecap="butt" d="m95.12096 429.43176l0 0c0 -6.8274536 6.832062 -12.362213 15.259842 -12.362213l0 0c8.4277725 0 15.259842 5.5347595 15.259842 12.362213l0 0c0 6.8274536 -6.8320694 12.362213 -15.259842 12.362213l0 0c-8.42778 0 -15.259842 -5.5347595 -15.259842 -12.362213z" fill-rule="evenodd"/><path fill="#000000" d="m106.58552 433.29175l0 -7.203125l-1.234375 0l0 -1.09375l1.234375 0l0 -0.890625q0 -0.828125 0.15625 -1.234375q0.203125 -0.546875 0.703125 -0.890625q0.515625 -0.34375 1.4375 -0.34375q0.59375 0 1.3125 0.140625l-0.203125 1.234375q-0.4375 -0.078125 -0.828125 -0.078125q-0.640625 0 -0.90625 0.28125q-0.265625 0.265625 -0.265625 1.015625l0 0.765625l1.609375 0l0 1.09375l-1.609375 0l0 7.203125l-1.40625 0z" fill-rule="nonzero"/><path fill="#000000" d="m113.608955 439.29175l-0.9375 0l0 -5.96875q-0.34375 0.328125 -0.890625 0.65625q-0.546875 0.3125 -0.984375 0.46875l0 -0.90625q0.796875 -0.359375 1.375 -0.890625q0.59375 -0.53125 0.828125 -1.015625l0.609375 0l0 7.65625z" fill-rule="nonzero"/><path fill="#000000" fill-opacity="0.0" d="m242.5912 429.43176l0 0c0 -6.8274536 6.832077 -12.362213 15.259842 -12.362213l0 0c8.427795 0 15.259857 5.5347595 15.259857 12.362213l0 0c0 6.8274536 -6.832062 12.362213 -15.259857 12.362213l0 0c-8.427765 0 -15.259842 -5.5347595 -15.259842 -12.362213z" fill-rule="evenodd"/><path stroke="#595959" stroke-width="1.0" stroke-linejoin="round" stroke-linecap="butt" d="m242.5912 429.43176l0 0c0 -6.8274536 6.832077 -12.362213 15.259842 -12.362213l0 0c8.427795 0 15.259857 5.5347595 15.259857 12.362213l0 0c0 6.8274536 -6.832062 12.362213 -15.259857 12.362213l0 0c-8.427765 0 -15.259842 -5.5347595 -15.259842 -12.362213z" fill-rule="evenodd"/><path fill="#000000" d="m254.05577 433.29175l0 -7.203125l-1.234375 0l0 -1.09375l1.234375 0l0 -0.890625q0 -0.828125 0.15625 -1.234375q0.203125 -0.546875 0.703125 -0.890625q0.515625 -0.34375 1.4374847 -0.34375q0.59375 0 1.3125 0.140625l-0.203125 1.234375q-0.4375 -0.078125 -0.828125 -0.078125q-0.64060974 0 -0.90623474 0.28125q-0.265625 0.265625 -0.265625 1.015625l0 0.765625l1.6093597 0l0 1.09375l-1.6093597 0l0 7.203125l-1.40625 0z" fill-rule="nonzero"/><path fill="#000000" d="m262.46982 438.3855l0 0.90625l-5.03125 0q-0.015625 -0.34375 0.109375 -0.65625q0.1875 -0.515625 0.609375 -1.015625q0.421875 -0.5 1.234375 -1.140625q1.234375 -1.03125 1.671875 -1.625q0.4375 -0.59375 0.4375 -1.125q0 -0.5625 -0.40625 -0.9375q-0.390625 -0.390625 -1.03125 -0.390625q-0.671875 0 -1.078125 0.40625q-0.40625 0.40625 -0.40625 1.125l-0.96875 -0.09375q0.09375 -1.078125 0.734375 -1.640625q0.65625 -0.5625 1.734375 -0.5625q1.109375 0 1.75 0.609375q0.640625 0.609375 0.640625 1.5q0 0.46875 -0.1875 0.90625q-0.1875 0.4375 -0.625 0.9375q-0.4375 0.484375 -1.453125 1.328125q-0.828125 0.71875 -1.078125 0.96875q-0.234375 0.25 -0.390625 0.5l3.734375 0z" fill-rule="nonzero"/><path fill="#000000" fill-opacity="0.0" d="m390.06146 429.43176l0 0c0 -6.8274536 6.832062 -12.362213 15.259827 -12.362213l0 0c8.427795 0 15.259857 5.5347595 15.259857 12.362213l0 0c0 6.8274536 -6.832062 12.362213 -15.259857 12.362213l0 0c-8.427765 0 -15.259827 -5.5347595 -15.259827 -12.362213z" fill-rule="evenodd"/><path stroke="#595959" stroke-width="1.0" stroke-linejoin="round" stroke-linecap="butt" d="m390.06146 429.43176l0 0c0 -6.8274536 6.832062 -12.362213 15.259827 -12.362213l0 0c8.427795 0 15.259857 5.5347595 15.259857 12.362213l0 0c0 6.8274536 -6.832062 12.362213 -15.259857 12.362213l0 0c-8.427765 0 -15.259827 -5.5347595 -15.259827 -12.362213z" fill-rule="evenodd"/><path fill="#000000" d="m401.52603 433.29175l0 -7.203125l-1.234375 0l0 -1.09375l1.234375 0l0 -0.890625q0 -0.828125 0.15625 -1.234375q0.203125 -0.546875 0.703125 -0.890625q0.515625 -0.34375 1.4375 -0.34375q0.59375 0 1.3125 0.140625l-0.203125 1.234375q-0.4375 -0.078125 -0.828125 -0.078125q-0.640625 0 -0.90625 0.28125q-0.265625 0.265625 -0.265625 1.015625l0 0.765625l1.609375 0l0 1.09375l-1.609375 0l0 7.203125l-1.40625 0z" fill-rule="nonzero"/><path fill="#000000" d="m405.03384 437.27612l0.9375 -0.125q0.15625 0.796875 0.546875 1.15625q0.390625 0.34375 0.9375 0.34375q0.65625 0 1.109375 -0.453125q0.46875 -0.46875 0.46875 -1.140625q0 -0.640625 -0.421875 -1.0625q-0.421875 -0.421875 -1.078125 -0.421875q-0.265625 0 -0.65625 0.109375l0.109375 -0.828125q0.09375 0.015625 0.140625 0.015625q0.59375 0 1.078125 -0.3125q0.484375 -0.3125 0.484375 -0.96875q0 -0.515625 -0.359375 -0.84375q-0.34375 -0.34375 -0.890625 -0.34375q-0.546875 0 -0.921875 0.34375q-0.359375 0.34375 -0.453125 1.03125l-0.9375 -0.171875q0.171875 -0.9375 0.78125 -1.453125q0.609375 -0.515625 1.5 -0.515625q0.625 0 1.15625 0.265625q0.53125 0.265625 0.796875 0.734375q0.28125 0.453125 0.28125 0.984375q0 0.484375 -0.265625 0.890625q-0.265625 0.40625 -0.78125 0.65625q0.671875 0.15625 1.046875 0.65625q0.375 0.484375 0.375 1.21875q0 1.0 -0.734375 1.703125q-0.71875 0.6875 -1.828125 0.6875q-1.0 0 -1.671875 -0.59375q-0.65625 -0.609375 -0.75 -1.5625z" fill-rule="nonzero"/><path fill="#000000" fill-opacity="0.0" d="m537.53174 429.43176l0 0c0 -6.8274536 6.8320312 -12.362213 15.259827 -12.362213l0 0c8.427795 0 15.259827 5.5347595 15.259827 12.362213l0 0c0 6.8274536 -6.8320312 12.362213 -15.259827 12.362213l0 0c-8.427795 0 -15.259827 -5.5347595 -15.259827 -12.362213z" fill-rule="evenodd"/><path stroke="#595959" stroke-width="1.0" stroke-linejoin="round" stroke-linecap="butt" d="m537.53174 429.43176l0 0c0 -6.8274536 6.8320312 -12.362213 15.259827 -12.362213l0 0c8.427795 0 15.259827 5.5347595 15.259827 12.362213l0 0c0 6.8274536 -6.8320312 12.362213 -15.259827 12.362213l0 0c-8.427795 0 -15.259827 -5.5347595 -15.259827 -12.362213z" fill-rule="evenodd"/><path fill="#000000" d="m548.9963 433.29175l0 -7.203125l-1.234375 0l0 -1.09375l1.234375 0l0 -0.890625q0 -0.828125 0.15625 -1.234375q0.203125 -0.546875 0.703125 -0.890625q0.515625 -0.34375 1.4375 -0.34375q0.59375 0 1.3125 0.140625l-0.203125 1.234375q-0.4375 -0.078125 -0.828125 -0.078125q-0.640625 0 -0.90625 0.28125q-0.265625 0.265625 -0.265625 1.015625l0 0.765625l1.609375 0l0 1.09375l-1.609375 0l0 7.203125l-1.40625 0z" fill-rule="nonzero"/><path fill="#000000" d="m555.48846 439.29175l0 -1.828125l-3.296875 0l0 -0.859375l3.46875 -4.9375l0.765625 0l0 4.9375l1.03125 0l0 0.859375l-1.03125 0l0 1.828125l-0.9375 0zm0 -2.6875l0 -3.4375l-2.375 3.4375l2.375 0z" fill-rule="nonzero"/><path fill="#000000" fill-opacity="0.0" d="m685.00195 428.75723l0 0c0 -6.827484 6.8320923 -12.362213 15.259888 -12.362213l0 0c8.427734 0 15.259827 5.534729 15.259827 12.362213l0 0c0 6.8274536 -6.8320923 12.362183 -15.259827 12.362183l0 0c-8.427795 0 -15.259888 -5.534729 -15.259888 -12.362183z" fill-rule="evenodd"/><path stroke="#595959" stroke-width="1.0" stroke-linejoin="round" stroke-linecap="butt" d="m685.00195 428.75723l0 0c0 -6.827484 6.8320923 -12.362213 15.259888 -12.362213l0 0c8.427734 0 15.259827 5.534729 15.259827 12.362213l0 0c0 6.8274536 -6.8320923 12.362183 -15.259827 12.362183l0 0c-8.427795 0 -15.259888 -5.534729 -15.259888 -12.362183z" fill-rule="evenodd"/><path fill="#000000" d="m696.46655 432.61722l0 -7.203125l-1.234375 0l0 -1.09375l1.234375 0l0 -0.890625q0 -0.828125 0.15625 -1.234375q0.203125 -0.546875 0.703125 -0.890625q0.515625 -0.34375 1.4375 -0.34375q0.59375 0 1.3125 0.140625l-0.203125 1.234375q-0.4375 -0.078125 -0.828125 -0.078125q-0.640625 0 -0.90625 0.28125q-0.265625 0.265625 -0.265625 1.015625l0 0.765625l1.609375 0l0 1.09375l-1.609375 0l0 7.203125l-1.40625 0z" fill-rule="nonzero"/><path fill="#000000" d="m699.95874 436.61722l0.984375 -0.078125q0.109375 0.71875 0.5 1.078125q0.40625 0.359375 0.96875 0.359375q0.671875 0 1.140625 -0.5q0.46875 -0.515625 0.46875 -1.359375q0 -0.796875 -0.453125 -1.265625q-0.4375 -0.46875 -1.171875 -0.46875q-0.453125 0 -0.8125 0.21875q-0.359375 0.203125 -0.578125 0.53125l-0.875 -0.125l0.734375 -3.921875l3.796875 0l0 0.90625l-3.046875 0l-0.40625 2.046875q0.6875 -0.484375 1.4375 -0.484375q1.0 0 1.6875 0.703125q0.6875 0.6875 0.6875 1.765625q0 1.046875 -0.609375 1.796875q-0.734375 0.921875 -2.0 0.921875q-1.03125 0 -1.703125 -0.578125q-0.65625 -0.578125 -0.75 -1.546875z" fill-rule="nonzero"/><path fill="#000000" fill-opacity="0.0" d="m95.120735 479.6719l30.519684 0l0 24.724426l-30.519684 0z" fill-rule="evenodd"/><path stroke="#595959" stroke-width="1.0" stroke-linejoin="round" stroke-linecap="butt" d="m95.120735 479.6719l30.519684 0l0 24.724426l-30.519684 0z" fill-rule="evenodd"/><path fill="#000000" d="m104.74785 496.47632l-2.328125 -7.59375l1.328125 0l1.203125 4.375l0.453125 1.640625q0.03125 -0.125 0.390625 -1.578125l1.21875 -4.4375l1.328125 0l1.125 4.40625l0.390625 1.453125l0.4375 -1.46875l1.296875 -4.390625l1.25 0l-2.375 7.59375l-1.34375 0l-1.203125 -4.546875l-0.296875 -1.296875l-1.53125 5.84375l-1.34375 0z" fill-rule="nonzero"/><path fill="#000000" d="m116.59775 501.97632l-0.859375 0l0 -5.46875q-0.3125 0.296875 -0.8125 0.59375q-0.5 0.296875 -0.90625 0.4375l0 -0.828125q0.71875 -0.34375 1.25 -0.8125q0.546875 -0.484375 0.765625 -0.9375l0.5625 0l0 7.015625z" fill-rule="nonzero"/><path fill="#000000" fill-opacity="0.0" d="m242.59108 479.6719l30.519669 0l0 24.724426l-30.519669 0z" fill-rule="evenodd"/><path stroke="#595959" stroke-width="1.0" stroke-linejoin="round" stroke-linecap="butt" d="m242.59108 479.6719l30.519669 0l0 24.724426l-30.519669 0z" fill-rule="evenodd"/><path fill="#000000" d="m252.21819 496.47632l-2.328125 -7.59375l1.328125 0l1.203125 4.375l0.453125 1.640625q0.03125 -0.125 0.390625 -1.578125l1.21875 -4.4375l1.328125 0l1.1250153 4.40625l0.390625 1.453125l0.4375 -1.46875l1.296875 -4.390625l1.25 0l-2.375 7.59375l-1.34375 0l-1.2031403 -4.546875l-0.296875 -1.296875l-1.53125 5.84375l-1.34375 0z" fill-rule="nonzero"/><path fill="#000000" d="m265.34933 501.1482l0 0.828125l-4.625 0q-0.015625 -0.3125 0.09375 -0.59375q0.1875 -0.46875 0.5625 -0.921875q0.390625 -0.46875 1.125 -1.0625q1.140625 -0.9375 1.546875 -1.484375q0.40625 -0.546875 0.40625 -1.03125q0 -0.515625 -0.375 -0.859375q-0.359375 -0.359375 -0.953125 -0.359375q-0.609375 0 -0.984375 0.375q-0.375 0.375 -0.375 1.03125l-0.890625 -0.09375q0.09375 -0.984375 0.6875 -1.5q0.59375 -0.515625 1.59375 -0.515625q1.0 0 1.578125 0.5625q0.59375 0.546875 0.59375 1.375q0 0.421875 -0.171875 0.828125q-0.171875 0.40625 -0.578125 0.859375q-0.390625 0.4375 -1.3125 1.21875q-0.78125 0.65625 -1.0 0.890625q-0.21875 0.21875 -0.359375 0.453125l3.4375 0z" fill-rule="nonzero"/><path fill="#000000" fill-opacity="0.0" d="m390.06143 479.6719l30.519684 0l0 24.724426l-30.519684 0z" fill-rule="evenodd"/><path stroke="#595959" stroke-width="1.0" stroke-linejoin="round" stroke-linecap="butt" d="m390.06143 479.6719l30.519684 0l0 24.724426l-30.519684 0z" fill-rule="evenodd"/><path fill="#000000" d="m399.68854 496.47632l-2.328125 -7.59375l1.328125 0l1.203125 4.375l0.453125 1.640625q0.03125 -0.125 0.390625 -1.578125l1.21875 -4.4375l1.328125 0l1.125 4.40625l0.390625 1.453125l0.4375 -1.46875l1.296875 -4.390625l1.25 0l-2.375 7.59375l-1.34375 0l-1.203125 -4.546875l-0.296875 -1.296875l-1.53125 5.84375l-1.34375 0z" fill-rule="nonzero"/><path fill="#000000" d="m408.30405 500.13257l0.859375 -0.109375q0.15625 0.71875 0.5 1.046875q0.359375 0.3125 0.875 0.3125q0.609375 0 1.015625 -0.40625q0.421875 -0.421875 0.421875 -1.046875q0 -0.59375 -0.390625 -0.96875q-0.390625 -0.390625 -0.984375 -0.390625q-0.234375 0 -0.59375 0.09375l0.09375 -0.75q0.078125 0.015625 0.140625 0.015625q0.546875 0 0.984375 -0.28125q0.4375 -0.296875 0.4375 -0.890625q0 -0.46875 -0.328125 -0.78125q-0.3125 -0.3125 -0.8125 -0.3125q-0.515625 0 -0.84375 0.3125q-0.328125 0.3125 -0.421875 0.953125l-0.859375 -0.15625q0.15625 -0.859375 0.703125 -1.328125q0.5625 -0.484375 1.390625 -0.484375q0.578125 0 1.0625 0.25q0.484375 0.234375 0.734375 0.671875q0.25 0.421875 0.25 0.890625q0 0.453125 -0.25 0.828125q-0.234375 0.375 -0.703125 0.59375q0.609375 0.140625 0.953125 0.59375q0.34375 0.453125 0.34375 1.125q0 0.90625 -0.671875 1.546875q-0.65625 0.640625 -1.6875 0.640625q-0.90625 0 -1.515625 -0.546875q-0.609375 -0.546875 -0.703125 -1.421875z" fill-rule="nonzero"/><path fill="#000000" fill-opacity="0.0" d="m537.53174 479.6719l30.519714 0l0 24.724426l-30.519714 0z" fill-rule="evenodd"/><path stroke="#595959" stroke-width="1.0" stroke-linejoin="round" stroke-linecap="butt" d="m537.53174 479.6719l30.519714 0l0 24.724426l-30.519714 0z" fill-rule="evenodd"/><path fill="#000000" d="m547.1589 496.47632l-2.328125 -7.59375l1.328125 0l1.203125 4.375l0.453125 1.640625q0.03125 -0.125 0.390625 -1.578125l1.21875 -4.4375l1.328125 0l1.125 4.40625l0.390625 1.453125l0.4375 -1.46875l1.296875 -4.390625l1.25 0l-2.375 7.59375l-1.34375 0l-1.203125 -4.546875l-0.296875 -1.296875l-1.53125 5.84375l-1.34375 0z" fill-rule="nonzero"/><path fill="#000000" d="m558.5244 501.97632l0 -1.671875l-3.03125 0l0 -0.78125l3.1875 -4.53125l0.703125 0l0 4.53125l0.9375 0l0 0.78125l-0.9375 0l0 1.671875l-0.859375 0zm0 -2.453125l0 -3.15625l-2.1875 3.15625l2.1875 0z" fill-rule="nonzero"/><path fill="#000000" fill-opacity="0.0" d="m685.0021 479.6719l30.519714 0l0 24.724426l-30.519714 0z" fill-rule="evenodd"/><path stroke="#595959" stroke-width="1.0" stroke-linejoin="round" stroke-linecap="butt" d="m685.0021 479.6719l30.519714 0l0 24.724426l-30.519714 0z" fill-rule="evenodd"/><path fill="#000000" d="m694.6292 496.47632l-2.328125 -7.59375l1.328125 0l1.203125 4.375l0.453125 1.640625q0.03125 -0.125 0.390625 -1.578125l1.21875 -4.4375l1.328125 0l1.125 4.40625l0.390625 1.453125l0.4375 -1.46875l1.296875 -4.390625l1.25 0l-2.375 7.59375l-1.34375 0l-1.203125 -4.546875l-0.296875 -1.296875l-1.53125 5.84375l-1.34375 0z" fill-rule="nonzero"/><path fill="#000000" d="m703.24475 500.1482l0.90625 -0.078125q0.09375 0.65625 0.453125 0.984375q0.375 0.328125 0.890625 0.328125q0.609375 0 1.03125 -0.453125q0.4375 -0.46875 0.4375 -1.25q0 -0.734375 -0.421875 -1.15625q-0.40625 -0.421875 -1.0625 -0.421875q-0.421875 0 -0.765625 0.1875q-0.328125 0.1875 -0.515625 0.484375l-0.796875 -0.09375l0.671875 -3.59375l3.484375 0l0 0.8125l-2.796875 0l-0.375 1.875q0.625 -0.4375 1.3125 -0.4375q0.921875 0 1.546875 0.640625q0.640625 0.640625 0.640625 1.625q0 0.953125 -0.5625 1.640625q-0.671875 0.859375 -1.828125 0.859375q-0.953125 0 -1.5625 -0.53125q-0.609375 -0.546875 -0.6875 -1.421875z" fill-rule="nonzero"/><path fill="#000000" fill-opacity="0.0" d="m52.727253 428.77036l42.393703 0.6614075" fill-rule="evenodd"/><path stroke="#595959" stroke-width="1.0" stroke-linejoin="round" stroke-linecap="butt" d="m52.727253 428.77036l38.967022 0.6079407" fill-rule="evenodd"/><path fill="#595959" stroke="#595959" stroke-width="1.0" stroke-linecap="butt" d="m91.69428 429.3783l-1.1419907 1.1069031l3.1069336 -1.0762329l-3.071846 -1.1726685z" fill-rule="evenodd"/><path fill="#000000" fill-opacity="0.0" d="m125.64064 429.43176l43.2126 -0.6614075" fill-rule="evenodd"/><path stroke="#595959" stroke-width="1.0" stroke-linejoin="round" stroke-linecap="butt" d="m125.64063 429.43176l39.78591 -0.6089783" fill-rule="evenodd"/><path fill="#595959" stroke="#595959" stroke-width="1.0" stroke-linecap="butt" d="m165.42654 428.82278l-1.1072388 1.1416626l3.0722046 -1.1717224l-3.1066284 -1.077179z" fill-rule="evenodd"/><path fill="#000000" fill-opacity="0.0" d="m199.37576 428.75854l43.2126 0.6614075" fill-rule="evenodd"/><path stroke="#595959" stroke-width="1.0" stroke-linejoin="round" stroke-linecap="butt" d="m199.37576 428.75854l39.785904 0.60894775" fill-rule="evenodd"/><path fill="#595959" stroke="#595959" stroke-width="1.0" stroke-linecap="butt" d="m239.16167 429.3675l-1.1416626 1.1072388l3.1066284 -1.0771484l-3.0722046 -1.1717529z" fill-rule="evenodd"/><path fill="#000000" fill-opacity="0.0" d="m273.1109 429.43176l43.212585 -0.6614075" fill-rule="evenodd"/><path stroke="#595959" stroke-width="1.0" stroke-linejoin="round" stroke-linecap="butt" d="m273.1109 429.43176l39.78589 -0.6089783" fill-rule="evenodd"/><path fill="#595959" stroke="#595959" stroke-width="1.0" stroke-linecap="butt" d="m312.89682 428.82278l-1.1072693 1.1416626l3.0722046 -1.1717224l-3.106598 -1.077179z" fill-rule="evenodd"/><path fill="#000000" fill-opacity="0.0" d="m346.846 428.75854l43.212616 0.6614075" fill-rule="evenodd"/><path stroke="#595959" stroke-width="1.0" stroke-linejoin="round" stroke-linecap="butt" d="m346.846 428.75854l39.78592 0.60894775" fill-rule="evenodd"/><path fill="#595959" stroke="#595959" stroke-width="1.0" stroke-linecap="butt" d="m386.63193 429.3675l-1.1416626 1.1072388l3.106598 -1.0771484l-3.072174 -1.1717529z" fill-rule="evenodd"/><path fill="#000000" fill-opacity="0.0" d="m420.58115 429.43176l43.212585 -0.6614075" fill-rule="evenodd"/><path stroke="#595959" stroke-width="1.0" stroke-linejoin="round" stroke-linecap="butt" d="m420.58115 429.43176l39.78595 -0.6089783" fill-rule="evenodd"/><path fill="#595959" stroke="#595959" stroke-width="1.0" stroke-linecap="butt" d="m460.36707 428.82278l-1.1072388 1.1416626l3.0722046 -1.1717224l-3.1066284 -1.077179z" fill-rule="evenodd"/><path fill="#000000" fill-opacity="0.0" d="m494.31628 428.75854l43.212585 0.6614075" fill-rule="evenodd"/><path stroke="#595959" stroke-width="1.0" stroke-linejoin="round" stroke-linecap="butt" d="m494.31628 428.75854l39.78589 0.60894775" fill-rule="evenodd"/><path fill="#595959" stroke="#595959" stroke-width="1.0" stroke-linecap="butt" d="m534.1022 429.3675l-1.1416626 1.1072388l3.1066284 -1.0771484l-3.0722046 -1.1717529z" fill-rule="evenodd"/><path fill="#000000" fill-opacity="0.0" d="m641.7865 428.75854l43.212646 0" fill-rule="evenodd"/><path stroke="#595959" stroke-width="1.0" stroke-linejoin="round" stroke-linecap="butt" d="m641.78656 428.75854l39.785522 0" fill-rule="evenodd"/><path fill="#595959" stroke="#595959" stroke-width="1.0" stroke-linecap="butt" d="m681.5721 428.75854l-1.1246338 1.1245728l3.0897827 -1.1245728l-3.0897827 -1.1246033z" fill-rule="evenodd"/><path fill="#000000" fill-opacity="0.0" d="m568.0514 429.43176l43.212585 -0.6614075" fill-rule="evenodd"/><path stroke="#595959" stroke-width="1.0" stroke-linejoin="round" stroke-linecap="butt" d="m568.0514 429.43176l39.78595 -0.6089783" fill-rule="evenodd"/><path fill="#595959" stroke="#595959" stroke-width="1.0" stroke-linecap="butt" d="m607.8373 428.82278l-1.1072388 1.1416626l3.0722046 -1.1717224l-3.1066284 -1.077179z" fill-rule="evenodd"/><path fill="#000000" fill-opacity="0.0" d="m715.52167 428.75723l43.212585 0.6614075" fill-rule="evenodd"/><path stroke="#595959" stroke-width="1.0" stroke-linejoin="round" stroke-linecap="butt" d="m715.52167 428.75723l39.78589 0.60894775" fill-rule="evenodd"/><path fill="#595959" stroke="#595959" stroke-width="1.0" stroke-linecap="butt" d="m755.30756 429.36618l-1.1416626 1.1072388l3.1066284 -1.0771484l-3.0722046 -1.1717529z" fill-rule="evenodd"/><path fill="#000000" fill-opacity="0.0" d="m110.38058 479.6719l0 -37.88974" fill-rule="evenodd"/><path stroke="#595959" stroke-width="1.0" stroke-linejoin="round" stroke-linecap="butt" d="m110.38058 479.6719l0 -34.462677" fill-rule="evenodd"/><path fill="#595959" stroke="#595959" stroke-width="1.0" stroke-linecap="butt" d="m110.38058 445.20923l1.1245804 1.1246033l-1.1245804 -3.0897827l-1.1245804 3.0897827z" fill-rule="evenodd"/><path fill="#000000" fill-opacity="0.0" d="m257.85092 479.6719l0 -37.88974" fill-rule="evenodd"/><path stroke="#595959" stroke-width="1.0" stroke-linejoin="round" stroke-linecap="butt" d="m257.85092 479.6719l0 -34.462677" fill-rule="evenodd"/><path fill="#595959" stroke="#595959" stroke-width="1.0" stroke-linecap="butt" d="m257.85092 445.20923l1.1246033 1.1246033l-1.1246033 -3.0897827l-1.1245728 3.0897827z" fill-rule="evenodd"/><path fill="#000000" fill-opacity="0.0" d="m405.32126 479.6719l0 -37.88974" fill-rule="evenodd"/><path stroke="#595959" stroke-width="1.0" stroke-linejoin="round" stroke-linecap="butt" d="m405.3213 479.6719l0 -34.462677" fill-rule="evenodd"/><path fill="#595959" stroke="#595959" stroke-width="1.0" stroke-linecap="butt" d="m405.3213 445.20923l1.1245728 1.1246033l-1.1245728 -3.0897827l-1.1246033 3.0897827z" fill-rule="evenodd"/><path fill="#000000" fill-opacity="0.0" d="m552.7916 479.6719l0 -37.88974" fill-rule="evenodd"/><path stroke="#595959" stroke-width="1.0" stroke-linejoin="round" stroke-linecap="butt" d="m552.79156 479.6719l0 -34.462677" fill-rule="evenodd"/><path fill="#595959" stroke="#595959" stroke-width="1.0" stroke-linecap="butt" d="m552.79156 445.20923l1.1245728 1.1246033l-1.1245728 -3.0897827l-1.1245728 3.0897827z" fill-rule="evenodd"/><path fill="#000000" fill-opacity="0.0" d="m700.26196 479.6719l0 -38.551178" fill-rule="evenodd"/><path stroke="#595959" stroke-width="1.0" stroke-linejoin="round" stroke-linecap="butt" d="m700.26196 479.6719l0 -35.124084" fill-rule="evenodd"/><path fill="#595959" stroke="#595959" stroke-width="1.0" stroke-linecap="butt" d="m700.26196 444.54782l1.1245728 1.1245728l-1.1245728 -3.0897522l-1.1245728 3.0897522z" fill-rule="evenodd"/><path fill="#000000" fill-opacity="0.0" d="m832.4722 428.75723l0 0c0 -6.827484 6.8320312 -12.362213 15.259827 -12.362213l0 0c8.427795 0 15.259827 5.534729 15.259827 12.362213l0 0c0 6.8274536 -6.8320312 12.362183 -15.259827 12.362183l0 0c-8.427795 0 -15.259827 -5.534729 -15.259827 -12.362183z" fill-rule="evenodd"/><path stroke="#595959" stroke-width="1.0" stroke-linejoin="round" stroke-linecap="butt" d="m832.4722 428.75723l0 0c0 -6.827484 6.8320312 -12.362213 15.259827 -12.362213l0 0c8.427795 0 15.259827 5.534729 15.259827 12.362213l0 0c0 6.8274536 -6.8320312 12.362183 -15.259827 12.362183l0 0c-8.427795 0 -15.259827 -5.534729 -15.259827 -12.362183z" fill-rule="evenodd"/><path fill="#000000" d="m843.93677 432.61722l0 -7.203125l-1.234375 0l0 -1.09375l1.234375 0l0 -0.890625q0 -0.828125 0.15625 -1.234375q0.203125 -0.546875 0.703125 -0.890625q0.515625 -0.34375 1.4375 -0.34375q0.59375 0 1.3125 0.140625l-0.203125 1.234375q-0.4375 -0.078125 -0.828125 -0.078125q-0.640625 0 -0.90625 0.28125q-0.265625 0.265625 -0.265625 1.015625l0 0.765625l1.609375 0l0 1.09375l-1.609375 0l0 7.203125l-1.40625 0z" fill-rule="nonzero"/><path fill="#000000" d="m847.7727 438.61722l0 -7.625l1.015625 0l0 6.71875l3.75 0l0 0.90625l-4.765625 0z" fill-rule="nonzero"/><path fill="#000000" fill-opacity="0.0" d="m906.20734 416.39633l30.519714 0l0 24.724396l-30.519714 0z" fill-rule="evenodd"/><path stroke="#595959" stroke-width="1.0" stroke-linejoin="round" stroke-linecap="butt" d="m906.20734 416.39633l30.519714 0l0 24.724396l-30.519714 0z" fill-rule="evenodd"/><path fill="#000000" d="m918.4698 433.20074l0 -10.484375l1.390625 0l0 9.25l5.15625 0l0 1.234375l-6.546875 0z" fill-rule="nonzero"/><path fill="#000000" fill-opacity="0.0" d="m832.4724 479.6719l30.519714 0l0 24.724426l-30.519714 0z" fill-rule="evenodd"/><path stroke="#595959" stroke-width="1.0" stroke-linejoin="round" stroke-linecap="butt" d="m832.4724 479.6719l30.519714 0l0 24.724426l-30.519714 0z" fill-rule="evenodd"/><path fill="#000000" d="m844.9745 499.3982l-0.140625 -1.203125q0.421875 0.109375 0.734375 0.109375q0.4375 0 0.6875 -0.140625q0.265625 -0.140625 0.421875 -0.40625q0.125 -0.1875 0.390625 -0.953125q0.046875 -0.109375 0.125 -0.3125l-2.890625 -7.609375l1.390625 0l1.578125 4.390625q0.3125 0.84375 0.546875 1.765625q0.234375 -0.890625 0.53125 -1.734375l1.625 -4.421875l1.296875 0l-2.890625 7.71875q-0.46875 1.25 -0.734375 1.734375q-0.34375 0.625 -0.78125 0.921875q-0.4375 0.296875 -1.0625 0.296875q-0.375 0 -0.828125 -0.15625zm3.09375 -12.6875l-0.8125 1.21875l-1.484375 0l1.546875 -2.0l1.375 0l1.609375 2.0l-1.453125 0l-0.78125 -1.21875z" fill-rule="nonzero"/><path fill="#000000" fill-opacity="0.0" d="m789.2568 429.43307l43.212585 -0.6614075" fill-rule="evenodd"/><path stroke="#595959" stroke-width="1.0" stroke-linejoin="round" stroke-linecap="butt" d="m789.25684 429.43307l39.78589 -0.6089783" fill-rule="evenodd"/><path fill="#595959" stroke="#595959" stroke-width="1.0" stroke-linecap="butt" d="m829.0427 428.8241l-1.1072388 1.1416626l3.0722046 -1.1717224l-3.1066284 -1.077179z" fill-rule="evenodd"/><path fill="#000000" fill-opacity="0.0" d="m862.9919 428.75723l43.212646 0" fill-rule="evenodd"/><path stroke="#595959" stroke-width="1.0" stroke-linejoin="round" stroke-linecap="butt" d="m862.9919 428.75723l39.785522 0" fill-rule="evenodd"/><path fill="#595959" stroke="#595959" stroke-width="1.0" stroke-linecap="butt" d="m902.7774 428.75723l-1.1245728 1.1245728l3.0897217 -1.1245728l-3.0897217 -1.1246033z" fill-rule="evenodd"/><path fill="#000000" fill-opacity="0.0" d="m847.7323 479.6719l0 -38.551178" fill-rule="evenodd"/><path stroke="#595959" stroke-width="1.0" stroke-linejoin="round" stroke-linecap="butt" d="m847.7323 479.6719l0 -35.124084" fill-rule="evenodd"/><path fill="#595959" stroke="#595959" stroke-width="1.0" stroke-linecap="butt" d="m847.7323 444.54782l1.1245728 1.1245728l-1.1245728 -3.0897522l-1.1245728 3.0897522z" fill-rule="evenodd"/><path fill="#000000" fill-opacity="0.0" d="m21.385826 240.39633l30.519684 0l0 24.724396l-30.519684 0z" fill-rule="evenodd"/><path stroke="#595959" stroke-width="1.0" stroke-linejoin="round" stroke-linecap="butt" d="m21.385826 240.39633l30.519684 0l0 24.724396l-30.519684 0z" fill-rule="evenodd"/><path fill="#000000" d="m35.229958 257.20074l-10.749998 0l5.15625 -10.10939l0.5 0l5.093748 10.10939zm-2.71875 -0.59375l-3.531248 -7.0000153l-3.5625 7.0000153l7.093748 0z" fill-rule="nonzero"/><path fill="#000000" d="m41.338463 256.26324q-0.71875 0.609375 -1.375 0.859375q-0.65625 0.25 -1.421875 0.25q-1.25 0 -1.921875 -0.609375q-0.671875 -0.609375 -0.671875 -1.5625153q0 -0.5625 0.25 -1.015625q0.25 -0.46875 0.65625 -0.75q0.421875 -0.28125 0.9375 -0.421875q0.375 -0.09375 1.140625 -0.1875q1.5625 -0.1875 2.296875 -0.453125q0.015625 -0.265625 0.015625 -0.328125q0 -0.796875 -0.375 -1.109375q-0.484375 -0.4375 -1.453125 -0.4375q-0.921875 0 -1.359375 0.328125q-0.421875 0.3125 -0.625 1.109375l-1.265625 -0.171875q0.171875 -0.796875 0.5625 -1.296875q0.390625 -0.5 1.140625 -0.765625q0.75 -0.265625 1.71875 -0.265625q0.984375 0 1.59375 0.234375q0.609375 0.21875 0.890625 0.5625q0.28125 0.34375 0.40625 0.875q0.0625 0.328125 0.0625 1.1875l0 1.71875q0 1.796875 0.078125 2.2812653q0.078125 0.46875 0.328125 0.90625l-1.34375 0q-0.203125 -0.40625 -0.265625 -0.9375zm-0.109375 -2.8750153q-0.703125 0.28125 -2.09375 0.484375q-0.796875 0.109375 -1.125 0.265625q-0.328125 0.140625 -0.515625 0.421875q-0.171875 0.265625 -0.171875 0.59375q0 0.515625 0.390625 0.85939026q0.390625 0.34375 1.140625 0.34375q0.734375 0 1.3125 -0.3125q0.59375 -0.32814026 0.859375 -0.89064026q0.203125 -0.4375 0.203125 -1.296875l0 -0.46875z" fill-rule="nonzero"/><path fill="#000000" d="m47.20832 262.70074l-0.859375 0l0 -5.46875q-0.3125 0.296875 -0.8125 0.59375q-0.5 0.296875 -0.90625 0.4375l0 -0.828125q0.71875 -0.34375 1.25 -0.8125q0.546875 -0.484375 0.765625 -0.93751526l0.5625 0l0 7.0156403z" fill-rule="nonzero"/><path fill="#000000" fill-opacity="0.0" d="m168.85608 240.39633l30.519684 0l0 24.724396l-30.519684 0z" fill-rule="evenodd"/><path stroke="#595959" stroke-width="1.0" stroke-linejoin="round" stroke-linecap="butt" d="m168.85608 240.39633l30.519684 0l0 24.724396l-30.519684 0z" fill-rule="evenodd"/><path fill="#000000" d="m182.70021 257.20074l-10.75 0l5.15625 -10.10939l0.5 0l5.09375 10.10939zm-2.71875 -0.59375l-3.53125 -7.0000153l-3.5625 7.0000153l7.09375 0z" fill-rule="nonzero"/><path fill="#000000" d="m188.80872 256.26324q-0.71875 0.609375 -1.375 0.859375q-0.65625 0.25 -1.421875 0.25q-1.25 0 -1.921875 -0.609375q-0.671875 -0.609375 -0.671875 -1.5625153q0 -0.5625 0.25 -1.015625q0.25 -0.46875 0.65625 -0.75q0.421875 -0.28125 0.9375 -0.421875q0.375 -0.09375 1.140625 -0.1875q1.5625 -0.1875 2.296875 -0.453125q0.015625 -0.265625 0.015625 -0.328125q0 -0.796875 -0.375 -1.109375q-0.484375 -0.4375 -1.453125 -0.4375q-0.921875 0 -1.359375 0.328125q-0.421875 0.3125 -0.625 1.109375l-1.265625 -0.171875q0.171875 -0.796875 0.5625 -1.296875q0.390625 -0.5 1.140625 -0.765625q0.75 -0.265625 1.71875 -0.265625q0.984375 0 1.59375 0.234375q0.609375 0.21875 0.890625 0.5625q0.28125 0.34375 0.40625 0.875q0.0625 0.328125 0.0625 1.1875l0 1.71875q0 1.796875 0.078125 2.2812653q0.078125 0.46875 0.328125 0.90625l-1.34375 0q-0.203125 -0.40625 -0.265625 -0.9375zm-0.109375 -2.8750153q-0.703125 0.28125 -2.09375 0.484375q-0.796875 0.109375 -1.125 0.265625q-0.328125 0.140625 -0.515625 0.421875q-0.171875 0.265625 -0.171875 0.59375q0 0.515625 0.390625 0.85939026q0.390625 0.34375 1.140625 0.34375q0.734375 0 1.3125 -0.3125q0.59375 -0.32814026 0.859375 -0.89064026q0.203125 -0.4375 0.203125 -1.296875l0 -0.46875z" fill-rule="nonzero"/><path fill="#000000" d="m195.95982 261.87262l0 0.828125l-4.625 0q-0.015625 -0.3125 0.09375 -0.59375q0.1875 -0.46875 0.5625 -0.921875q0.390625 -0.46875 1.125 -1.0625q1.140625 -0.9375 1.546875 -1.484375q0.40625 -0.546875 0.40625 -1.03125q0 -0.515625 -0.375 -0.859375q-0.359375 -0.359375 -0.953125 -0.359375q-0.609375 0 -0.984375 0.375q-0.375 0.375 -0.375 1.03125l-0.890625 -0.09375q0.09375 -0.984375 0.6875 -1.5q0.59375 -0.51564026 1.59375 -0.51564026q1.0 0 1.578125 0.56251526q0.59375 0.546875 0.59375 1.375q0 0.421875 -0.171875 0.828125q-0.171875 0.40625 -0.578125 0.859375q-0.390625 0.4375 -1.3125 1.21875q-0.78125 0.65625 -1.0 0.890625q-0.21875 0.21875 -0.359375 0.453125l3.4375 0z" fill-rule="nonzero"/><path fill="#000000" fill-opacity="0.0" d="m316.32632 240.39633l30.519684 0l0 24.724396l-30.519684 0z" fill-rule="evenodd"/><path stroke="#595959" stroke-width="1.0" stroke-linejoin="round" stroke-linecap="butt" d="m316.32632 240.39633l30.519684 0l0 24.724396l-30.519684 0z" fill-rule="evenodd"/><path fill="#000000" d="m330.17047 257.20074l-10.75 0l5.15625 -10.10939l0.5 0l5.09375 10.10939zm-2.71875 -0.59375l-3.53125 -7.0000153l-3.5625 7.0000153l7.09375 0z" fill-rule="nonzero"/><path fill="#000000" d="m336.27896 256.26324q-0.71875 0.609375 -1.375 0.859375q-0.65625 0.25 -1.421875 0.25q-1.25 0 -1.921875 -0.609375q-0.671875 -0.609375 -0.671875 -1.5625153q0 -0.5625 0.25 -1.015625q0.25 -0.46875 0.65625 -0.75q0.421875 -0.28125 0.9375 -0.421875q0.375 -0.09375 1.140625 -0.1875q1.5625 -0.1875 2.296875 -0.453125q0.015625 -0.265625 0.015625 -0.328125q0 -0.796875 -0.375 -1.109375q-0.484375 -0.4375 -1.453125 -0.4375q-0.921875 0 -1.359375 0.328125q-0.421875 0.3125 -0.625 1.109375l-1.265625 -0.171875q0.171875 -0.796875 0.5625 -1.296875q0.390625 -0.5 1.140625 -0.765625q0.75 -0.265625 1.71875 -0.265625q0.984375 0 1.59375 0.234375q0.609375 0.21875 0.890625 0.5625q0.28125 0.34375 0.40625 0.875q0.0625 0.328125 0.0625 1.1875l0 1.71875q0 1.796875 0.078125 2.2812653q0.078125 0.46875 0.328125 0.90625l-1.34375 0q-0.203125 -0.40625 -0.265625 -0.9375zm-0.109375 -2.8750153q-0.703125 0.28125 -2.09375 0.484375q-0.796875 0.109375 -1.125 0.265625q-0.328125 0.140625 -0.515625 0.421875q-0.171875 0.265625 -0.171875 0.59375q0 0.515625 0.390625 0.85939026q0.390625 0.34375 1.140625 0.34375q0.734375 0 1.3125 -0.3125q0.59375 -0.32814026 0.859375 -0.89064026q0.203125 -0.4375 0.203125 -1.296875l0 -0.46875z" fill-rule="nonzero"/><path fill="#000000" d="m338.91446 260.857l0.859375 -0.109375q0.15625 0.71875 0.5 1.046875q0.359375 0.3125 0.875 0.3125q0.609375 0 1.015625 -0.40625q0.421875 -0.421875 0.421875 -1.046875q0 -0.59375 -0.390625 -0.96875q-0.390625 -0.390625 -0.984375 -0.390625q-0.234375 0 -0.59375 0.09375l0.09375 -0.75q0.078125 0.015625 0.140625 0.015625q0.546875 0 0.984375 -0.28125q0.4375 -0.296875 0.4375 -0.890625q0 -0.46875 -0.328125 -0.78125q-0.3125 -0.3125 -0.8125 -0.3125q-0.515625 0 -0.84375 0.3125q-0.328125 0.3125 -0.421875 0.953125l-0.859375 -0.15625q0.15625 -0.859375 0.703125 -1.328125q0.5625 -0.48439026 1.390625 -0.48439026q0.578125 0 1.0625 0.25q0.484375 0.23439026 0.734375 0.67189026q0.25 0.421875 0.25 0.890625q0 0.453125 -0.25 0.828125q-0.234375 0.375 -0.703125 0.59375q0.609375 0.140625 0.953125 0.59375q0.34375 0.453125 0.34375 1.125q0 0.90625 -0.671875 1.546875q-0.65625 0.640625 -1.6875 0.640625q-0.90625 0 -1.515625 -0.546875q-0.609375 -0.546875 -0.703125 -1.421875z" fill-rule="nonzero"/><path fill="#000000" fill-opacity="0.0" d="m463.7966 240.39633l30.519684 0l0 24.724396l-30.519684 0z" fill-rule="evenodd"/><path stroke="#595959" stroke-width="1.0" stroke-linejoin="round" stroke-linecap="butt" d="m463.7966 240.39633l30.519684 0l0 24.724396l-30.519684 0z" fill-rule="evenodd"/><path fill="#000000" d="m477.64072 257.20074l-10.75 0l5.15625 -10.10939l0.5 0l5.09375 10.10939zm-2.71875 -0.59375l-3.53125 -7.0000153l-3.5625 7.0000153l7.09375 0z" fill-rule="nonzero"/><path fill="#000000" d="m483.74924 256.26324q-0.71875 0.609375 -1.375 0.859375q-0.65625 0.25 -1.421875 0.25q-1.25 0 -1.921875 -0.609375q-0.671875 -0.609375 -0.671875 -1.5625153q0 -0.5625 0.25 -1.015625q0.25 -0.46875 0.65625 -0.75q0.421875 -0.28125 0.9375 -0.421875q0.375 -0.09375 1.140625 -0.1875q1.5625 -0.1875 2.296875 -0.453125q0.015625 -0.265625 0.015625 -0.328125q0 -0.796875 -0.375 -1.109375q-0.484375 -0.4375 -1.453125 -0.4375q-0.921875 0 -1.359375 0.328125q-0.421875 0.3125 -0.625 1.109375l-1.265625 -0.171875q0.171875 -0.796875 0.5625 -1.296875q0.390625 -0.5 1.140625 -0.765625q0.75 -0.265625 1.71875 -0.265625q0.984375 0 1.59375 0.234375q0.609375 0.21875 0.890625 0.5625q0.28125 0.34375 0.40625 0.875q0.0625 0.328125 0.0625 1.1875l0 1.71875q0 1.796875 0.078125 2.2812653q0.078125 0.46875 0.328125 0.90625l-1.34375 0q-0.203125 -0.40625 -0.265625 -0.9375zm-0.109375 -2.8750153q-0.703125 0.28125 -2.09375 0.484375q-0.796875 0.109375 -1.125 0.265625q-0.328125 0.140625 -0.515625 0.421875q-0.171875 0.265625 -0.171875 0.59375q0 0.515625 0.390625 0.85939026q0.390625 0.34375 1.140625 0.34375q0.734375 0 1.3125 -0.3125q0.59375 -0.32814026 0.859375 -0.89064026q0.203125 -0.4375 0.203125 -1.296875l0 -0.46875z" fill-rule="nonzero"/><path fill="#000000" d="m489.1347 262.70074l0 -1.671875l-3.03125 0l0 -0.78125l3.1875 -4.5312653l0.703125 0l0 4.5312653l0.9375 0l0 0.78125l-0.9375 0l0 1.671875l-0.859375 0zm0 -2.453125l0 -3.15625l-2.1875 3.15625l2.1875 0z" fill-rule="nonzero"/><path fill="#000000" fill-opacity="0.0" d="m611.26685 240.39633l30.519653 0l0 24.724396l-30.519653 0z" fill-rule="evenodd"/><path stroke="#595959" stroke-width="1.0" stroke-linejoin="round" stroke-linecap="butt" d="m611.26685 240.39633l30.519653 0l0 24.724396l-30.519653 0z" fill-rule="evenodd"/><path fill="#000000" d="m625.11096 257.20074l-10.75 0l5.15625 -10.10939l0.5 0l5.09375 10.10939zm-2.71875 -0.59375l-3.53125 -7.0000153l-3.5625 7.0000153l7.09375 0z" fill-rule="nonzero"/><path fill="#000000" d="m631.2195 256.26324q-0.71875 0.609375 -1.375 0.859375q-0.65625 0.25 -1.421875 0.25q-1.25 0 -1.921875 -0.609375q-0.671875 -0.609375 -0.671875 -1.5625153q0 -0.5625 0.25 -1.015625q0.25 -0.46875 0.65625 -0.75q0.421875 -0.28125 0.9375 -0.421875q0.375 -0.09375 1.140625 -0.1875q1.5625 -0.1875 2.296875 -0.453125q0.015625 -0.265625 0.015625 -0.328125q0 -0.796875 -0.375 -1.109375q-0.484375 -0.4375 -1.453125 -0.4375q-0.921875 0 -1.359375 0.328125q-0.421875 0.3125 -0.625 1.109375l-1.265625 -0.171875q0.171875 -0.796875 0.5625 -1.296875q0.390625 -0.5 1.140625 -0.765625q0.75 -0.265625 1.71875 -0.265625q0.984375 0 1.59375 0.234375q0.609375 0.21875 0.890625 0.5625q0.28125 0.34375 0.40625 0.875q0.0625 0.328125 0.0625 1.1875l0 1.71875q0 1.796875 0.078125 2.2812653q0.078125 0.46875 0.328125 0.90625l-1.34375 0q-0.203125 -0.40625 -0.265625 -0.9375zm-0.109375 -2.8750153q-0.703125 0.28125 -2.09375 0.484375q-0.796875 0.109375 -1.125 0.265625q-0.328125 0.140625 -0.515625 0.421875q-0.171875 0.265625 -0.171875 0.59375q0 0.515625 0.390625 0.85939026q0.390625 0.34375 1.140625 0.34375q0.734375 0 1.3125 -0.3125q0.59375 -0.32814026 0.859375 -0.89064026q0.203125 -0.4375 0.203125 -1.296875l0 -0.46875z" fill-rule="nonzero"/><path fill="#000000" d="m633.855 260.87262l0.90625 -0.078125q0.09375 0.65625 0.453125 0.984375q0.375 0.328125 0.890625 0.328125q0.609375 0 1.03125 -0.453125q0.4375 -0.46875 0.4375 -1.25q0 -0.734375 -0.421875 -1.15625q-0.40625 -0.421875 -1.0625 -0.421875q-0.421875 0 -0.765625 0.1875q-0.328125 0.1875 -0.515625 0.484375l-0.796875 -0.09375l0.671875 -3.5937653l3.484375 0l0 0.81251526l-2.796875 0l-0.375 1.875q0.625 -0.4375 1.3125 -0.4375q0.921875 0 1.546875 0.640625q0.640625 0.640625 0.640625 1.625q0 0.953125 -0.5625 1.640625q-0.671875 0.859375 -1.828125 0.859375q-0.953125 0 -1.5625 -0.53125q-0.609375 -0.546875 -0.6875 -1.421875z" fill-rule="nonzero"/><path fill="#000000" fill-opacity="0.0" d="m758.7371 241.07086l30.519653 0l0 24.724426l-30.519653 0z" fill-rule="evenodd"/><path stroke="#595959" stroke-width="1.0" stroke-linejoin="round" stroke-linecap="butt" d="m758.7371 241.07086l30.519653 0l0 24.724426l-30.519653 0z" fill-rule="evenodd"/><path fill="#000000" d="m775.7083 257.87527l-10.75 0l5.15625 -10.109375l0.5 0l5.09375 10.109375zm-2.71875 -0.59375l-3.53125 -7.0l-3.5625 7.0l7.09375 0z" fill-rule="nonzero"/><path fill="#000000" d="m776.8012 260.79715l-0.140625 -1.203125q0.421875 0.109375 0.734375 0.109375q0.4375 0 0.6875 -0.140625q0.265625 -0.140625 0.421875 -0.40625q0.125 -0.1875 0.390625 -0.953125q0.046875 -0.109375 0.125 -0.3125l-2.890625 -7.609375l1.390625 0l1.578125 4.390625q0.3125 0.84375 0.546875 1.765625q0.234375 -0.890625 0.53125 -1.734375l1.625 -4.421875l1.296875 0l-2.890625 7.71875q-0.46875 1.25 -0.734375 1.734375q-0.34375 0.625 -0.78125 0.921875q-0.4375 0.296875 -1.0625 0.296875q-0.375 0 -0.828125 -0.15625z" fill-rule="nonzero"/><path fill="#000000" fill-opacity="0.0" d="m95.12096 253.43176l0 0c0 -6.827469 6.832062 -12.362213 15.259842 -12.362213l0 0c8.4277725 0 15.259842 5.5347443 15.259842 12.362213l0 0c0 6.8274536 -6.8320694 12.362213 -15.259842 12.362213l0 0c-8.42778 0 -15.259842 -5.5347595 -15.259842 -12.362213z" fill-rule="evenodd"/><path stroke="#595959" stroke-width="1.0" stroke-linejoin="round" stroke-linecap="butt" d="m95.12096 253.43176l0 0c0 -6.827469 6.832062 -12.362213 15.259842 -12.362213l0 0c8.4277725 0 15.259842 5.5347443 15.259842 12.362213l0 0c0 6.8274536 -6.8320694 12.362213 -15.259842 12.362213l0 0c-8.42778 0 -15.259842 -5.5347595 -15.259842 -12.362213z" fill-rule="evenodd"/><path fill="#000000" d="m105.327705 257.29175l-1.3125 0l0 -11.45311l1.40625 0l0 4.078125q0.890625 -1.109375 2.28125 -1.109375q0.765625 0 1.4375 0.3125q0.6875 0.296875 1.125 0.859375q0.453125 0.5625 0.703125 1.359375q0.25 0.78125 0.25 1.671875q0 2.140625 -1.0625 3.3124847q-1.046875 1.15625 -2.53125 1.15625q-1.46875 0 -2.296875 -1.234375l0 1.046875zm-0.015625 -4.2187347q0 1.5 0.40625 2.15625q0.65625 1.0937347 1.796875 1.0937347q0.921875 0 1.59375 -0.79685974q0.671875 -0.8125 0.671875 -2.390625q0 -1.625 -0.65625 -2.390625q-0.640625 -0.78125 -1.546875 -0.78125q-0.921875 0 -1.59375 0.796875q-0.671875 0.796875 -0.671875 2.3125z" fill-rule="nonzero"/><path fill="#000000" d="m115.83552 263.29175l-0.9375 0l0 -5.96875q-0.34375 0.328125 -0.890625 0.65625q-0.546875 0.3125 -0.984375 0.46875l0 -0.90625q0.796875 -0.359375 1.375 -0.890625q0.59375 -0.53125 0.828125 -1.0156097l0.609375 0l0 7.6562347z" fill-rule="nonzero"/><path fill="#000000" fill-opacity="0.0" d="m242.5912 253.43176l0 0c0 -6.827469 6.832077 -12.362213 15.259842 -12.362213l0 0c8.427795 0 15.259857 5.5347443 15.259857 12.362213l0 0c0 6.8274536 -6.832062 12.362213 -15.259857 12.362213l0 0c-8.427765 0 -15.259842 -5.5347595 -15.259842 -12.362213z" fill-rule="evenodd"/><path stroke="#595959" stroke-width="1.0" stroke-linejoin="round" stroke-linecap="butt" d="m242.5912 253.43176l0 0c0 -6.827469 6.832077 -12.362213 15.259842 -12.362213l0 0c8.427795 0 15.259857 5.5347443 15.259857 12.362213l0 0c0 6.8274536 -6.832062 12.362213 -15.259857 12.362213l0 0c-8.427765 0 -15.259842 -5.5347595 -15.259842 -12.362213z" fill-rule="evenodd"/><path fill="#000000" d="m249.42009 257.29175l-1.3125 0l0 -11.45311l1.40625 0l0 4.078125q0.890625 -1.109375 2.28125 -1.109375q0.765625 0 1.4375 0.3125q0.6875 0.296875 1.125 0.859375q0.453125 0.5625 0.703125 1.359375q0.25 0.78125 0.25 1.671875q0 2.140625 -1.0625 3.3124847q-1.046875 1.15625 -2.53125 1.15625q-1.46875 0 -2.296875 -1.234375l0 1.046875zm-0.015625 -4.2187347q0 1.5 0.40625 2.15625q0.65625 1.0937347 1.796875 1.0937347q0.921875 0 1.59375 -0.79685974q0.671875 -0.8125 0.671875 -2.390625q0 -1.625 -0.65625 -2.390625q-0.640625 -0.78125 -1.546875 -0.78125q-0.921875 0 -1.59375 0.796875q-0.671875 0.796875 -0.671875 2.3125z" fill-rule="nonzero"/><path fill="#000000" d="m261.3185 262.3855l0 0.90625l-5.03125 0q-0.015625 -0.34375 0.109375 -0.65625q0.1875 -0.515625 0.609375 -1.015625q0.421875 -0.5 1.234375 -1.140625q1.234375 -1.03125 1.671875 -1.625q0.4375 -0.59375 0.4375 -1.125q0 -0.5625 -0.40625 -0.9375q-0.390625 -0.390625 -1.03125 -0.390625q-0.671875 0 -1.078125 0.40625q-0.40625 0.40625 -0.40625 1.125l-0.96875 -0.09375q0.09375 -1.078125 0.734375 -1.640625q0.65625 -0.56248474 1.734375 -0.56248474q1.109375 0 1.75 0.60935974q0.640625 0.609375 0.640625 1.5q0 0.46875 -0.1875 0.90625q-0.1875 0.4375 -0.625 0.9375q-0.4375 0.484375 -1.453125 1.328125q-0.828125 0.71875 -1.078125 0.96875q-0.234375 0.25 -0.390625 0.5l3.734375 0z" fill-rule="nonzero"/><path fill="#000000" fill-opacity="0.0" d="m390.06146 253.43176l0 0c0 -6.827469 6.832062 -12.362213 15.259827 -12.362213l0 0c8.427795 0 15.259857 5.5347443 15.259857 12.362213l0 0c0 6.8274536 -6.832062 12.362213 -15.259857 12.362213l0 0c-8.427765 0 -15.259827 -5.5347595 -15.259827 -12.362213z" fill-rule="evenodd"/><path stroke="#595959" stroke-width="1.0" stroke-linejoin="round" stroke-linecap="butt" d="m390.06146 253.43176l0 0c0 -6.827469 6.832062 -12.362213 15.259827 -12.362213l0 0c8.427795 0 15.259857 5.5347443 15.259857 12.362213l0 0c0 6.8274536 -6.832062 12.362213 -15.259857 12.362213l0 0c-8.427765 0 -15.259827 -5.5347595 -15.259827 -12.362213z" fill-rule="evenodd"/><path fill="#000000" d="m400.26822 257.29175l-1.3125 0l0 -11.45311l1.40625 0l0 4.078125q0.890625 -1.109375 2.28125 -1.109375q0.765625 0 1.4375 0.3125q0.6875 0.296875 1.125 0.859375q0.453125 0.5625 0.703125 1.359375q0.25 0.78125 0.25 1.671875q0 2.140625 -1.0625 3.3124847q-1.046875 1.15625 -2.53125 1.15625q-1.46875 0 -2.296875 -1.234375l0 1.046875zm-0.015625 -4.2187347q0 1.5 0.40625 2.15625q0.65625 1.0937347 1.796875 1.0937347q0.921875 0 1.59375 -0.79685974q0.671875 -0.8125 0.671875 -2.390625q0 -1.625 -0.65625 -2.390625q-0.640625 -0.78125 -1.546875 -0.78125q-0.921875 0 -1.59375 0.796875q-0.671875 0.796875 -0.671875 2.3125z" fill-rule="nonzero"/><path fill="#000000" d="m407.2604 261.27612l0.9375 -0.125q0.15625 0.796875 0.546875 1.15625q0.390625 0.34375 0.9375 0.34375q0.65625 0 1.109375 -0.453125q0.46875 -0.46875 0.46875 -1.140625q0 -0.640625 -0.421875 -1.0625q-0.421875 -0.421875 -1.078125 -0.421875q-0.265625 0 -0.65625 0.109375l0.109375 -0.828125q0.09375 0.015625 0.140625 0.015625q0.59375 0 1.078125 -0.3125q0.484375 -0.3125 0.484375 -0.96875q0 -0.515625 -0.359375 -0.84375q-0.34375 -0.34375 -0.890625 -0.34375q-0.546875 0 -0.921875 0.34375q-0.359375 0.34375 -0.453125 1.03125l-0.9375 -0.171875q0.171875 -0.9375 0.78125 -1.453125q0.609375 -0.51560974 1.5 -0.51560974q0.625 0 1.15625 0.265625q0.53125 0.26560974 0.796875 0.73435974q0.28125 0.453125 0.28125 0.984375q0 0.484375 -0.265625 0.890625q-0.265625 0.40625 -0.78125 0.65625q0.671875 0.15625 1.046875 0.65625q0.375 0.484375 0.375 1.21875q0 1.0 -0.734375 1.703125q-0.71875 0.6875 -1.828125 0.6875q-1.0 0 -1.671875 -0.59375q-0.65625 -0.609375 -0.75 -1.5625z" fill-rule="nonzero"/><path fill="#000000" fill-opacity="0.0" d="m537.53174 253.43176l0 0c0 -6.827469 6.8320312 -12.362213 15.259827 -12.362213l0 0c8.427795 0 15.259827 5.5347443 15.259827 12.362213l0 0c0 6.8274536 -6.8320312 12.362213 -15.259827 12.362213l0 0c-8.427795 0 -15.259827 -5.5347595 -15.259827 -12.362213z" fill-rule="evenodd"/><path stroke="#595959" stroke-width="1.0" stroke-linejoin="round" stroke-linecap="butt" d="m537.53174 253.43176l0 0c0 -6.827469 6.8320312 -12.362213 15.259827 -12.362213l0 0c8.427795 0 15.259827 5.5347443 15.259827 12.362213l0 0c0 6.8274536 -6.8320312 12.362213 -15.259827 12.362213l0 0c-8.427795 0 -15.259827 -5.5347595 -15.259827 -12.362213z" fill-rule="evenodd"/><path fill="#000000" d="m547.73846 257.29175l-1.3125 0l0 -11.45311l1.40625 0l0 4.078125q0.890625 -1.109375 2.28125 -1.109375q0.765625 0 1.4375 0.3125q0.6875 0.296875 1.125 0.859375q0.453125 0.5625 0.703125 1.359375q0.25 0.78125 0.25 1.671875q0 2.140625 -1.0625 3.3124847q-1.046875 1.15625 -2.53125 1.15625q-1.46875 0 -2.296875 -1.234375l0 1.046875zm-0.015625 -4.2187347q0 1.5 0.40625 2.15625q0.65625 1.0937347 1.796875 1.0937347q0.921875 0 1.59375 -0.79685974q0.671875 -0.8125 0.671875 -2.390625q0 -1.625 -0.65625 -2.390625q-0.640625 -0.78125 -1.546875 -0.78125q-0.921875 0 -1.59375 0.796875q-0.671875 0.796875 -0.671875 2.3125z" fill-rule="nonzero"/><path fill="#000000" d="m557.715 263.29175l0 -1.828125l-3.296875 0l0 -0.859375l3.46875 -4.9374847l0.765625 0l0 4.9374847l1.03125 0l0 0.859375l-1.03125 0l0 1.828125l-0.9375 0zm0 -2.6875l0 -3.4375l-2.375 3.4375l2.375 0z" fill-rule="nonzero"/><path fill="#000000" fill-opacity="0.0" d="m685.00195 252.75722l0 0c0 -6.8274536 6.8320923 -12.362198 15.259888 -12.362198l0 0c8.427734 0 15.259827 5.5347443 15.259827 12.362198l0 0c0 6.827469 -6.8320923 12.362198 -15.259827 12.362198l0 0c-8.427795 0 -15.259888 -5.534729 -15.259888 -12.362198z" fill-rule="evenodd"/><path stroke="#595959" stroke-width="1.0" stroke-linejoin="round" stroke-linecap="butt" d="m685.00195 252.75722l0 0c0 -6.8274536 6.8320923 -12.362198 15.259888 -12.362198l0 0c8.427734 0 15.259827 5.5347443 15.259827 12.362198l0 0c0 6.827469 -6.8320923 12.362198 -15.259827 12.362198l0 0c-8.427795 0 -15.259888 -5.534729 -15.259888 -12.362198z" fill-rule="evenodd"/><path fill="#000000" d="m695.20874 256.61722l-1.3125 0l0 -11.453125l1.40625 0l0 4.078125q0.890625 -1.109375 2.28125 -1.109375q0.765625 0 1.4375 0.3125q0.6875 0.296875 1.125 0.859375q0.453125 0.5625 0.703125 1.359375q0.25 0.78125 0.25 1.671875q0 2.140625 -1.0625 3.3125q-1.046875 1.15625 -2.53125 1.15625q-1.46875 0 -2.296875 -1.234375l0 1.046875zm-0.015625 -4.21875q0 1.5 0.40625 2.15625q0.65625 1.09375 1.796875 1.09375q0.921875 0 1.59375 -0.796875q0.671875 -0.8125 0.671875 -2.390625q0 -1.625 -0.65625 -2.390625q-0.640625 -0.78125 -1.546875 -0.78125q-0.921875 0 -1.59375 0.796875q-0.671875 0.796875 -0.671875 2.3125z" fill-rule="nonzero"/><path fill="#000000" d="m702.1853 260.61722l0.984375 -0.078125q0.109375 0.71875 0.5 1.078125q0.40625 0.359375 0.96875 0.359375q0.671875 0 1.140625 -0.5q0.46875 -0.515625 0.46875 -1.359375q0 -0.796875 -0.453125 -1.265625q-0.4375 -0.46875 -1.171875 -0.46875q-0.453125 0 -0.8125 0.21875q-0.359375 0.203125 -0.578125 0.53125l-0.875 -0.125l0.734375 -3.921875l3.796875 0l0 0.90625l-3.046875 0l-0.40625 2.046875q0.6875 -0.484375 1.4375 -0.484375q1.0 0 1.6875 0.703125q0.6875 0.6875 0.6875 1.765625q0 1.046875 -0.609375 1.796875q-0.734375 0.921875 -2.0 0.921875q-1.03125 0 -1.703125 -0.578125q-0.65625 -0.578125 -0.75 -1.546875z" fill-rule="nonzero"/><path fill="#000000" fill-opacity="0.0" d="m95.120735 303.6719l30.519684 0l0 24.724426l-30.519684 0z" fill-rule="evenodd"/><path stroke="#595959" stroke-width="1.0" stroke-linejoin="round" stroke-linecap="butt" d="m95.120735 303.6719l30.519684 0l0 24.724426l-30.519684 0z" fill-rule="evenodd"/><path fill="#000000" d="m107.74828 320.47632l-10.75 0l5.15625 -10.109375l0.5 0l5.09375 10.109375zm-2.71875 -0.59375l-3.53125 -7.0l-3.5625 7.0l7.09375 0z" fill-rule="nonzero"/><path fill="#000000" d="m110.30991 320.47632l-2.328125 -7.59375l1.328125 0l1.203125 4.375l0.453125 1.640625q0.03125 -0.125 0.390625 -1.578125l1.21875 -4.4375l1.328125 0l1.125 4.40625l0.390625 1.453125l0.4375 -1.46875l1.296875 -4.390625l1.25 0l-2.375 7.59375l-1.34375 0l-1.203125 -4.546875l-0.296875 -1.296875l-1.53125 5.84375l-1.34375 0z" fill-rule="nonzero"/><path fill="#000000" d="m122.15981 325.97632l-0.859375 0l0 -5.46875q-0.3125 0.296875 -0.8125 0.59375q-0.5 0.296875 -0.90625 0.4375l0 -0.828125q0.71875 -0.34375 1.25 -0.8125q0.546875 -0.484375 0.765625 -0.9375l0.5625 0l0 7.015625z" fill-rule="nonzero"/><path fill="#000000" fill-opacity="0.0" d="m242.59108 303.6719l30.519669 0l0 24.724426l-30.519669 0z" fill-rule="evenodd"/><path stroke="#595959" stroke-width="1.0" stroke-linejoin="round" stroke-linecap="butt" d="m242.59108 303.6719l30.519669 0l0 24.724426l-30.519669 0z" fill-rule="evenodd"/><path fill="#000000" d="m253.52858 320.47632l-10.75 0l5.15625 -10.109375l0.5 0l5.09375 10.109375zm-2.71875 -0.59375l-3.53125 -7.0l-3.5625 7.0l7.09375 0z" fill-rule="nonzero"/><path fill="#000000" d="m256.0902 320.47632l-2.328125 -7.59375l1.328125 0l1.203125 4.375l0.453125 1.640625q0.03125 -0.125 0.390625 -1.578125l1.21875 -4.4375l1.328125 0l1.125 4.40625l0.390625 1.453125l0.4375 -1.46875l1.296875 -4.390625l1.25 0l-2.375 7.59375l-1.34375 0l-1.203125 -4.546875l-0.296875 -1.296875l-1.53125 5.84375l-1.34375 0z" fill-rule="nonzero"/><path fill="#000000" d="m269.22134 325.1482l0 0.828125l-4.625 0q-0.015625 -0.3125 0.09375 -0.59375q0.1875 -0.46875 0.5625 -0.921875q0.390625 -0.46875 1.125 -1.0625q1.140625 -0.9375 1.546875 -1.484375q0.40625 -0.546875 0.40625 -1.03125q0 -0.515625 -0.375 -0.859375q-0.359375 -0.359375 -0.953125 -0.359375q-0.609375 0 -0.984375 0.375q-0.375 0.375 -0.375 1.03125l-0.890625 -0.09375q0.09375 -0.984375 0.6875 -1.5q0.59375 -0.515625 1.59375 -0.515625q1.0 0 1.578125 0.5625q0.59375 0.546875 0.59375 1.375q0 0.421875 -0.171875 0.828125q-0.171875 0.40625 -0.578125 0.859375q-0.390625 0.4375 -1.3125 1.21875q-0.78125 0.65625 -1.0 0.890625q-0.21875 0.21875 -0.359375 0.453125l3.4375 0z" fill-rule="nonzero"/><path fill="#000000" fill-opacity="0.0" d="m390.06143 303.6719l30.519684 0l0 24.724426l-30.519684 0z" fill-rule="evenodd"/><path stroke="#595959" stroke-width="1.0" stroke-linejoin="round" stroke-linecap="butt" d="m390.06143 303.6719l30.519684 0l0 24.724426l-30.519684 0z" fill-rule="evenodd"/><path fill="#000000" d="m402.68896 320.47632l-10.75 0l5.15625 -10.109375l0.5 0l5.09375 10.109375zm-2.71875 -0.59375l-3.53125 -7.0l-3.5625 7.0l7.09375 0z" fill-rule="nonzero"/><path fill="#000000" d="m405.2506 320.47632l-2.328125 -7.59375l1.328125 0l1.203125 4.375l0.453125 1.640625q0.03125 -0.125 0.390625 -1.578125l1.21875 -4.4375l1.328125 0l1.125 4.40625l0.390625 1.453125l0.4375 -1.46875l1.296875 -4.390625l1.25 0l-2.375 7.59375l-1.34375 0l-1.203125 -4.546875l-0.296875 -1.296875l-1.53125 5.84375l-1.34375 0z" fill-rule="nonzero"/><path fill="#000000" d="m413.86612 324.13257l0.859375 -0.109375q0.15625 0.71875 0.5 1.046875q0.359375 0.3125 0.875 0.3125q0.609375 0 1.015625 -0.40625q0.421875 -0.421875 0.421875 -1.046875q0 -0.59375 -0.390625 -0.96875q-0.390625 -0.390625 -0.984375 -0.390625q-0.234375 0 -0.59375 0.09375l0.09375 -0.75q0.078125 0.015625 0.140625 0.015625q0.546875 0 0.984375 -0.28125q0.4375 -0.296875 0.4375 -0.890625q0 -0.46875 -0.328125 -0.78125q-0.3125 -0.3125 -0.8125 -0.3125q-0.515625 0 -0.84375 0.3125q-0.328125 0.3125 -0.421875 0.953125l-0.859375 -0.15625q0.15625 -0.859375 0.703125 -1.328125q0.5625 -0.484375 1.390625 -0.484375q0.578125 0 1.0625 0.25q0.484375 0.234375 0.734375 0.671875q0.25 0.421875 0.25 0.890625q0 0.453125 -0.25 0.828125q-0.234375 0.375 -0.703125 0.59375q0.609375 0.140625 0.953125 0.59375q0.34375 0.453125 0.34375 1.125q0 0.90625 -0.671875 1.546875q-0.65625 0.640625 -1.6875 0.640625q-0.90625 0 -1.515625 -0.546875q-0.609375 -0.546875 -0.703125 -1.421875z" fill-rule="nonzero"/><path fill="#000000" fill-opacity="0.0" d="m537.53174 303.6719l30.519714 0l0 24.724426l-30.519714 0z" fill-rule="evenodd"/><path stroke="#595959" stroke-width="1.0" stroke-linejoin="round" stroke-linecap="butt" d="m537.53174 303.6719l30.519714 0l0 24.724426l-30.519714 0z" fill-rule="evenodd"/><path fill="#000000" d="m550.1593 320.47632l-10.75 0l5.15625 -10.109375l0.5 0l5.09375 10.109375zm-2.71875 -0.59375l-3.53125 -7.0l-3.5625 7.0l7.09375 0z" fill-rule="nonzero"/><path fill="#000000" d="m552.72095 320.47632l-2.328125 -7.59375l1.328125 0l1.203125 4.375l0.453125 1.640625q0.03125 -0.125 0.390625 -1.578125l1.21875 -4.4375l1.328125 0l1.125 4.40625l0.390625 1.453125l0.4375 -1.46875l1.296875 -4.390625l1.25 0l-2.375 7.59375l-1.34375 0l-1.203125 -4.546875l-0.296875 -1.296875l-1.53125 5.84375l-1.34375 0z" fill-rule="nonzero"/><path fill="#000000" d="m564.0865 325.97632l0 -1.671875l-3.03125 0l0 -0.78125l3.1875 -4.53125l0.703125 0l0 4.53125l0.9375 0l0 0.78125l-0.9375 0l0 1.671875l-0.859375 0zm0 -2.453125l0 -3.15625l-2.1875 3.15625l2.1875 0z" fill-rule="nonzero"/><path fill="#000000" fill-opacity="0.0" d="m685.0021 303.6719l30.519714 0l0 24.724426l-30.519714 0z" fill-rule="evenodd"/><path stroke="#595959" stroke-width="1.0" stroke-linejoin="round" stroke-linecap="butt" d="m685.0021 303.6719l30.519714 0l0 24.724426l-30.519714 0z" fill-rule="evenodd"/><path fill="#000000" d="m697.62964 320.47632l-10.75 0l5.15625 -10.109375l0.5 0l5.09375 10.109375zm-2.71875 -0.59375l-3.53125 -7.0l-3.5625 7.0l7.09375 0z" fill-rule="nonzero"/><path fill="#000000" d="m700.1913 320.47632l-2.328125 -7.59375l1.328125 0l1.203125 4.375l0.453125 1.640625q0.03125 -0.125 0.390625 -1.578125l1.21875 -4.4375l1.328125 0l1.125 4.40625l0.390625 1.453125l0.4375 -1.46875l1.296875 -4.390625l1.25 0l-2.375 7.59375l-1.34375 0l-1.203125 -4.546875l-0.296875 -1.296875l-1.53125 5.84375l-1.34375 0z" fill-rule="nonzero"/><path fill="#000000" d="m708.8068 324.1482l0.90625 -0.078125q0.09375 0.65625 0.453125 0.984375q0.375 0.328125 0.890625 0.328125q0.609375 0 1.03125 -0.453125q0.4375 -0.46875 0.4375 -1.25q0 -0.734375 -0.421875 -1.15625q-0.40625 -0.421875 -1.0625 -0.421875q-0.421875 0 -0.765625 0.1875q-0.328125 0.1875 -0.515625 0.484375l-0.796875 -0.09375l0.671875 -3.59375l3.484375 0l0 0.8125l-2.796875 0l-0.375 1.875q0.625 -0.4375 1.3125 -0.4375q0.921875 0 1.546875 0.640625q0.640625 0.640625 0.640625 1.625q0 0.953125 -0.5625 1.640625q-0.671875 0.859375 -1.828125 0.859375q-0.953125 0 -1.5625 -0.53125q-0.609375 -0.546875 -0.6875 -1.421875z" fill-rule="nonzero"/><path fill="#000000" fill-opacity="0.0" d="m52.727253 252.77034l42.393703 0.6614227" fill-rule="evenodd"/><path stroke="#595959" stroke-width="1.0" stroke-linejoin="round" stroke-linecap="butt" d="m56.153923 252.82379l38.967026 0.6079712" fill-rule="evenodd"/><path fill="#595959" stroke="#595959" stroke-width="1.0" stroke-linecap="butt" d="m56.153923 252.8238l1.1419907 -1.1069031l-3.1069336 1.0762482l3.071846 1.1726379z" fill-rule="evenodd"/><path fill="#000000" fill-opacity="0.0" d="m125.64064 253.43176l43.2126 -0.6614227" fill-rule="evenodd"/><path stroke="#595959" stroke-width="1.0" stroke-linejoin="round" stroke-linecap="butt" d="m129.06732 253.3793l39.78592 -0.608963" fill-rule="evenodd"/><path fill="#595959" stroke="#595959" stroke-width="1.0" stroke-linecap="butt" d="m129.06732 253.3793l1.1072388 -1.1416626l-3.072197 1.1717377l3.1066208 1.077179z" fill-rule="evenodd"/><path fill="#000000" fill-opacity="0.0" d="m199.37576 252.75853l43.2126 0.6614227" fill-rule="evenodd"/><path stroke="#595959" stroke-width="1.0" stroke-linejoin="round" stroke-linecap="butt" d="m202.80246 252.81099l39.785904 0.608963" fill-rule="evenodd"/><path fill="#595959" stroke="#595959" stroke-width="1.0" stroke-linecap="butt" d="m202.80244 252.81097l1.1416626 -1.1072388l-3.1066132 1.0771637l3.0721893 1.1717377z" fill-rule="evenodd"/><path fill="#000000" fill-opacity="0.0" d="m273.1109 253.43176l43.212585 -0.6614227" fill-rule="evenodd"/><path stroke="#595959" stroke-width="1.0" stroke-linejoin="round" stroke-linecap="butt" d="m276.5376 253.3793l39.78589 -0.608963" fill-rule="evenodd"/><path fill="#595959" stroke="#595959" stroke-width="1.0" stroke-linecap="butt" d="m276.53757 253.3793l1.1072388 -1.1416626l-3.072174 1.1717377l3.106598 1.077179z" fill-rule="evenodd"/><path fill="#000000" fill-opacity="0.0" d="m346.846 252.75853l43.212616 0.6614227" fill-rule="evenodd"/><path stroke="#595959" stroke-width="1.0" stroke-linejoin="round" stroke-linecap="butt" d="m350.27267 252.81099l39.78592 0.608963" fill-rule="evenodd"/><path fill="#595959" stroke="#595959" stroke-width="1.0" stroke-linecap="butt" d="m350.2727 252.81097l1.1416626 -1.1072388l-3.1066284 1.0771637l3.0722046 1.1717377z" fill-rule="evenodd"/><path fill="#000000" fill-opacity="0.0" d="m420.58115 253.43176l43.212585 -0.6614227" fill-rule="evenodd"/><path stroke="#595959" stroke-width="1.0" stroke-linejoin="round" stroke-linecap="butt" d="m424.00784 253.3793l39.78592 -0.608963" fill-rule="evenodd"/><path fill="#595959" stroke="#595959" stroke-width="1.0" stroke-linecap="butt" d="m424.00784 253.3793l1.1072388 -1.1416626l-3.0722046 1.1717377l3.1066284 1.077179z" fill-rule="evenodd"/><path fill="#000000" fill-opacity="0.0" d="m494.31628 252.75853l43.212585 0.6614227" fill-rule="evenodd"/><path stroke="#595959" stroke-width="1.0" stroke-linejoin="round" stroke-linecap="butt" d="m497.74295 252.81099l39.78592 0.608963" fill-rule="evenodd"/><path fill="#595959" stroke="#595959" stroke-width="1.0" stroke-linecap="butt" d="m497.74295 252.81097l1.1416626 -1.1072388l-3.106598 1.0771637l3.072174 1.1717377z" fill-rule="evenodd"/><path fill="#000000" fill-opacity="0.0" d="m641.7865 252.75853l43.212646 0" fill-rule="evenodd"/><path stroke="#595959" stroke-width="1.0" stroke-linejoin="round" stroke-linecap="butt" d="m645.2136 252.75853l39.785522 0" fill-rule="evenodd"/><path fill="#595959" stroke="#595959" stroke-width="1.0" stroke-linecap="butt" d="m645.2136 252.75853l1.1245728 -1.124588l-3.0897827 1.124588l3.0897827 1.124588z" fill-rule="evenodd"/><path fill="#000000" fill-opacity="0.0" d="m568.0514 253.43176l43.212585 -0.6614227" fill-rule="evenodd"/><path stroke="#595959" stroke-width="1.0" stroke-linejoin="round" stroke-linecap="butt" d="m571.4781 253.3793l39.78589 -0.608963" fill-rule="evenodd"/><path fill="#595959" stroke="#595959" stroke-width="1.0" stroke-linecap="butt" d="m571.4781 253.3793l1.1072388 -1.1416626l-3.0722046 1.1717377l3.1066284 1.077179z" fill-rule="evenodd"/><path fill="#000000" fill-opacity="0.0" d="m715.52167 252.75722l43.212585 0.6614227" fill-rule="evenodd"/><path stroke="#595959" stroke-width="1.0" stroke-linejoin="round" stroke-linecap="butt" d="m718.9483 252.80968l39.78595 0.608963" fill-rule="evenodd"/><path fill="#595959" stroke="#595959" stroke-width="1.0" stroke-linecap="butt" d="m718.94836 252.80966l1.1416626 -1.1072388l-3.1066284 1.0771637l3.0722046 1.1717377z" fill-rule="evenodd"/><path fill="#000000" fill-opacity="0.0" d="m110.38058 303.6719l0 -37.88974" fill-rule="evenodd"/><path stroke="#595959" stroke-width="1.0" stroke-linejoin="round" stroke-linecap="butt" d="m110.38058 300.24484l0 -34.462677" fill-rule="evenodd"/><path fill="#595959" stroke="#595959" stroke-width="1.0" stroke-linecap="butt" d="m110.38058 300.24484l-1.1245804 -1.1246033l1.1245804 3.0897827l1.1245804 -3.0897827z" fill-rule="evenodd"/><path fill="#000000" fill-opacity="0.0" d="m405.32126 303.6719l0 -37.88974" fill-rule="evenodd"/><path stroke="#595959" stroke-width="1.0" stroke-linejoin="round" stroke-linecap="butt" d="m405.3213 300.24484l0 -34.462677" fill-rule="evenodd"/><path fill="#595959" stroke="#595959" stroke-width="1.0" stroke-linecap="butt" d="m405.3213 300.24484l-1.1246033 -1.1246033l1.1246033 3.0897827l1.1245728 -3.0897827z" fill-rule="evenodd"/><path fill="#000000" fill-opacity="0.0" d="m552.7916 303.6719l0 -37.88974" fill-rule="evenodd"/><path stroke="#595959" stroke-width="1.0" stroke-linejoin="round" stroke-linecap="butt" d="m552.79156 300.24484l0 -34.462677" fill-rule="evenodd"/><path fill="#595959" stroke="#595959" stroke-width="1.0" stroke-linecap="butt" d="m552.79156 300.24484l-1.1245728 -1.1246033l1.1245728 3.0897827l1.1245728 -3.0897827z" fill-rule="evenodd"/><path fill="#000000" fill-opacity="0.0" d="m700.26196 303.6719l0 -38.551178" fill-rule="evenodd"/><path stroke="#595959" stroke-width="1.0" stroke-linejoin="round" stroke-linecap="butt" d="m700.26196 300.24484l0 -35.124115" fill-rule="evenodd"/><path fill="#595959" stroke="#595959" stroke-width="1.0" stroke-linecap="butt" d="m700.26196 300.24484l-1.1245728 -1.1246033l1.1245728 3.0897827l1.1245728 -3.0897827z" fill-rule="evenodd"/><path fill="#000000" fill-opacity="0.0" d="m832.4722 252.75722l0 0c0 -6.8274536 6.8320312 -12.362198 15.259827 -12.362198l0 0c8.427795 0 15.259827 5.5347443 15.259827 12.362198l0 0c0 6.827469 -6.8320312 12.362198 -15.259827 12.362198l0 0c-8.427795 0 -15.259827 -5.534729 -15.259827 -12.362198z" fill-rule="evenodd"/><path stroke="#595959" stroke-width="1.0" stroke-linejoin="round" stroke-linecap="butt" d="m832.4722 252.75722l0 0c0 -6.8274536 6.8320312 -12.362198 15.259827 -12.362198l0 0c8.427795 0 15.259827 5.5347443 15.259827 12.362198l0 0c0 6.827469 -6.8320312 12.362198 -15.259827 12.362198l0 0c-8.427795 0 -15.259827 -5.534729 -15.259827 -12.362198z" fill-rule="evenodd"/><path fill="#000000" d="m842.67896 256.61722l-1.3125 0l0 -11.453125l1.40625 0l0 4.078125q0.890625 -1.109375 2.28125 -1.109375q0.765625 0 1.4375 0.3125q0.6875 0.296875 1.125 0.859375q0.453125 0.5625 0.703125 1.359375q0.25 0.78125 0.25 1.671875q0 2.140625 -1.0625 3.3125q-1.046875 1.15625 -2.53125 1.15625q-1.46875 0 -2.296875 -1.234375l0 1.046875zm-0.015625 -4.21875q0 1.5 0.40625 2.15625q0.65625 1.09375 1.796875 1.09375q0.921875 0 1.59375 -0.796875q0.671875 -0.8125 0.671875 -2.390625q0 -1.625 -0.65625 -2.390625q-0.640625 -0.78125 -1.546875 -0.78125q-0.921875 0 -1.59375 0.796875q-0.671875 0.796875 -0.671875 2.3125z" fill-rule="nonzero"/><path fill="#000000" d="m849.99927 262.61722l0 -7.625l1.015625 0l0 6.71875l3.75 0l0 0.90625l-4.765625 0z" fill-rule="nonzero"/><path fill="#000000" fill-opacity="0.0" d="m906.20734 240.39633l30.519714 0l0 24.724396l-30.519714 0z" fill-rule="evenodd"/><path stroke="#595959" stroke-width="1.0" stroke-linejoin="round" stroke-linecap="butt" d="m906.20734 240.39633l30.519714 0l0 24.724396l-30.519714 0z" fill-rule="evenodd"/><path fill="#000000" d="m922.7671 257.20074l-10.75 0l5.15625 -10.10939l0.5 0l5.09375 10.10939zm-2.71875 -0.59375l-3.53125 -7.0000153l-3.5625 7.0000153l7.09375 0z" fill-rule="nonzero"/><path fill="#000000" d="m924.0318 257.20074l0 -10.48439l1.390625 0l0 9.25l5.15625 0l0 1.2343903l-6.546875 0z" fill-rule="nonzero"/><path fill="#000000" fill-opacity="0.0" d="m789.2568 253.43307l43.212585 -0.6614227" fill-rule="evenodd"/><path stroke="#595959" stroke-width="1.0" stroke-linejoin="round" stroke-linecap="butt" d="m792.6835 253.38062l39.78595 -0.608963" fill-rule="evenodd"/><path fill="#595959" stroke="#595959" stroke-width="1.0" stroke-linecap="butt" d="m792.6835 253.38062l1.1072388 -1.1416626l-3.0721436 1.1717377l3.1065674 1.077179z" fill-rule="evenodd"/><path fill="#000000" fill-opacity="0.0" d="m862.9919 252.75722l43.212646 0" fill-rule="evenodd"/><path stroke="#595959" stroke-width="1.0" stroke-linejoin="round" stroke-linecap="butt" d="m866.41895 252.75722l39.785522 0" fill-rule="evenodd"/><path fill="#595959" stroke="#595959" stroke-width="1.0" stroke-linecap="butt" d="m866.41895 252.75722l1.1246338 -1.124588l-3.0897827 1.124588l3.0897827 1.124588z" fill-rule="evenodd"/><path fill="#000000" fill-opacity="0.0" d="m257.85092 303.6719l0 -37.88974" fill-rule="evenodd"/><path stroke="#595959" stroke-width="1.0" stroke-linejoin="round" stroke-linecap="butt" d="m257.85092 300.24484l0 -34.462677" fill-rule="evenodd"/><path fill="#595959" stroke="#595959" stroke-width="1.0" stroke-linecap="butt" d="m257.85092 300.24484l-1.1245728 -1.1246033l1.1245728 3.0897827l1.1246033 -3.0897827z" fill-rule="evenodd"/><path fill="#000000" fill-opacity="0.0" d="m392.4085 260.4561c-33.748016 45.046265 -64.514435 99.76141 -64.514435 156.04724" fill-rule="evenodd"/><path stroke="#595959" stroke-width="1.0" stroke-linejoin="round" stroke-linecap="butt" stroke-dasharray="4.0,3.0" d="m390.3629 263.20572l-1.1087036 1.5015259c-1.0479736 1.4263306 -2.0921326 2.861847 -3.1317444 4.3063354c-2.0791626 2.8889465 -4.1398926 5.81369 -6.1754456 8.772278c-4.071045 5.9171143 -8.04126 11.969482 -11.856354 18.141296c-7.6301575 12.343658 -14.639832 25.16507 -20.59488 38.337708c-11.910126 26.345306 -19.601715 54.09555 -19.601715 82.238464" fill-rule="evenodd"/><path fill="#595959" stroke="#595959" stroke-width="1.0" stroke-linecap="butt" d="m390.3629 263.20572l0.23101807 1.5735168l0.9419861 -3.150238l-2.7465515 1.8077393z" fill-rule="evenodd"/><path fill="#000000" fill-opacity="0.0" d="m395.98944 262.01276c-17.257416 43.17166 -36.0896 89.625946 -31.451416 135.88715c3.2752075 32.667145 13.183746 64.688324 25.404175 95.160095" fill-rule="evenodd"/><path stroke="#595959" stroke-width="1.0" stroke-linejoin="round" stroke-linecap="butt" stroke-dasharray="4.0,3.0" d="m394.7183 265.19537l-1.9769592 4.9496765c-1.0847473 2.723053 -2.1695557 5.4580383 -3.248291 8.204163c-2.1575012 5.4922485 -4.2906494 11.028992 -6.350586 16.603485c-4.119873 11.148926 -7.9468384 22.4487 -11.089539 33.845062c-6.285492 22.792664 -9.834015 45.971527 -7.5148926 69.10214c3.2752075 32.667145 13.183716 64.688324 25.404205 95.160095" fill-rule="evenodd"/><path fill="#595959" stroke="#595959" stroke-width="1.0" stroke-linecap="butt" d="m394.7183 265.19537l0.6272278 1.4614868l0.10168457 -3.286499l-2.1903992 2.45224z" fill-rule="evenodd"/><path fill="#000000" fill-opacity="0.0" d="m244.57559 260.4561c-33.74803 45.046265 -64.51445 99.76141 -64.51445 156.04724" fill-rule="evenodd"/><path stroke="#595959" stroke-width="1.0" stroke-linejoin="round" stroke-linecap="butt" stroke-dasharray="4.0,3.0" d="m242.53 263.20572l-1.1087189 1.5015259c-1.0479431 1.4263306 -2.0921326 2.861847 -3.1317291 4.3063354c-2.0791626 2.8889465 -4.139908 5.81369 -6.1754456 8.772278c-4.07106 5.9171143 -8.041275 11.969482 -11.856354 18.141296c-7.6301727 12.343658 -14.639847 25.16507 -20.594894 38.337708c-11.91011 26.345306 -19.601715 54.09555 -19.601715 82.238464" fill-rule="evenodd"/><path fill="#595959" stroke="#595959" stroke-width="1.0" stroke-linecap="butt" d="m242.52998 263.20572l0.23103333 1.5735168l0.9419708 -3.150238l-2.7465363 1.8077393z" fill-rule="evenodd"/><path fill="#000000" fill-opacity="0.0" d="m96.742676 260.4561c-33.74802 45.046265 -64.514435 99.76141 -64.514435 156.04724" fill-rule="evenodd"/><path stroke="#595959" stroke-width="1.0" stroke-linejoin="round" stroke-linecap="butt" stroke-dasharray="4.0,3.0" d="m94.697075 263.20572l-1.108696 1.5015259c-1.0479507 1.4263306 -2.0921555 2.861847 -3.1317368 4.3063354c-2.0791702 2.8889465 -4.1399155 5.81369 -6.1754456 8.772278c-4.07106 5.9171143 -8.041267 11.969482 -11.856354 18.141296c-7.630165 12.343658 -14.639839 25.16507 -20.594894 38.337708c-11.910107 26.345306 -19.601711 54.09555 -19.601711 82.238464" fill-rule="evenodd"/><path fill="#595959" stroke="#595959" stroke-width="1.0" stroke-linecap="butt" d="m94.697075 263.20572l0.23103333 1.5735168l0.9419708 -3.150238l-2.7465363 1.8077393z" fill-rule="evenodd"/><path fill="#000000" fill-opacity="0.0" d="m540.2414 260.4561c-33.748016 45.046265 -64.514435 99.76141 -64.514435 156.04724" fill-rule="evenodd"/><path stroke="#595959" stroke-width="1.0" stroke-linejoin="round" stroke-linecap="butt" stroke-dasharray="4.0,3.0" d="m538.1958 263.20572l-1.1087036 1.5015259c-1.0479736 1.4263306 -2.092163 2.861847 -3.1317139 4.3063354c-2.0792236 2.8889465 -4.1399536 5.81369 -6.175476 8.772278c-4.071045 5.9171143 -8.04126 11.969482 -11.856323 18.141296c-7.630188 12.343658 -14.639862 25.16507 -20.59494 38.337708c-11.910095 26.345306 -19.601685 54.09555 -19.601685 82.238464" fill-rule="evenodd"/><path fill="#595959" stroke="#595959" stroke-width="1.0" stroke-linecap="butt" d="m538.1958 263.20572l0.23101807 1.5735168l0.94195557 -3.150238l-2.746521 1.8077393z" fill-rule="evenodd"/><path fill="#000000" fill-opacity="0.0" d="m688.07434 260.4561c-33.748047 45.046265 -64.514465 99.76141 -64.514465 156.04724" fill-rule="evenodd"/><path stroke="#595959" stroke-width="1.0" stroke-linejoin="round" stroke-linecap="butt" stroke-dasharray="4.0,3.0" d="m686.0287 263.20572l-1.1086426 1.5015259c-1.0479736 1.4263306 -2.092163 2.861847 -3.1317139 4.3063354c-2.0792236 2.8889465 -4.1399536 5.81369 -6.175476 8.772278c-4.071045 5.9171143 -8.041321 11.969482 -11.856384 18.141296c-7.630127 12.343658 -14.639832 25.16507 -20.59491 38.337708c-11.910095 26.345306 -19.601685 54.09555 -19.601685 82.238464" fill-rule="evenodd"/><path fill="#595959" stroke="#595959" stroke-width="1.0" stroke-linecap="butt" d="m686.02875 263.20572l0.23101807 1.5735168l0.94195557 -3.150238l-2.746521 1.8077393z" fill-rule="evenodd"/><path fill="#000000" fill-opacity="0.0" d="m835.9072 260.4561c-33.747986 45.046265 -64.514404 99.76141 -64.514404 156.04724" fill-rule="evenodd"/><path stroke="#595959" stroke-width="1.0" stroke-linejoin="round" stroke-linecap="butt" stroke-dasharray="4.0,3.0" d="m833.86163 263.20572l-1.1087036 1.5015259c-1.0479736 1.4263306 -2.092163 2.861847 -3.1317139 4.3063354c-2.0792236 2.8889465 -4.1398926 5.81369 -6.175415 8.772278c-4.071106 5.9171143 -8.04126 11.969482 -11.856384 18.141296c-7.630188 12.343658 -14.639832 25.16507 -20.59491 38.337708c-11.910095 26.345306 -19.601685 54.09555 -19.601685 82.238464" fill-rule="evenodd"/><path fill="#595959" stroke="#595959" stroke-width="1.0" stroke-linecap="butt" d="m833.86163 263.20572l0.23101807 1.5735168l0.9420166 -3.150238l-2.746582 1.8077393z" fill-rule="evenodd"/><path fill="#000000" fill-opacity="0.0" d="m248.40971 262.01276c-17.257431 43.17166 -36.089615 89.625946 -31.451447 135.88715c3.2752228 32.667145 13.183746 64.688324 25.40419 95.160095" fill-rule="evenodd"/><path stroke="#595959" stroke-width="1.0" stroke-linejoin="round" stroke-linecap="butt" stroke-dasharray="4.0,3.0" d="m247.13855 265.19537l-1.976944 4.9496765c-1.0847778 2.723053 -2.1696014 5.4580383 -3.2483215 8.204163c-2.157486 5.4922485 -4.2906494 11.028992 -6.350586 16.603485c-4.119873 11.148926 -7.9468384 22.4487 -11.089554 33.845062c-6.2854614 22.792664 -9.833954 45.971527 -7.5148773 69.10214c3.2752228 32.667145 13.183746 64.688324 25.404205 95.160095" fill-rule="evenodd"/><path fill="#595959" stroke="#595959" stroke-width="1.0" stroke-linecap="butt" d="m247.13855 265.19537l0.62724304 1.4614868l0.10168457 -3.286499l-2.1904144 2.45224z" fill-rule="evenodd"/><path fill="#000000" fill-opacity="0.0" d="m100.82996 262.01276c-17.257431 43.17166 -36.089615 89.625946 -31.451447 135.88715c3.2752228 32.667145 13.183746 64.688324 25.404198 95.160095" fill-rule="evenodd"/><path stroke="#595959" stroke-width="1.0" stroke-linejoin="round" stroke-linecap="butt" stroke-dasharray="4.0,3.0" d="m99.5588 265.19537l-1.976944 4.9496765c-1.0847778 2.723053 -2.1696014 5.4580383 -3.2483292 8.204163c-2.1574783 5.4922485 -4.290642 11.028992 -6.3505783 16.603485c-4.1198654 11.148926 -7.9468307 22.4487 -11.089561 33.845062c-6.285454 22.792664 -9.833954 45.971527 -7.5148697 69.10214c3.2752228 32.667145 13.183746 64.688324 25.404198 95.160095" fill-rule="evenodd"/><path fill="#595959" stroke="#595959" stroke-width="1.0" stroke-linecap="butt" d="m99.5588 265.19537l0.6272354 1.4614868l0.10168457 -3.286499l-2.1904144 2.45224z" fill-rule="evenodd"/><path fill="#000000" fill-opacity="0.0" d="m543.5692 262.01276c-17.257446 43.17166 -36.08963 89.625946 -31.451477 135.88715c3.2752686 32.667145 13.183777 64.688324 25.404236 95.160095" fill-rule="evenodd"/><path stroke="#595959" stroke-width="1.0" stroke-linejoin="round" stroke-linecap="butt" stroke-dasharray="4.0,3.0" d="m542.29803 265.19537l-1.9769897 4.9496765c-1.0847168 2.723053 -2.1695557 5.4580383 -3.248291 8.204163c-2.1574707 5.4922485 -4.2906494 11.028992 -6.350586 16.603485c-4.119873 11.148926 -7.9468384 22.4487 -11.089539 33.845062c-6.2854614 22.792664 -9.833984 45.971527 -7.5148926 69.10214c3.2752075 32.667145 13.183777 64.688324 25.404175 95.160095" fill-rule="evenodd"/><path fill="#595959" stroke="#595959" stroke-width="1.0" stroke-linecap="butt" d="m542.29803 265.19537l0.62719727 1.4614868l0.10168457 -3.286499l-2.1903687 2.45224z" fill-rule="evenodd"/><path fill="#000000" fill-opacity="0.0" d="m691.1489 262.01276c-17.257385 43.17166 -36.0896 89.625946 -31.451416 135.88715c3.2752075 32.667145 13.183716 64.688324 25.404175 95.160095" fill-rule="evenodd"/><path stroke="#595959" stroke-width="1.0" stroke-linejoin="round" stroke-linecap="butt" stroke-dasharray="4.0,3.0" d="m689.8778 265.19537l-1.9769897 4.9496765c-1.0847778 2.723053 -2.1695557 5.4580383 -3.248291 8.204163c-2.1574707 5.4922485 -4.2906494 11.028992 -6.350586 16.603485c-4.119873 11.148926 -7.9468384 22.4487 -11.089539 33.845062c-6.2854614 22.792664 -9.833984 45.971527 -7.5148926 69.10214c3.2752075 32.667145 13.183716 64.688324 25.404175 95.160095" fill-rule="evenodd"/><path fill="#595959" stroke="#595959" stroke-width="1.0" stroke-linecap="butt" d="m689.8778 265.19537l0.62719727 1.4614868l0.10168457 -3.286499l-2.1903687 2.45224z" fill-rule="evenodd"/><path fill="#000000" fill-opacity="0.0" d="m838.7287 262.01276c-17.257446 43.17166 -36.0896 89.625946 -31.451477 135.88715c3.2752686 32.667145 13.183777 64.688324 25.404236 95.160095" fill-rule="evenodd"/><path stroke="#595959" stroke-width="1.0" stroke-linejoin="round" stroke-linecap="butt" stroke-dasharray="4.0,3.0" d="m837.4575 265.19537l-1.9769287 4.9496765c-1.0847778 2.723053 -2.1695557 5.4580383 -3.248291 8.204163c-2.1574707 5.4922485 -4.2907104 11.028992 -6.350586 16.603485c-4.119873 11.148926 -7.9468384 22.4487 -11.089539 33.845062c-6.2854614 22.792664 -9.833984 45.971527 -7.5149536 69.10214c3.2752686 32.667145 13.183716 64.688324 25.404236 95.160095" fill-rule="evenodd"/><path fill="#595959" stroke="#595959" stroke-width="1.0" stroke-linecap="butt" d="m837.4575 265.19537l0.6272583 1.4614868l0.10168457 -3.286499l-2.1904297 2.45224z" fill-rule="evenodd"/></g></svg>
