<svg version="1.1" viewBox="200.0 120.0 360.0 340.0" fill="none" stroke="none" stroke-linecap="square" stroke-miterlimit="10" xmlns:xlink="http://www.w3.org/1999/xlink" xmlns="http://www.w3.org/2000/svg"><clipPath id="g3114d583a20_0_111.0"><path d="m0 0l960.0 0l0 540.0l-960.0 0l0 -540.0z" clip-rule="nonzero"/></clipPath><g clip-path="url(#g3114d583a20_0_111.0)"><path fill="#ffffff" d="m0 0l960.0 0l0 540.0l-960.0 0z" fill-rule="evenodd"/><path fill="#000000" fill-opacity="0.0" d="m316.32632 320.39633l30.519684 0l0 24.724396l-30.519684 0z" fill-rule="evenodd"/><path stroke="#595959" stroke-width="1.0" stroke-linejoin="round" stroke-linecap="butt" d="m316.32632 320.39633l30.519684 0l0 24.724396l-30.519684 0z" fill-rule="evenodd"/><path fill="#000000" d="m330.71692 336.26324q-0.71875 0.609375 -1.375 0.859375q-0.65625 0.25 -1.421875 0.25q-1.25 0 -1.921875 -0.609375q-0.671875 -0.609375 -0.671875 -1.5625q0 -0.5625 0.25 -1.015625q0.25 -0.46875 0.65625 -0.75q0.421875 -0.28125 0.9375 -0.421875q0.375 -0.09375 1.140625 -0.1875q1.5625 -0.1875 2.296875 -0.453125q0.015625 -0.265625 0.015625 -0.328125q0 -0.796875 -0.375 -1.109375q-0.484375 -0.4375 -1.453125 -0.4375q-0.921875 0 -1.359375 0.328125q-0.421875 0.3125 -0.625 1.109375l-1.265625 -0.171875q0.171875 -0.796875 0.5625 -1.296875q0.390625 -0.5 1.140625 -0.765625q0.75 -0.265625 1.71875 -0.265625q0.984375 0 1.59375 0.234375q0.609375 0.21875 0.890625 0.5625q0.28125 0.34375 0.40625 0.875q0.0625 0.328125 0.0625 1.1875l0 1.71875q0 1.796875 0.078125 2.28125q0.078125 0.46875 0.328125 0.90625l-1.34375 0q-0.203125 -0.40625 -0.265625 -0.9375zm-0.109375 -2.875q-0.703125 0.28125 -2.09375 0.484375q-0.796875 0.109375 -1.125 0.265625q-0.328125 0.140625 -0.515625 0.421875q-0.171875 0.265625 -0.171875 0.59375q0 0.515625 0.390625 0.859375q0.390625 0.34375 1.140625 0.34375q0.734375 0 1.3125 -0.3125q0.59375 -0.328125 0.859375 -0.890625q0.203125 -0.4375 0.203125 -1.296875l0 -0.46875z" fill-rule="nonzero"/><path fill="#000000" d="m333.3524 340.857l0.859375 -0.109375q0.15625 0.71875 0.5 1.046875q0.359375 0.3125 0.875 0.3125q0.609375 0 1.015625 -0.40625q0.421875 -0.421875 0.421875 -1.046875q0 -0.59375 -0.390625 -0.96875q-0.390625 -0.390625 -0.984375 -0.390625q-0.234375 0 -0.59375 0.09375l0.09375 -0.75q0.078125 0.015625 0.140625 0.015625q0.546875 0 0.984375 -0.28125q0.4375 -0.296875 0.4375 -0.890625q0 -0.46875 -0.328125 -0.78125q-0.3125 -0.3125 -0.8125 -0.3125q-0.515625 0 -0.84375 0.3125q-0.328125 0.3125 -0.421875 0.953125l-0.859375 -0.15625q0.15625 -0.859375 0.703125 -1.328125q0.5625 -0.484375 1.390625 -0.484375q0.578125 0 1.0625 0.25q0.484375 0.234375 0.734375 0.671875q0.25 0.421875 0.25 0.890625q0 0.453125 -0.25 0.828125q-0.234375 0.375 -0.703125 0.59375q0.609375 0.140625 0.953125 0.59375q0.34375 0.453125 0.34375 1.125q0 0.90625 -0.671875 1.546875q-0.65625 0.640625 -1.6875 0.640625q-0.90625 0 -1.515625 -0.546875q-0.609375 -0.546875 -0.703125 -1.421875z" fill-rule="nonzero"/><path fill="#000000" fill-opacity="0.0" d="m463.7966 320.39633l30.519684 0l0 24.724396l-30.519684 0z" fill-rule="evenodd"/><path stroke="#595959" stroke-width="1.0" stroke-linejoin="round" stroke-linecap="butt" d="m463.7966 320.39633l30.519684 0l0 24.724396l-30.519684 0z" fill-rule="evenodd"/><path fill="#000000" d="m478.18716 336.26324q-0.71875 0.609375 -1.375 0.859375q-0.65625 0.25 -1.421875 0.25q-1.25 0 -1.921875 -0.609375q-0.671875 -0.609375 -0.671875 -1.5625q0 -0.5625 0.25 -1.015625q0.25 -0.46875 0.65625 -0.75q0.421875 -0.28125 0.9375 -0.421875q0.375 -0.09375 1.140625 -0.1875q1.5625 -0.1875 2.296875 -0.453125q0.015625 -0.265625 0.015625 -0.328125q0 -0.796875 -0.375 -1.109375q-0.484375 -0.4375 -1.453125 -0.4375q-0.921875 0 -1.359375 0.328125q-0.421875 0.3125 -0.625 1.109375l-1.265625 -0.171875q0.171875 -0.796875 0.5625 -1.296875q0.390625 -0.5 1.140625 -0.765625q0.75 -0.265625 1.71875 -0.265625q0.984375 0 1.59375 0.234375q0.609375 0.21875 0.890625 0.5625q0.28125 0.34375 0.40625 0.875q0.0625 0.328125 0.0625 1.1875l0 1.71875q0 1.796875 0.078125 2.28125q0.078125 0.46875 0.328125 0.90625l-1.34375 0q-0.203125 -0.40625 -0.265625 -0.9375zm-0.109375 -2.875q-0.703125 0.28125 -2.09375 0.484375q-0.796875 0.109375 -1.125 0.265625q-0.328125 0.140625 -0.515625 0.421875q-0.171875 0.265625 -0.171875 0.59375q0 0.515625 0.390625 0.859375q0.390625 0.34375 1.140625 0.34375q0.734375 0 1.3125 -0.3125q0.59375 -0.328125 0.859375 -0.890625q0.203125 -0.4375 0.203125 -1.296875l0 -0.46875z" fill-rule="nonzero"/><path fill="#000000" d="m483.57263 342.70074l0 -1.671875l-3.03125 0l0 -0.78125l3.1875 -4.53125l0.703125 0l0 4.53125l0.9375 0l0 0.78125l-0.9375 0l0 1.671875l-0.859375 0zm0 -2.453125l0 -3.15625l-2.1875 3.15625l2.1875 0z" fill-rule="nonzero"/><path fill="#000000" fill-opacity="0.0" d="m390.06146 333.43176l0 0c0 -6.8274536 6.832062 -12.362213 15.259827 -12.362213l0 0c8.427795 0 15.259857 5.5347595 15.259857 12.362213l0 0c0 6.8274536 -6.832062 12.362213 -15.259857 12.362213l0 0c-8.427765 0 -15.259827 -5.5347595 -15.259827 -12.362213z" fill-rule="evenodd"/><path stroke="#595959" stroke-width="1.0" stroke-linejoin="round" stroke-linecap="butt" d="m390.06146 333.43176l0 0c0 -6.8274536 6.832062 -12.362213 15.259827 -12.362213l0 0c8.427795 0 15.259857 5.5347595 15.259857 12.362213l0 0c0 6.8274536 -6.832062 12.362213 -15.259857 12.362213l0 0c-8.427765 0 -15.259827 -5.5347595 -15.259827 -12.362213z" fill-rule="evenodd"/><path fill="#000000" d="m401.52603 337.29175l0 -7.203125l-1.234375 0l0 -1.09375l1.234375 0l0 -0.890625q0 -0.828125 0.15625 -1.234375q0.203125 -0.546875 0.703125 -0.890625q0.515625 -0.34375 1.4375 -0.34375q0.59375 0 1.3125 0.140625l-0.203125 1.234375q-0.4375 -0.078125 -0.828125 -0.078125q-0.640625 0 -0.90625 0.28125q-0.265625 0.265625 -0.265625 1.015625l0 0.765625l1.609375 0l0 1.09375l-1.609375 0l0 7.203125l-1.40625 0z" fill-rule="nonzero"/><path fill="#000000" d="m405.03384 341.27612l0.9375 -0.125q0.15625 0.796875 0.546875 1.15625q0.390625 0.34375 0.9375 0.34375q0.65625 0 1.109375 -0.453125q0.46875 -0.46875 0.46875 -1.140625q0 -0.640625 -0.421875 -1.0625q-0.421875 -0.421875 -1.078125 -0.421875q-0.265625 0 -0.65625 0.109375l0.109375 -0.828125q0.09375 0.015625 0.140625 0.015625q0.59375 0 1.078125 -0.3125q0.484375 -0.3125 0.484375 -0.96875q0 -0.515625 -0.359375 -0.84375q-0.34375 -0.34375 -0.890625 -0.34375q-0.546875 0 -0.921875 0.34375q-0.359375 0.34375 -0.453125 1.03125l-0.9375 -0.171875q0.171875 -0.9375 0.78125 -1.453125q0.609375 -0.515625 1.5 -0.515625q0.625 0 1.15625 0.265625q0.53125 0.265625 0.796875 0.734375q0.28125 0.453125 0.28125 0.984375q0 0.484375 -0.265625 0.890625q-0.265625 0.40625 -0.78125 0.65625q0.671875 0.15625 1.046875 0.65625q0.375 0.484375 0.375 1.21875q0 1.0 -0.734375 1.703125q-0.71875 0.6875 -1.828125 0.6875q-1.0 0 -1.671875 -0.59375q-0.65625 -0.609375 -0.75 -1.5625z" fill-rule="nonzero"/><path fill="#000000" fill-opacity="0.0" d="m390.06143 383.6719l30.519684 0l0 24.724426l-30.519684 0z" fill-rule="evenodd"/><path stroke="#595959" stroke-width="1.0" stroke-linejoin="round" stroke-linecap="butt" d="m390.06143 383.6719l30.519684 0l0 24.724426l-30.519684 0z" fill-rule="evenodd"/><path fill="#000000" d="m399.68854 400.47632l-2.328125 -7.59375l1.328125 0l1.203125 4.375l0.453125 1.640625q0.03125 -0.125 0.390625 -1.578125l1.21875 -4.4375l1.328125 0l1.125 4.40625l0.390625 1.453125l0.4375 -1.46875l1.296875 -4.390625l1.25 0l-2.375 7.59375l-1.34375 0l-1.203125 -4.546875l-0.296875 -1.296875l-1.53125 5.84375l-1.34375 0z" fill-rule="nonzero"/><path fill="#000000" d="m408.30405 404.13257l0.859375 -0.109375q0.15625 0.71875 0.5 1.046875q0.359375 0.3125 0.875 0.3125q0.609375 0 1.015625 -0.40625q0.421875 -0.421875 0.421875 -1.046875q0 -0.59375 -0.390625 -0.96875q-0.390625 -0.390625 -0.984375 -0.390625q-0.234375 0 -0.59375 0.09375l0.09375 -0.75q0.078125 0.015625 0.140625 0.015625q0.546875 0 0.984375 -0.28125q0.4375 -0.296875 0.4375 -0.890625q0 -0.46875 -0.328125 -0.78125q-0.3125 -0.3125 -0.8125 -0.3125q-0.515625 0 -0.84375 0.3125q-0.328125 0.3125 -0.421875 0.953125l-0.859375 -0.15625q0.15625 -0.859375 0.703125 -1.328125q0.5625 -0.484375 1.390625 -0.484375q0.578125 0 1.0625 0.25q0.484375 0.234375 0.734375 0.671875q0.25 0.421875 0.25 0.890625q0 0.453125 -0.25 0.828125q-0.234375 0.375 -0.703125 0.59375q0.609375 0.140625 0.953125 0.59375q0.34375 0.453125 0.34375 1.125q0 0.90625 -0.671875 1.546875q-0.65625 0.640625 -1.6875 0.640625q-0.90625 0 -1.515625 -0.546875q-0.609375 -0.546875 -0.703125 -1.421875z" fill-rule="nonzero"/><path fill="#000000" fill-opacity="0.0" d="m273.11374 333.41995l43.212585 -0.6614075" fill-rule="evenodd"/><path stroke="#595959" stroke-width="1.0" stroke-linejoin="round" stroke-linecap="butt" d="m273.11374 333.41995l39.78592 -0.6089783" fill-rule="evenodd"/><path fill="#595959" stroke="#595959" stroke-width="1.0" stroke-linecap="butt" d="m312.89966 332.81097l-1.1072388 1.1416626l3.0722046 -1.1717224l-3.1066284 -1.077179z" fill-rule="evenodd"/><path fill="#000000" fill-opacity="0.0" d="m346.846 332.75854l43.212616 0.6614075" fill-rule="evenodd"/><path stroke="#595959" stroke-width="1.0" stroke-linejoin="round" stroke-linecap="butt" d="m346.846 332.75854l39.78592 0.60894775" fill-rule="evenodd"/><path fill="#595959" stroke="#595959" stroke-width="1.0" stroke-linecap="butt" d="m386.63193 333.3675l-1.1416626 1.1072388l3.106598 -1.0771484l-3.072174 -1.1717529z" fill-rule="evenodd"/><path fill="#000000" fill-opacity="0.0" d="m420.58115 333.43176l43.212585 -0.6614075" fill-rule="evenodd"/><path stroke="#595959" stroke-width="1.0" stroke-linejoin="round" stroke-linecap="butt" d="m420.58115 333.43176l39.78595 -0.6089783" fill-rule="evenodd"/><path fill="#595959" stroke="#595959" stroke-width="1.0" stroke-linecap="butt" d="m460.36707 332.82278l-1.1072388 1.1416626l3.0722046 -1.1717224l-3.1066284 -1.077179z" fill-rule="evenodd"/><path fill="#000000" fill-opacity="0.0" d="m494.31628 332.75854l43.212585 0.6614075" fill-rule="evenodd"/><path stroke="#595959" stroke-width="1.0" stroke-linejoin="round" stroke-linecap="butt" d="m494.31628 332.75854l39.78589 0.60894775" fill-rule="evenodd"/><path fill="#595959" stroke="#595959" stroke-width="1.0" stroke-linecap="butt" d="m534.1022 333.3675l-1.1416626 1.1072388l3.1066284 -1.0771484l-3.0722046 -1.1717529z" fill-rule="evenodd"/><path fill="#000000" fill-opacity="0.0" d="m405.32126 383.6719l0 -37.88974" fill-rule="evenodd"/><path stroke="#595959" stroke-width="1.0" stroke-linejoin="round" stroke-linecap="butt" d="m405.3213 383.6719l0 -34.462677" fill-rule="evenodd"/><path fill="#595959" stroke="#595959" stroke-width="1.0" stroke-linecap="butt" d="m405.3213 349.20923l1.1245728 1.1246033l-1.1245728 -3.0897827l-1.1246033 3.0897827z" fill-rule="evenodd"/><path fill="#000000" fill-opacity="0.0" d="m316.32632 144.39633l30.519684 0l0 24.724396l-30.519684 0z" fill-rule="evenodd"/><path stroke="#595959" stroke-width="1.0" stroke-linejoin="round" stroke-linecap="butt" d="m316.32632 144.39633l30.519684 0l0 24.724396l-30.519684 0z" fill-rule="evenodd"/><path fill="#000000" d="m330.17047 161.20073l-10.75 0l5.15625 -10.109375l0.5 0l5.09375 10.109375zm-2.71875 -0.59375l-3.53125 -7.0l-3.5625 7.0l7.09375 0z" fill-rule="nonzero"/><path fill="#000000" d="m336.27896 160.26323q-0.71875 0.609375 -1.375 0.859375q-0.65625 0.25 -1.421875 0.25q-1.25 0 -1.921875 -0.609375q-0.671875 -0.609375 -0.671875 -1.5625q0 -0.5625 0.25 -1.015625q0.25 -0.46875 0.65625 -0.75q0.421875 -0.28125 0.9375 -0.421875q0.375 -0.09375 1.140625 -0.1875q1.5625 -0.1875 2.296875 -0.453125q0.015625 -0.265625 0.015625 -0.328125q0 -0.796875 -0.375 -1.109375q-0.484375 -0.4375 -1.453125 -0.4375q-0.921875 0 -1.359375 0.328125q-0.421875 0.3125 -0.625 1.109375l-1.265625 -0.171875q0.171875 -0.796875 0.5625 -1.296875q0.390625 -0.5 1.140625 -0.765625q0.75 -0.265625 1.71875 -0.265625q0.984375 0 1.59375 0.234375q0.609375 0.21875 0.890625 0.5625q0.28125 0.34375 0.40625 0.875q0.0625 0.328125 0.0625 1.1875l0 1.71875q0 1.796875 0.078125 2.28125q0.078125 0.46875 0.328125 0.90625l-1.34375 0q-0.203125 -0.40625 -0.265625 -0.9375zm-0.109375 -2.875q-0.703125 0.28125 -2.09375 0.484375q-0.796875 0.109375 -1.125 0.265625q-0.328125 0.140625 -0.515625 0.421875q-0.171875 0.265625 -0.171875 0.59375q0 0.515625 0.390625 0.859375q0.390625 0.34375 1.140625 0.34375q0.734375 0 1.3125 -0.3125q0.59375 -0.328125 0.859375 -0.890625q0.203125 -0.4375 0.203125 -1.296875l0 -0.46875z" fill-rule="nonzero"/><path fill="#000000" d="m338.91446 164.85698l0.859375 -0.109375q0.15625 0.71875 0.5 1.046875q0.359375 0.3125 0.875 0.3125q0.609375 0 1.015625 -0.40625q0.421875 -0.421875 0.421875 -1.046875q0 -0.59375 -0.390625 -0.96875q-0.390625 -0.390625 -0.984375 -0.390625q-0.234375 0 -0.59375 0.09375l0.09375 -0.75q0.078125 0.015625 0.140625 0.015625q0.546875 0 0.984375 -0.28125q0.4375 -0.296875 0.4375 -0.890625q0 -0.46875 -0.328125 -0.78125q-0.3125 -0.3125 -0.8125 -0.3125q-0.515625 0 -0.84375 0.3125q-0.328125 0.3125 -0.421875 0.953125l-0.859375 -0.15625q0.15625 -0.859375 0.703125 -1.328125q0.5625 -0.484375 1.390625 -0.484375q0.578125 0 1.0625 0.25q0.484375 0.234375 0.734375 0.671875q0.25 0.421875 0.25 0.890625q0 0.453125 -0.25 0.828125q-0.234375 0.375 -0.703125 0.59375q0.609375 0.140625 0.953125 0.59375q0.34375 0.453125 0.34375 1.125q0 0.90625 -0.671875 1.546875q-0.65625 0.640625 -1.6875 0.640625q-0.90625 0 -1.515625 -0.546875q-0.609375 -0.546875 -0.703125 -1.421875z" fill-rule="nonzero"/><path fill="#000000" fill-opacity="0.0" d="m463.7966 144.39633l30.519684 0l0 24.724396l-30.519684 0z" fill-rule="evenodd"/><path stroke="#595959" stroke-width="1.0" stroke-linejoin="round" stroke-linecap="butt" d="m463.7966 144.39633l30.519684 0l0 24.724396l-30.519684 0z" fill-rule="evenodd"/><path fill="#000000" d="m477.64072 161.20073l-10.75 0l5.15625 -10.109375l0.5 0l5.09375 10.109375zm-2.71875 -0.59375l-3.53125 -7.0l-3.5625 7.0l7.09375 0z" fill-rule="nonzero"/><path fill="#000000" d="m483.74924 160.26323q-0.71875 0.609375 -1.375 0.859375q-0.65625 0.25 -1.421875 0.25q-1.25 0 -1.921875 -0.609375q-0.671875 -0.609375 -0.671875 -1.5625q0 -0.5625 0.25 -1.015625q0.25 -0.46875 0.65625 -0.75q0.421875 -0.28125 0.9375 -0.421875q0.375 -0.09375 1.140625 -0.1875q1.5625 -0.1875 2.296875 -0.453125q0.015625 -0.265625 0.015625 -0.328125q0 -0.796875 -0.375 -1.109375q-0.484375 -0.4375 -1.453125 -0.4375q-0.921875 0 -1.359375 0.328125q-0.421875 0.3125 -0.625 1.109375l-1.265625 -0.171875q0.171875 -0.796875 0.5625 -1.296875q0.390625 -0.5 1.140625 -0.765625q0.75 -0.265625 1.71875 -0.265625q0.984375 0 1.59375 0.234375q0.609375 0.21875 0.890625 0.5625q0.28125 0.34375 0.40625 0.875q0.0625 0.328125 0.0625 1.1875l0 1.71875q0 1.796875 0.078125 2.28125q0.078125 0.46875 0.328125 0.90625l-1.34375 0q-0.203125 -0.40625 -0.265625 -0.9375zm-0.109375 -2.875q-0.703125 0.28125 -2.09375 0.484375q-0.796875 0.109375 -1.125 0.265625q-0.328125 0.140625 -0.515625 0.421875q-0.171875 0.265625 -0.171875 0.59375q0 0.515625 0.390625 0.859375q0.390625 0.34375 1.140625 0.34375q0.734375 0 1.3125 -0.3125q0.59375 -0.328125 0.859375 -0.890625q0.203125 -0.4375 0.203125 -1.296875l0 -0.46875z" fill-rule="nonzero"/><path fill="#000000" d="m489.1347 166.70073l0 -1.671875l-3.03125 0l0 -0.78125l3.1875 -4.53125l0.703125 0l0 4.53125l0.9375 0l0 0.78125l-0.9375 0l0 1.671875l-0.859375 0zm0 -2.453125l0 -3.15625l-2.1875 3.15625l2.1875 0z" fill-rule="nonzero"/><path fill="#000000" fill-opacity="0.0" d="m390.06146 157.43176l0 0c0 -6.827469 6.832062 -12.362213 15.259827 -12.362213l0 0c8.427795 0 15.259857 5.5347443 15.259857 12.362213l0 0c0 6.8274536 -6.832062 12.362198 -15.259857 12.362198l0 0c-8.427765 0 -15.259827 -5.5347443 -15.259827 -12.362198z" fill-rule="evenodd"/><path stroke="#595959" stroke-width="1.0" stroke-linejoin="round" stroke-linecap="butt" d="m390.06146 157.43176l0 0c0 -6.827469 6.832062 -12.362213 15.259827 -12.362213l0 0c8.427795 0 15.259857 5.5347443 15.259857 12.362213l0 0c0 6.8274536 -6.832062 12.362198 -15.259857 12.362198l0 0c-8.427765 0 -15.259827 -5.5347443 -15.259827 -12.362198z" fill-rule="evenodd"/><path fill="#000000" d="m400.26822 161.29176l-1.3125 0l0 -11.453125l1.40625 0l0 4.078125q0.890625 -1.109375 2.28125 -1.109375q0.765625 0 1.4375 0.3125q0.6875 0.296875 1.125 0.859375q0.453125 0.5625 0.703125 1.359375q0.25 0.78125 0.25 1.671875q0 2.140625 -1.0625 3.3125q-1.046875 1.15625 -2.53125 1.15625q-1.46875 0 -2.296875 -1.234375l0 1.046875zm-0.015625 -4.21875q0 1.5 0.40625 2.15625q0.65625 1.09375 1.796875 1.09375q0.921875 0 1.59375 -0.796875q0.671875 -0.8125 0.671875 -2.390625q0 -1.625 -0.65625 -2.390625q-0.640625 -0.78125 -1.546875 -0.78125q-0.921875 0 -1.59375 0.796875q-0.671875 0.796875 -0.671875 2.3125z" fill-rule="nonzero"/><path fill="#000000" d="m407.2604 165.27614l0.9375 -0.125q0.15625 0.796875 0.546875 1.15625q0.390625 0.34375 0.9375 0.34375q0.65625 0 1.109375 -0.453125q0.46875 -0.46875 0.46875 -1.140625q0 -0.640625 -0.421875 -1.0625q-0.421875 -0.421875 -1.078125 -0.421875q-0.265625 0 -0.65625 0.109375l0.109375 -0.828125q0.09375 0.015625 0.140625 0.015625q0.59375 0 1.078125 -0.3125q0.484375 -0.3125 0.484375 -0.96875q0 -0.515625 -0.359375 -0.84375q-0.34375 -0.34375 -0.890625 -0.34375q-0.546875 0 -0.921875 0.34375q-0.359375 0.34375 -0.453125 1.03125l-0.9375 -0.171875q0.171875 -0.9375 0.78125 -1.453125q0.609375 -0.515625 1.5 -0.515625q0.625 0 1.15625 0.265625q0.53125 0.265625 0.796875 0.734375q0.28125 0.453125 0.28125 0.984375q0 0.484375 -0.265625 0.890625q-0.265625 0.40625 -0.78125 0.65625q0.671875 0.15625 1.046875 0.65625q0.375 0.484375 0.375 1.21875q0 1.0 -0.734375 1.703125q-0.71875 0.6875 -1.828125 0.6875q-1.0 0 -1.671875 -0.59375q-0.65625 -0.609375 -0.75 -1.5625z" fill-rule="nonzero"/><path fill="#000000" fill-opacity="0.0" d="m390.06143 207.67192l30.519684 0l0 24.724411l-30.519684 0z" fill-rule="evenodd"/><path stroke="#595959" stroke-width="1.0" stroke-linejoin="round" stroke-linecap="butt" d="m390.06143 207.67192l30.519684 0l0 24.724411l-30.519684 0z" fill-rule="evenodd"/><path fill="#000000" d="m402.68896 224.47632l-10.75 0l5.15625 -10.109375l0.5 0l5.09375 10.109375zm-2.71875 -0.59375l-3.53125 -7.0l-3.5625 7.0l7.09375 0z" fill-rule="nonzero"/><path fill="#000000" d="m405.2506 224.47632l-2.328125 -7.59375l1.328125 0l1.203125 4.375l0.453125 1.640625q0.03125 -0.125 0.390625 -1.578125l1.21875 -4.4375l1.328125 0l1.125 4.40625l0.390625 1.453125l0.4375 -1.46875l1.296875 -4.390625l1.25 0l-2.375 7.59375l-1.34375 0l-1.203125 -4.546875l-0.296875 -1.296875l-1.53125 5.84375l-1.34375 0z" fill-rule="nonzero"/><path fill="#000000" d="m413.86612 228.13257l0.859375 -0.109375q0.15625 0.71875 0.5 1.046875q0.359375 0.3125 0.875 0.3125q0.609375 0 1.015625 -0.40625q0.421875 -0.421875 0.421875 -1.046875q0 -0.59375 -0.390625 -0.96875q-0.390625 -0.390625 -0.984375 -0.390625q-0.234375 0 -0.59375 0.09375l0.09375 -0.75q0.078125 0.015625 0.140625 0.015625q0.546875 0 0.984375 -0.28125q0.4375 -0.296875 0.4375 -0.890625q0 -0.46875 -0.328125 -0.78125q-0.3125 -0.3125 -0.8125 -0.3125q-0.515625 0 -0.84375 0.3125q-0.328125 0.3125 -0.421875 0.953125l-0.859375 -0.15625q0.15625 -0.859375 0.703125 -1.328125q0.5625 -0.484375 1.390625 -0.484375q0.578125 0 1.0625 0.25q0.484375 0.234375 0.734375 0.671875q0.25 0.421875 0.25 0.890625q0 0.453125 -0.25 0.828125q-0.234375 0.375 -0.703125 0.59375q0.609375 0.140625 0.953125 0.59375q0.34375 0.453125 0.34375 1.125q0 0.90625 -0.671875 1.546875q-0.65625 0.640625 -1.6875 0.640625q-0.90625 0 -1.515625 -0.546875q-0.609375 -0.546875 -0.703125 -1.421875z" fill-rule="nonzero"/><path fill="#000000" fill-opacity="0.0" d="m273.11374 157.41995l43.212585 -0.6614227" fill-rule="evenodd"/><path stroke="#595959" stroke-width="1.0" stroke-linejoin="round" stroke-linecap="butt" d="m276.54044 157.3675l39.78592 -0.608963" fill-rule="evenodd"/><path fill="#595959" stroke="#595959" stroke-width="1.0" stroke-linecap="butt" d="m276.54044 157.3675l1.1072388 -1.1416626l-3.0722046 1.1717377l3.1066284 1.077179z" fill-rule="evenodd"/><path fill="#000000" fill-opacity="0.0" d="m346.846 156.75853l43.212616 0.6614227" fill-rule="evenodd"/><path stroke="#595959" stroke-width="1.0" stroke-linejoin="round" stroke-linecap="butt" d="m350.27267 156.81099l39.78592 0.608963" fill-rule="evenodd"/><path fill="#595959" stroke="#595959" stroke-width="1.0" stroke-linecap="butt" d="m350.2727 156.81097l1.1416626 -1.1072388l-3.1066284 1.0771637l3.0722046 1.1717377z" fill-rule="evenodd"/><path fill="#000000" fill-opacity="0.0" d="m420.58115 157.43176l43.212585 -0.6614227" fill-rule="evenodd"/><path stroke="#595959" stroke-width="1.0" stroke-linejoin="round" stroke-linecap="butt" d="m424.00784 157.3793l39.78592 -0.608963" fill-rule="evenodd"/><path fill="#595959" stroke="#595959" stroke-width="1.0" stroke-linecap="butt" d="m424.00784 157.3793l1.1072388 -1.1416626l-3.0722046 1.1717377l3.1066284 1.077179z" fill-rule="evenodd"/><path fill="#000000" fill-opacity="0.0" d="m494.31628 156.75853l43.212585 0.6614227" fill-rule="evenodd"/><path stroke="#595959" stroke-width="1.0" stroke-linejoin="round" stroke-linecap="butt" d="m497.74295 156.81099l39.78592 0.608963" fill-rule="evenodd"/><path fill="#595959" stroke="#595959" stroke-width="1.0" stroke-linecap="butt" d="m497.74295 156.81097l1.1416626 -1.1072388l-3.106598 1.0771637l3.072174 1.1717377z" fill-rule="evenodd"/><path fill="#000000" fill-opacity="0.0" d="m405.32126 207.67192l0 -37.88977" fill-rule="evenodd"/><path stroke="#595959" stroke-width="1.0" stroke-linejoin="round" stroke-linecap="butt" d="m405.3213 204.24483l0 -34.462677" fill-rule="evenodd"/><path fill="#595959" stroke="#595959" stroke-width="1.0" stroke-linecap="butt" d="m405.3213 204.24483l-1.1246033 -1.124588l1.1246033 3.0897675l1.1245728 -3.0897675z" fill-rule="evenodd"/><path fill="#000000" fill-opacity="0.0" d="m392.4085 164.45609c-33.748016 45.046265 -64.514435 99.76141 -64.514435 156.04724" fill-rule="evenodd"/><path stroke="#595959" stroke-width="1.0" stroke-linejoin="round" stroke-linecap="butt" stroke-dasharray="4.0,3.0" d="m390.3629 167.20572l-1.1087036 1.5015411c-1.0479736 1.4263306 -2.0921326 2.861847 -3.1317444 4.3063354c-2.0791626 2.8889465 -4.1398926 5.81369 -6.1754456 8.772247c-4.071045 5.9171143 -8.04126 11.969513 -11.856354 18.141327c-7.6301575 12.343643 -14.639832 25.16507 -20.59488 38.337692c-11.910126 26.345306 -19.601715 54.09555 -19.601715 82.238464" fill-rule="evenodd"/><path fill="#595959" stroke="#595959" stroke-width="1.0" stroke-linecap="butt" d="m390.3629 167.20572l0.23101807 1.5735321l0.9419861 -3.150238l-2.7465515 1.8077393z" fill-rule="evenodd"/><path fill="#000000" fill-opacity="0.0" d="m395.98944 166.01276c-17.257416 43.171677 -36.0896 89.62593 -31.451416 135.88715c3.2752075 32.667145 13.183746 64.688324 25.404175 95.160095" fill-rule="evenodd"/><path stroke="#595959" stroke-width="1.0" stroke-linejoin="round" stroke-linecap="butt" stroke-dasharray="4.0,3.0" d="m394.7183 169.19537l-1.9769592 4.9496765c-1.0847473 2.7230377 -2.1695557 5.458023 -3.248291 8.204147c-2.1575012 5.492279 -4.2906494 11.029022 -6.350586 16.6035c-4.119873 11.148926 -7.9468384 22.448715 -11.089539 33.845062c-6.285492 22.792664 -9.834015 45.971527 -7.5148926 69.10214c3.2752075 32.667114 13.183716 64.688324 25.404205 95.160095" fill-rule="evenodd"/><path fill="#595959" stroke="#595959" stroke-width="1.0" stroke-linecap="butt" d="m394.7183 169.19537l0.6272278 1.4614868l0.10168457 -3.2864838l-2.1903992 2.45224z" fill-rule="evenodd"/><path fill="#000000" fill-opacity="0.0" d="m237.0 369.0l80.0 0l0 29.102356l-80.0 0z" fill-rule="evenodd"/><path fill="#ff0000" d="m238.57812 396.80563l0 -17.21875l1.921875 0l0 1.625q0.6875 -0.953125 1.53125 -1.421875q0.859375 -0.484375 2.078125 -0.484375q1.59375 0 2.8125 0.828125q1.21875 0.8125 1.84375 2.3125q0.625 1.5 0.625 3.28125q0 1.90625 -0.6875 3.4375q-0.6875 1.53125 -2.0 2.34375q-1.296875 0.8125 -2.734375 0.8125q-1.0625 0 -1.90625 -0.4375q-0.828125 -0.453125 -1.375 -1.140625l0 6.0625l-2.109375 0zm1.921875 -10.921875q0 2.40625 0.96875 3.5625q0.96875 1.140625 2.359375 1.140625q1.40625 0 2.40625 -1.1875q1.0 -1.1875 1.0 -3.6875q0 -2.375 -0.984375 -3.5625q-0.96875 -1.1875 -2.328125 -1.1875q-1.359375 0 -2.390625 1.265625q-1.03125 1.25 -1.03125 3.65625zm11.410156 6.15625l0 -12.453125l1.890625 0l0 1.890625q0.734375 -1.328125 1.34375 -1.75q0.625 -0.421875 1.359375 -0.421875q1.0625 0 2.171875 0.6875l-0.734375 1.953125q-0.765625 -0.453125 -1.546875 -0.453125q-0.6875 0 -1.25 0.421875q-0.546875 0.40625 -0.78125 1.140625q-0.34375 1.125 -0.34375 2.46875l0 6.515625l-2.109375 0zm8.0234375 -14.75l0 -2.4375l2.109375 0l0 2.4375l-2.109375 0zm0 14.75l0 -12.453125l2.109375 0l0 12.453125l-2.109375 0zm5.3164062 0l0 -12.453125l1.890625 0l0 1.75q0.59375 -0.90625 1.5625 -1.46875q0.96875 -0.5625 2.21875 -0.5625q1.375 0 2.25 0.578125q0.890625 0.578125 1.265625 1.609375q1.46875 -2.1875 3.84375 -2.1875q1.84375 0 2.84375 1.03125q1.0 1.03125 1.0 3.15625l0 8.546875l-2.109375 0l0 -7.84375q0 -1.265625 -0.203125 -1.8125q-0.203125 -0.5625 -0.75 -0.90625q-0.53125 -0.34375 -1.25 -0.34375q-1.3125 0 -2.1875 0.875q-0.859375 0.875 -0.859375 2.796875l0 7.234375l-2.109375 0l0 -8.09375q0 -1.40625 -0.515625 -2.109375q-0.515625 -0.703125 -1.6875 -0.703125q-0.890625 0 -1.65625 0.46875q-0.75 0.46875 -1.09375 1.375q-0.34375 0.90625 -0.34375 2.609375l0 6.453125l-2.109375 0zm28.117188 -1.53125q-1.171875 0.984375 -2.265625 1.40625q-1.078125 0.40625 -2.3125 0.40625q-2.046875 0 -3.15625 -1.0q-1.09375 -1.0 -1.09375 -2.5625q0 -0.921875 0.40625 -1.671875q0.421875 -0.75 1.09375 -1.203125q0.671875 -0.46875 1.515625 -0.703125q0.625 -0.15625 1.875 -0.3125q2.5625 -0.3125 3.765625 -0.734375q0.015625 -0.421875 0.015625 -0.546875q0 -1.28125 -0.609375 -1.8125q-0.796875 -0.71875 -2.390625 -0.71875q-1.5 0 -2.203125 0.53125q-0.703125 0.515625 -1.046875 1.84375l-2.0625 -0.28125q0.28125 -1.328125 0.921875 -2.140625q0.640625 -0.8125 1.859375 -1.25q1.21875 -0.453125 2.828125 -0.453125q1.59375 0 2.59375 0.375q1.0 0.375 1.46875 0.953125q0.46875 0.5625 0.65625 1.4375q0.09375 0.53125 0.09375 1.9375l0 2.8125q0 2.9375 0.140625 3.71875q0.140625 0.78125 0.53125 1.5l-2.203125 0q-0.328125 -0.65625 -0.421875 -1.53125zm-0.171875 -4.71875q-1.15625 0.46875 -3.453125 0.796875q-1.296875 0.1875 -1.84375 0.421875q-0.53125 0.234375 -0.828125 0.6875q-0.28125 0.453125 -0.28125 1.0q0 0.84375 0.625 1.40625q0.640625 0.5625 1.875 0.5625q1.21875 0 2.171875 -0.53125q0.953125 -0.53125 1.390625 -1.453125q0.34375 -0.71875 0.34375 -2.109375l0 -0.78125zm5.3476562 6.25l0 -17.1875l2.109375 0l0 17.1875l-2.109375 0zm4.5351562 -3.71875l2.09375 -0.328125q0.171875 1.25 0.96875 1.921875q0.8125 0.671875 2.25 0.671875q1.453125 0 2.15625 -0.59375q0.703125 -0.59375 0.703125 -1.390625q0 -0.71875 -0.625 -1.125q-0.421875 -0.28125 -2.15625 -0.71875q-2.3125 -0.578125 -3.21875 -1.0q-0.890625 -0.4375 -1.359375 -1.1875q-0.453125 -0.765625 -0.453125 -1.671875q0 -0.828125 0.375 -1.53125q0.390625 -0.71875 1.046875 -1.1875q0.484375 -0.359375 1.328125 -0.609375q0.859375 -0.265625 1.828125 -0.265625q1.46875 0 2.578125 0.421875q1.109375 0.421875 1.625 1.15625q0.53125 0.71875 0.734375 1.921875l-2.0625 0.28125q-0.140625 -0.96875 -0.8125 -1.5q-0.671875 -0.546875 -1.90625 -0.546875q-1.453125 0 -2.078125 0.484375q-0.625 0.484375 -0.625 1.125q0 0.40625 0.265625 0.734375q0.25 0.34375 0.8125 0.5625q0.3125 0.125 1.859375 0.546875q2.234375 0.59375 3.109375 0.984375q0.890625 0.375 1.390625 1.109375q0.515625 0.71875 0.515625 1.796875q0 1.046875 -0.625 1.984375q-0.609375 0.9375 -1.765625 1.453125q-1.15625 0.5 -2.625 0.5q-2.421875 0 -3.703125 -1.0q-1.265625 -1.015625 -1.625 -3.0z" fill-rule="nonzero"/><path fill="#000000" fill-opacity="0.0" d="m277.0 369.0c0 -5.969818 13.64566 -8.955383 27.291351 -11.939636c13.64566 -2.984253 27.29132 -5.9671936 27.29132 -11.934387" fill-rule="evenodd"/><path stroke="#ff0000" stroke-width="2.0" stroke-linejoin="round" stroke-linecap="butt" d="m277.0 369.0c0 -5.969818 13.64566 -8.955383 27.291351 -11.939636c6.822815 -1.4921265 13.64566 -2.9839172 18.762787 -4.848572c1.2792664 -0.46618652 2.4519653 -0.95562744 3.4913635 -1.4742737c0.12994385 -0.064819336 0.25778198 -0.13006592 0.3834839 -0.19586182l0.27142334 -0.14544678" fill-rule="evenodd"/><path fill="#ff0000" stroke="#ff0000" stroke-width="2.0" stroke-linecap="butt" d="m327.2004 350.3962l0.29138184 3.16745l2.221527 -6.1895447l-5.6803284 3.3134766z" fill-rule="evenodd"/><path fill="#000000" fill-opacity="0.0" d="m277.0 398.10236c0 17.646973 32.078735 34.00656 64.15747 35.293976c32.078735 1.287384 64.1575 -12.4973755 64.1575 -24.994751" fill-rule="evenodd"/><path stroke="#ff0000" stroke-width="2.0" stroke-linejoin="round" stroke-linecap="butt" d="m277.0 398.10236c0 17.646973 32.078735 34.00656 64.15747 35.293976c16.039368 0.6437073 32.078735 -2.4806519 44.108276 -7.3280945c3.0073853 -1.211853 5.76416 -2.5314026 8.207642 -3.9266968c1.2217407 -0.69763184 2.3652039 -1.4142151 3.4224854 -2.145752c0.5286255 -0.3657837 1.0357056 -0.7352905 1.5202942 -1.1080017c0.121154785 -0.093170166 0.24090576 -0.18658447 0.3592224 -0.28012085l0.1000061 -0.08026123" fill-rule="evenodd"/><path fill="#ff0000" stroke="#ff0000" stroke-width="2.0" stroke-linecap="butt" d="m401.66293 420.30014l2.0830383 -9.4313965l-7.658081 5.8859253z" fill-rule="evenodd"/><path fill="#000000" fill-opacity="0.0" d="m317.0 383.55118c81.02362 0 162.04724 -19.212585 162.04724 -38.4252" fill-rule="evenodd"/><path stroke="#ff0000" stroke-width="2.0" stroke-linejoin="round" stroke-linecap="butt" d="m317.0 383.55118c40.51181 0 81.02362 -4.8031616 111.40747 -12.007874c15.191925 -3.602356 27.851868 -7.8051147 36.713837 -12.308075c2.2154846 -1.1257324 4.1936035 -2.2702637 5.9145813 -3.4288025c0.21508789 -0.14480591 0.4262085 -0.28985596 0.63323975 -0.43511963l0.53808594 -0.38562012" fill-rule="evenodd"/><path fill="#ff0000" stroke="#ff0000" stroke-width="2.0" stroke-linecap="butt" d="m474.92148 356.86868l2.459198 -9.340363l-7.887726 5.574402z" fill-rule="evenodd"/><path fill="#000000" fill-opacity="0.0" d="m199.07874 187.0l117.921265 0l0 29.102356l-117.921265 0z" fill-rule="evenodd"/><path fill="#ff0000" d="m208.78186 205.4775l2.078125 0.265625q-0.34375 2.15625 -1.75 3.375q-1.390625 1.203125 -3.4375 1.203125q-2.546875 0 -4.109375 -1.671875q-1.546875 -1.671875 -1.546875 -4.78125q0 -2.015625 0.671875 -3.53125q0.671875 -1.515625 2.03125 -2.265625q1.359375 -0.765625 2.96875 -0.765625q2.03125 0 3.3125 1.03125q1.296875 1.03125 1.65625 2.90625l-2.046875 0.328125q-0.296875 -1.265625 -1.046875 -1.890625q-0.734375 -0.640625 -1.796875 -0.640625q-1.59375 0 -2.59375 1.15625q-0.984375 1.140625 -0.984375 3.609375q0 2.5 0.953125 3.640625q0.96875 1.140625 2.515625 1.140625q1.234375 0 2.0625 -0.765625q0.84375 -0.765625 1.0625 -2.34375zm3.09375 -1.65625q0 -3.46875 1.921875 -5.125q1.609375 -1.390625 3.921875 -1.390625q2.5625 0 4.1875 1.6875q1.625 1.6875 1.625 4.640625q0 2.40625 -0.71875 3.78125q-0.71875 1.375 -2.09375 2.140625q-1.375 0.765625 -3.0 0.765625q-2.625 0 -4.234375 -1.671875q-1.609375 -1.6875 -1.609375 -4.828125zm2.171875 0q0 2.390625 1.03125 3.578125q1.046875 1.1875 2.640625 1.1875q1.5625 0 2.609375 -1.1875q1.046875 -1.203125 1.046875 -3.65625q0 -2.3125 -1.0625 -3.5q-1.046875 -1.1875 -2.59375 -1.1875q-1.59375 0 -2.640625 1.1875q-1.03125 1.1875 -1.03125 3.578125zm16.566406 4.328125l0.3125 1.859375q-0.890625 0.203125 -1.59375 0.203125q-1.15625 0 -1.796875 -0.359375q-0.625 -0.375 -0.890625 -0.96875q-0.25 -0.59375 -0.25 -2.484375l0 -7.171875l-1.546875 0l0 -1.640625l1.546875 0l0 -3.078125l2.09375 -1.265625l0 4.34375l2.125 0l0 1.640625l-2.125 0l0 7.28125q0 0.90625 0.109375 1.171875q0.125 0.25 0.375 0.40625q0.25 0.140625 0.71875 0.140625q0.34375 0 0.921875 -0.078125zm10.183594 0.359375q-1.171875 0.984375 -2.265625 1.40625q-1.078125 0.40625 -2.3125 0.40625q-2.046875 0 -3.15625 -1.0q-1.09375 -1.0 -1.09375 -2.5625q0 -0.921875 0.40625 -1.671875q0.421875 -0.75 1.09375 -1.203125q0.671875 -0.46875 1.515625 -0.703125q0.625 -0.15625 1.875 -0.3125q2.5625 -0.3125 3.765625 -0.734375q0.015625 -0.421875 0.015625 -0.546875q0 -1.28125 -0.609375 -1.8125q-0.796875 -0.71875 -2.390625 -0.71875q-1.5 0 -2.203125 0.53125q-0.703125 0.515625 -1.046875 1.84375l-2.0625 -0.28125q0.28125 -1.328125 0.921875 -2.140625q0.640625 -0.8125 1.859375 -1.25q1.21875 -0.453125 2.828125 -0.453125q1.59375 0 2.59375 0.375q1.0 0.375 1.46875 0.953125q0.46875 0.5625 0.65625 1.4375q0.09375 0.53125 0.09375 1.9375l0 2.8125q0 2.9375 0.140625 3.71875q0.140625 0.78125 0.53125 1.5l-2.203125 0q-0.328125 -0.65625 -0.421875 -1.53125zm-0.171875 -4.71875q-1.15625 0.46875 -3.453125 0.796875q-1.296875 0.1875 -1.84375 0.421875q-0.53125 0.234375 -0.828125 0.6875q-0.28125 0.453125 -0.28125 1.0q0 0.84375 0.625 1.40625q0.640625 0.5625 1.875 0.5625q1.21875 0 2.171875 -0.53125q0.953125 -0.53125 1.390625 -1.453125q0.34375 -0.71875 0.34375 -2.109375l0 -0.78125zm5.3945312 6.25l0 -12.453125l1.90625 0l0 1.78125q1.375 -2.0625 3.953125 -2.0625q1.125 0 2.0625 0.40625q0.953125 0.40625 1.421875 1.0625q0.46875 0.65625 0.65625 1.5625q0.125 0.578125 0.125 2.046875l0 7.65625l-2.109375 0l0 -7.578125q0 -1.28125 -0.25 -1.921875q-0.25 -0.640625 -0.875 -1.015625q-0.625 -0.390625 -1.46875 -0.390625q-1.34375 0 -2.328125 0.859375q-0.984375 0.859375 -0.984375 3.25l0 6.796875l-2.109375 0zm12.972656 1.03125l2.046875 0.3125q0.125 0.9375 0.71875 1.375q0.78125 0.59375 2.140625 0.59375q1.46875 0 2.265625 -0.59375q0.796875 -0.578125 1.078125 -1.640625q0.15625 -0.640625 0.140625 -2.703125q-1.375 1.625 -3.4375 1.625q-2.5625 0 -3.96875 -1.84375q-1.40625 -1.859375 -1.40625 -4.453125q0 -1.78125 0.640625 -3.28125q0.640625 -1.515625 1.859375 -2.328125q1.234375 -0.828125 2.890625 -0.828125q2.203125 0 3.625 1.78125l0 -1.5l1.953125 0l0 10.765625q0 2.90625 -0.59375 4.109375q-0.59375 1.21875 -1.875 1.921875q-1.28125 0.703125 -3.15625 0.703125q-2.234375 0 -3.609375 -1.0q-1.359375 -1.0 -1.3125 -3.015625zm1.734375 -7.484375q0 2.453125 0.96875 3.578125q0.984375 1.125 2.453125 1.125q1.453125 0 2.4375 -1.109375q0.984375 -1.125 0.984375 -3.515625q0 -2.28125 -1.015625 -3.4375q-1.015625 -1.171875 -2.453125 -1.171875q-1.40625 0 -2.390625 1.140625q-0.984375 1.140625 -0.984375 3.390625zm20.519531 2.4375l2.171875 0.28125q-0.515625 1.90625 -1.90625 2.96875q-1.390625 1.046875 -3.5625 1.046875q-2.734375 0 -4.34375 -1.671875q-1.59375 -1.6875 -1.59375 -4.734375q0 -3.140625 1.609375 -4.875q1.625 -1.734375 4.203125 -1.734375q2.5 0 4.078125 1.703125q1.59375 1.703125 1.59375 4.78125q0 0.1875 -0.015625 0.5625l-9.28125 0q0.109375 2.046875 1.15625 3.140625q1.046875 1.09375 2.609375 1.09375q1.15625 0 1.96875 -0.609375q0.828125 -0.609375 1.3125 -1.953125zm-6.9375 -3.40625l6.953125 0q-0.140625 -1.5625 -0.796875 -2.359375q-1.0 -1.21875 -2.609375 -1.21875q-1.453125 0 -2.453125 0.984375q-0.984375 0.96875 -1.09375 2.59375zm11.753906 7.421875l0 -12.453125l1.90625 0l0 1.78125q1.375 -2.0625 3.953125 -2.0625q1.125 0 2.0625 0.40625q0.953125 0.40625 1.421875 1.0625q0.46875 0.65625 0.65625 1.5625q0.125 0.578125 0.125 2.046875l0 7.65625l-2.109375 0l0 -7.578125q0 -1.28125 -0.25 -1.921875q-0.25 -0.640625 -0.875 -1.015625q-0.625 -0.390625 -1.46875 -0.390625q-1.34375 0 -2.328125 0.859375q-0.984375 0.859375 -0.984375 3.25l0 6.796875l-2.109375 0zm17.957031 -1.890625l0.3125 1.859375q-0.890625 0.203125 -1.59375 0.203125q-1.15625 0 -1.796875 -0.359375q-0.625 -0.375 -0.890625 -0.96875q-0.25 -0.59375 -0.25 -2.484375l0 -7.171875l-1.546875 0l0 -1.640625l1.546875 0l0 -3.078125l2.09375 -1.265625l0 4.34375l2.125 0l0 1.640625l-2.125 0l0 7.28125q0 0.90625 0.109375 1.171875q0.125 0.25 0.375 0.40625q0.25 0.140625 0.71875 0.140625q0.34375 0 0.921875 -0.078125zm1.2148438 -1.828125l2.09375 -0.328125q0.171875 1.25 0.96875 1.921875q0.8125 0.671875 2.25 0.671875q1.453125 0 2.15625 -0.59375q0.703125 -0.59375 0.703125 -1.390625q0 -0.71875 -0.625 -1.125q-0.421875 -0.28125 -2.15625 -0.71875q-2.3125 -0.578125 -3.21875 -1.0q-0.890625 -0.4375 -1.359375 -1.1875q-0.453125 -0.765625 -0.453125 -1.671875q0 -0.828125 0.375 -1.53125q0.390625 -0.71875 1.046875 -1.1875q0.484375 -0.359375 1.328125 -0.609375q0.859375 -0.265625 1.828125 -0.265625q1.46875 0 2.578125 0.421875q1.109375 0.421875 1.625 1.15625q0.53125 0.71875 0.734375 1.921875l-2.0625 0.28125q-0.140625 -0.96875 -0.8125 -1.5q-0.671875 -0.546875 -1.90625 -0.546875q-1.453125 0 -2.078125 0.484375q-0.625 0.484375 -0.625 1.125q0 0.40625 0.265625 0.734375q0.25 0.34375 0.8125 0.5625q0.3125 0.125 1.859375 0.546875q2.234375 0.59375 3.109375 0.984375q0.890625 0.375 1.390625 1.109375q0.515625 0.71875 0.515625 1.796875q0 1.046875 -0.625 1.984375q-0.609375 0.9375 -1.765625 1.453125q-1.15625 0.5 -2.625 0.5q-2.421875 0 -3.703125 -1.0q-1.265625 -1.015625 -1.625 -3.0z" fill-rule="nonzero"/><path fill="#000000" fill-opacity="0.0" d="m258.03937 187.0c0 -4.4698486 18.385834 -6.703476 36.771667 -8.939697c18.385803 -2.2362213 36.771637 -4.4750366 36.771637 -8.950073" fill-rule="evenodd"/><path stroke="#ff0000" stroke-width="2.0" stroke-linejoin="round" stroke-linecap="butt" d="m258.03937 187.0c0 -4.4698334 18.385834 -6.703476 36.771667 -8.939697c9.192902 -1.118103 18.385803 -2.236847 25.280487 -3.6354675c1.7236938 -0.3496704 3.303711 -0.71681213 4.704193 -1.1057892c0.35012817 -0.09725952 0.6890259 -0.19587708 1.0161438 -0.2959137l0.11779785 -0.036956787" fill-rule="evenodd"/><path fill="#ff0000" stroke="#ff0000" stroke-width="2.0" stroke-linecap="butt" d="m325.92963 172.98618l-0.5831299 3.126892l3.8247375 -5.349457l-6.368469 1.6394043z" fill-rule="evenodd"/><path fill="#000000" fill-opacity="0.0" d="m258.03937 216.10236c0 20.646957 36.81891 39.25847 73.63779 41.293884c36.81891 2.035431 73.63782 -12.505203 73.63782 -25.010406" fill-rule="evenodd"/><path stroke="#ff0000" stroke-width="2.0" stroke-linejoin="round" stroke-linecap="butt" d="m258.03937 216.10236c0 20.646942 36.81891 39.258453 73.63779 41.293884c18.409454 1.0177307 36.81891 -2.1085968 50.626007 -7.052475c3.4517517 -1.2359619 6.6158752 -2.5855255 9.420441 -4.0123444c1.4023132 -0.7134094 2.7146912 -1.4461212 3.9281921 -2.1936188c0.606781 -0.37374878 1.1888123 -0.7511749 1.7449951 -1.1317596c0.27807617 -0.19026184 0.54974365 -0.3813324 0.8147888 -0.5730896l0.2591858 -0.19029236" fill-rule="evenodd"/><path fill="#ff0000" stroke="#ff0000" stroke-width="2.0" stroke-linecap="butt" d="m401.18427 244.12679l2.4631042 -9.33934l-7.8900757 5.5710907z" fill-rule="evenodd"/><path fill="#000000" fill-opacity="0.0" d="m317.0 201.55118c81.02362 0 162.04724 -16.220474 162.04724 -32.44095" fill-rule="evenodd"/><path stroke="#ff0000" stroke-width="2.0" stroke-linejoin="round" stroke-linecap="butt" d="m317.0 201.55118c40.51181 0 81.02362 -4.0551147 111.40747 -10.137787c15.191925 -3.0413513 27.851868 -6.589569 36.713837 -10.391251c2.2154846 -0.95040894 4.1936035 -1.9166565 5.9145813 -2.894806l0.056427002 -0.03274536" fill-rule="evenodd"/><path fill="#ff0000" stroke="#ff0000" stroke-width="2.0" stroke-linecap="butt" d="m473.56558 180.28452l3.5434265 -8.9852295l-8.490021 4.6054077z" fill-rule="evenodd"/></g></svg>
