<svg version="1.1" viewBox="0.0 0.0 560.0 420.0" fill="none" stroke="none" stroke-linecap="square" stroke-miterlimit="10" xmlns:xlink="http://www.w3.org/1999/xlink" xmlns="http://www.w3.org/2000/svg"><clipPath id="g311dd88407a_0_0.0"><path d="m0 0l960.0 0l0 540.0l-960.0 0l0 -540.0z" clip-rule="nonzero"/></clipPath><g clip-path="url(#g311dd88407a_0_0.0)"><path fill="#ffffff" d="m0 0l960.0 0l0 540.0l-960.0 0z" fill-rule="evenodd"/><path fill="#000000" fill-opacity="0.0" d="m121.178474 110.37795l0 0c0 -43.895767 36.27552 -79.480316 81.02363 -79.480316l0 0c21.4888 0 42.097473 8.373793 57.292343 23.279245c15.194885 14.905453 23.731262 35.12158 23.731262 56.20107l0 0c0 43.89576 -36.275497 79.48031 -81.023605 79.48031l0 0c-44.748108 0 -81.02363 -35.58455 -81.02363 -79.48031z" fill-rule="evenodd"/><path stroke="#595959" stroke-width="1.0" stroke-linejoin="round" stroke-linecap="butt" d="m121.178474 110.37795l0 0c0 -43.895767 36.27552 -79.480316 81.02363 -79.480316l0 0c21.4888 0 42.097473 8.373793 57.292343 23.279245c15.194885 14.905453 23.731262 35.12158 23.731262 56.20107l0 0c0 43.89576 -36.275497 79.48031 -81.023605 79.48031l0 0c-44.748108 0 -81.02363 -35.58455 -81.02363 -79.48031z" fill-rule="evenodd"/><path fill="#000000" fill-opacity="0.0" d="m147.15364 85.729256l0 0c0 -13.289627 10.773376 -24.062992 24.062988 -24.062992l0 0c6.381912 0 12.502426 2.5351982 17.015106 7.047886c4.5126953 4.5126877 7.0478973 10.633202 7.0478973 17.015106l0 0c0 13.289619 -10.773376 24.062988 -24.063004 24.062988l0 0c-13.289612 0 -24.062988 -10.773369 -24.062988 -24.062988z" fill-rule="evenodd"/><path stroke="#595959" stroke-width="1.0" stroke-linejoin="round" stroke-linecap="butt" d="m147.15364 85.729256l0 0c0 -13.289627 10.773376 -24.062992 24.062988 -24.062992l0 0c6.381912 0 12.502426 2.5351982 17.015106 7.047886c4.5126953 4.5126877 7.0478973 10.633202 7.0478973 17.015106l0 0c0 13.289619 -10.773376 24.062988 -24.063004 24.062988l0 0c-13.289612 0 -24.062988 -10.773369 -24.062988 -24.062988z" fill-rule="evenodd"/><path fill="#000000" d="m155.75548 87.82488l1.25 -0.171875q0.046875 1.203125 0.453125 1.65625q0.40625 0.4375 1.109375 0.4375q0.515625 0 0.890625 -0.234375q0.390625 -0.234375 0.53125 -0.640625q0.140625 -0.421875 0.140625 -1.328125l0 -7.21875l1.390625 0l0 7.140625q0 1.3125 -0.328125 2.046875q-0.3125 0.71875 -1.0 1.09375q-0.6875 0.375 -1.625 0.375q-1.375 0 -2.109375 -0.78125q-0.734375 -0.796875 -0.703125 -2.375z" fill-rule="nonzero"/><path fill="#000000" d="m166.61485 95.68426q-0.484375 0.40625 -0.921875 0.578125q-0.4375 0.15625 -0.953125 0.15625q-0.828125 0 -1.28125 -0.40625q-0.4375 -0.40625 -0.4375 -1.03125q0 -0.375 0.15625 -0.6875q0.171875 -0.3125 0.4375 -0.484375q0.28125 -0.1875 0.625 -0.296875q0.25 -0.0625 0.765625 -0.125q1.046875 -0.125 1.53125 -0.296875q0 -0.171875 0 -0.21875q0 -0.53125 -0.234375 -0.734375q-0.328125 -0.296875 -0.984375 -0.296875q-0.59375 0 -0.890625 0.21875q-0.28125 0.203125 -0.421875 0.75l-0.84375 -0.125q0.109375 -0.53125 0.375 -0.859375q0.265625 -0.34375 0.75 -0.515625q0.5 -0.171875 1.15625 -0.171875q0.65625 0 1.0625 0.15625q0.40625 0.140625 0.59375 0.375q0.1875 0.234375 0.265625 0.578125q0.046875 0.21875 0.046875 0.796875l0 1.140625q0 1.203125 0.046875 1.515625q0.0625 0.3125 0.21875 0.609375l-0.890625 0q-0.140625 -0.265625 -0.171875 -0.625zm-0.078125 -1.921875q-0.46875 0.203125 -1.40625 0.328125q-0.515625 0.078125 -0.75 0.171875q-0.21875 0.09375 -0.34375 0.28125q-0.109375 0.1875 -0.109375 0.40625q0 0.34375 0.25 0.578125q0.265625 0.21875 0.765625 0.21875q0.5 0 0.890625 -0.203125q0.390625 -0.21875 0.5625 -0.609375q0.140625 -0.28125 0.140625 -0.859375l0 -0.3125zm4.712433 2.546875l0 -1.671875l-3.03125 0l0 -0.78125l3.1875 -4.53125l0.703125 0l0 4.53125l0.9375 0l0 0.78125l-0.9375 0l0 1.671875l-0.859375 0zm0 -2.453125l0 -3.15625l-2.1875 3.15625l2.1875 0zm3.1499329 2.453125l0 -0.984375l0.96875 0l0 0.984375q0 0.53125 -0.1875 0.859375q-0.1875 0.34375 -0.609375 0.53125l-0.234375 -0.375q0.265625 -0.125 0.390625 -0.359375q0.140625 -0.21875 0.15625 -0.65625l-0.484375 0zm5.791336 -0.625q-0.484375 0.40625 -0.921875 0.578125q-0.4375 0.15625 -0.953125 0.15625q-0.828125 0 -1.28125 -0.40625q-0.4375 -0.40625 -0.4375 -1.03125q0 -0.375 0.15625 -0.6875q0.171875 -0.3125 0.4375 -0.484375q0.28125 -0.1875 0.625 -0.296875q0.25 -0.0625 0.765625 -0.125q1.046875 -0.125 1.53125 -0.296875q0 -0.171875 0 -0.21875q0 -0.53125 -0.234375 -0.734375q-0.328125 -0.296875 -0.984375 -0.296875q-0.59375 0 -0.890625 0.21875q-0.28125 0.203125 -0.421875 0.75l-0.84375 -0.125q0.109375 -0.53125 0.375 -0.859375q0.265625 -0.34375 0.75 -0.515625q0.5 -0.171875 1.15625 -0.171875q0.65625 0 1.0625 0.15625q0.40625 0.140625 0.59375 0.375q0.1875 0.234375 0.265625 0.578125q0.046875 0.21875 0.046875 0.796875l0 1.140625q0 1.203125 0.046875 1.515625q0.0625 0.3125 0.21875 0.609375l-0.890625 0q-0.140625 -0.265625 -0.171875 -0.625zm-0.078125 -1.921875q-0.46875 0.203125 -1.40625 0.328125q-0.515625 0.078125 -0.75 0.171875q-0.21875 0.09375 -0.34375 0.28125q-0.109375 0.1875 -0.109375 0.40625q0 0.34375 0.25 0.578125q0.265625 0.21875 0.765625 0.21875q0.5 0 0.890625 -0.203125q0.390625 -0.21875 0.5625 -0.609375q0.140625 -0.28125 0.140625 -0.859375l0 -0.3125zm1.9624329 0.703125l0.859375 -0.109375q0.15625 0.71875 0.5 1.046875q0.359375 0.3125 0.875 0.3125q0.609375 0 1.015625 -0.40625q0.421875 -0.421875 0.421875 -1.046875q0 -0.59375 -0.390625 -0.96875q-0.390625 -0.390625 -0.984375 -0.390625q-0.234375 0 -0.59375 0.09375l0.09375 -0.75q0.078125 0.015625 0.140625 0.015625q0.546875 0 0.984375 -0.28125q0.4375 -0.296875 0.4375 -0.890625q0 -0.46875 -0.328125 -0.78125q-0.3125 -0.3125 -0.8125 -0.3125q-0.515625 0 -0.84375 0.3125q-0.328125 0.3125 -0.421875 0.953125l-0.859375 -0.15625q0.15625 -0.859375 0.703125 -1.328125q0.5625 -0.484375 1.390625 -0.484375q0.578125 0 1.0625 0.25q0.484375 0.234375 0.734375 0.671875q0.25 0.421875 0.25 0.890625q0 0.453125 -0.25 0.828125q-0.234375 0.375 -0.703125 0.59375q0.609375 0.140625 0.953125 0.59375q0.34375 0.453125 0.34375 1.125q0 0.90625 -0.671875 1.546875q-0.65625 0.640625 -1.6875 0.640625q-0.90625 0 -1.515625 -0.546875q-0.609375 -0.546875 -0.703125 -1.421875z" fill-rule="nonzero"/><path fill="#000000" fill-opacity="0.0" d="m210.08572 132.84514l0 0c0 -13.289619 10.773361 -24.062988 24.062988 -24.062988l0 0c6.381897 0 12.502411 2.535202 17.015106 7.0478897c4.51268 4.5126877 7.047882 10.633202 7.047882 17.015099l0 0c0 13.289627 -10.773361 24.063004 -24.062988 24.063004l0 0c-13.289627 0 -24.062988 -10.773376 -24.062988 -24.063004z" fill-rule="evenodd"/><path stroke="#595959" stroke-width="1.0" stroke-linejoin="round" stroke-linecap="butt" d="m210.08572 132.84514l0 0c0 -13.289619 10.773361 -24.062988 24.062988 -24.062988l0 0c6.381897 0 12.502411 2.535202 17.015106 7.0478897c4.51268 4.5126877 7.047882 10.633202 7.047882 17.015099l0 0c0 13.289627 -10.773361 24.063004 -24.062988 24.063004l0 0c-13.289627 0 -24.062988 -10.773376 -24.062988 -24.063004z" fill-rule="evenodd"/><path fill="#000000" d="m217.87692 134.94077l1.25 -0.171875q0.046875 1.203125 0.453125 1.65625q0.40625 0.4375 1.109375 0.4375q0.515625 0 0.890625 -0.234375q0.390625 -0.234375 0.53125 -0.640625q0.140625 -0.421875 0.140625 -1.328125l0 -7.21875l1.390625 0l0 7.140625q0 1.3125 -0.328125 2.046875q-0.3125 0.71875 -1.0 1.09375q-0.6875 0.375 -1.625 0.375q-1.375 0 -2.109375 -0.78125q-0.734375 -0.796875 -0.703125 -2.375z" fill-rule="nonzero"/><path fill="#000000" d="m228.7363 142.80014q-0.484375 0.40625 -0.921875 0.578125q-0.4375 0.15625 -0.953125 0.15625q-0.828125 0 -1.28125 -0.40625q-0.4375 -0.40625 -0.4375 -1.03125q0 -0.375 0.15625 -0.6875q0.171875 -0.3125 0.4375 -0.484375q0.28125 -0.1875 0.625 -0.296875q0.25 -0.0625 0.765625 -0.125q1.046875 -0.125 1.53125 -0.296875q0 -0.171875 0 -0.21875q0 -0.53125 -0.234375 -0.734375q-0.328125 -0.296875 -0.984375 -0.296875q-0.59375 0 -0.890625 0.21875q-0.28125 0.203125 -0.421875 0.75l-0.84375 -0.125q0.109375 -0.53125 0.375 -0.859375q0.265625 -0.34375 0.75 -0.515625q0.5 -0.171875 1.15625 -0.171875q0.65625 0 1.0625 0.15625q0.40625 0.140625 0.59375 0.375q0.1875 0.234375 0.265625 0.578125q0.046875 0.21875 0.046875 0.796875l0 1.140625q0 1.203125 0.046875 1.515625q0.0625 0.3125 0.21875 0.609375l-0.890625 0q-0.140625 -0.265625 -0.171875 -0.625zm-0.078125 -1.921875q-0.46875 0.203125 -1.40625 0.328125q-0.515625 0.078125 -0.75 0.171875q-0.21875 0.09375 -0.34375 0.28125q-0.109375 0.1875 -0.109375 0.40625q0 0.34375 0.25 0.578125q0.265625 0.21875 0.765625 0.21875q0.5 0 0.890625 -0.203125q0.390625 -0.21875 0.5625 -0.609375q0.140625 -0.28125 0.140625 -0.859375l0 -0.3125zm4.712433 2.546875l0 -1.671875l-3.03125 0l0 -0.78125l3.1875 -4.53125l0.703125 0l0 4.53125l0.9375 0l0 0.78125l-0.9375 0l0 1.671875l-0.859375 0zm0 -2.453125l0 -3.15625l-2.1875 3.15625l2.1875 0zm3.1499329 2.453125l0 -0.984375l0.96875 0l0 0.984375q0 0.53125 -0.1875 0.859375q-0.1875 0.34375 -0.609375 0.53125l-0.234375 -0.375q0.265625 -0.125 0.390625 -0.359375q0.140625 -0.21875 0.15625 -0.65625l-0.484375 0zm3.416336 0l-1.546875 -5.0625l0.890625 0l0.796875 2.921875l0.296875 1.09375q0.03125 -0.09375 0.265625 -1.046875l0.8125 -2.96875l0.875 0l0.765625 2.9375l0.25 0.96875l0.296875 -0.984375l0.859375 -2.921875l0.828125 0l-1.578125 5.0625l-0.890625 0l-0.796875 -3.03125l-0.203125 -0.859375l-1.03125 3.890625l-0.890625 0zm5.880554 -1.84375l0.859375 -0.109375q0.15625 0.71875 0.5 1.046875q0.359375 0.3125 0.875 0.3125q0.609375 0 1.015625 -0.40625q0.421875 -0.421875 0.421875 -1.046875q0 -0.59375 -0.390625 -0.96875q-0.390625 -0.390625 -0.984375 -0.390625q-0.234375 0 -0.59375 0.09375l0.09375 -0.75q0.078125 0.015625 0.140625 0.015625q0.546875 0 0.984375 -0.28125q0.4375 -0.296875 0.4375 -0.890625q0 -0.46875 -0.328125 -0.78125q-0.3125 -0.3125 -0.8125 -0.3125q-0.515625 0 -0.84375 0.3125q-0.328125 0.3125 -0.421875 0.953125l-0.859375 -0.15625q0.15625 -0.859375 0.703125 -1.328125q0.5625 -0.484375 1.390625 -0.484375q0.578125 0 1.0625 0.25q0.484375 0.234375 0.734375 0.671875q0.25 0.421875 0.25 0.890625q0 0.453125 -0.25 0.828125q-0.234375 0.375 -0.703125 0.59375q0.609375 0.140625 0.953125 0.59375q0.34375 0.453125 0.34375 1.125q0 0.90625 -0.671875 1.546875q-0.65625 0.640625 -1.6875 0.640625q-0.90625 0 -1.515625 -0.546875q-0.609375 -0.546875 -0.703125 -1.421875z" fill-rule="nonzero"/><path fill="#000000" fill-opacity="0.0" d="m335.79855 92.55017l43.212585 0l0 34.992126l-43.212585 0z" fill-rule="evenodd"/><path stroke="#595959" stroke-width="1.0" stroke-linejoin="round" stroke-linecap="butt" d="m335.79855 92.55017l43.212585 0l0 34.992126l-43.212585 0z" fill-rule="evenodd"/><path fill="#000000" d="m353.8725 114.96623l-13.671875 0l6.5625 -12.875l0.625 0l6.484375 12.875zm-3.453125 -0.75l-4.5 -8.90625l-4.53125 8.90625l9.03125 0z" fill-rule="nonzero"/><path fill="#000000" d="m361.6576 113.77873q-0.921875 0.765625 -1.765625 1.09375q-0.828125 0.3125 -1.796875 0.3125q-1.59375 0 -2.453125 -0.78125q-0.859375 -0.78125 -0.859375 -1.984375q0 -0.71875 0.328125 -1.296875q0.328125 -0.59375 0.84375 -0.9375q0.53125 -0.359375 1.1875 -0.546875q0.46875 -0.125 1.453125 -0.25q1.984375 -0.234375 2.921875 -0.5625q0.015625 -0.34375 0.015625 -0.421875q0 -1.0 -0.46875 -1.421875q-0.625 -0.546875 -1.875 -0.546875q-1.15625 0 -1.703125 0.40625q-0.546875 0.40625 -0.8125 1.421875l-1.609375 -0.21875q0.21875 -1.015625 0.71875 -1.640625q0.5 -0.640625 1.453125 -0.984375q0.953125 -0.34375 2.1875 -0.34375q1.25 0 2.015625 0.296875q0.78125 0.28125 1.140625 0.734375q0.375 0.4375 0.515625 1.109375q0.078125 0.421875 0.078125 1.515625l0 2.1875q0 2.28125 0.109375 2.890625q0.109375 0.59375 0.40625 1.15625l-1.703125 0q-0.265625 -0.515625 -0.328125 -1.1875zm-0.140625 -3.671875q-0.890625 0.375 -2.671875 0.625q-1.015625 0.140625 -1.4375 0.328125q-0.421875 0.1875 -0.65625 0.53125q-0.21875 0.34375 -0.21875 0.78125q0 0.65625 0.5 1.09375q0.5 0.4375 1.453125 0.4375q0.9375 0 1.671875 -0.40625q0.75 -0.421875 1.09375 -1.140625q0.265625 -0.5625 0.265625 -1.640625l0 -0.609375z" fill-rule="nonzero"/><path fill="#000000" d="m368.50204 121.96623l0 -2.125l-3.859375 0l0 -1.015625l4.0625 -5.765625l0.890625 0l0 5.765625l1.203125 0l0 1.015625l-1.203125 0l0 2.125l-1.09375 0zm0 -3.140625l0 -4.0l-2.78125 4.0l2.78125 0z" fill-rule="nonzero"/><path fill="#000000" d="m374.6067 106.98186l0.15625 0.96875q-0.453125 0.09375 -0.828125 0.09375q-0.59375 0 -0.921875 -0.1875q-0.328125 -0.1875 -0.46875 -0.484375q-0.125 -0.3125 -0.125 -1.296875l0 -3.703125l-0.796875 0l0 -0.859375l0.796875 0l0 -1.59375l1.09375 -0.65625l0 2.25l1.09375 0l0 0.859375l-1.09375 0l0 3.765625q0 0.46875 0.046875 0.609375q0.0625 0.125 0.1875 0.203125q0.140625 0.078125 0.390625 0.078125q0.171875 0 0.46875 -0.046875z" fill-rule="nonzero"/><path fill="#000000" fill-opacity="0.0" d="m28.325045 93.1912l43.2126 0l0 34.99212l-43.2126 0z" fill-rule="evenodd"/><path stroke="#595959" stroke-width="1.0" stroke-linejoin="round" stroke-linecap="butt" d="m28.325045 93.1912l43.2126 0l0 34.99212l-43.2126 0z" fill-rule="evenodd"/><path fill="#000000" d="m48.12674 115.60726l-13.671875 0l6.5625 -12.875l0.625 0l6.484375 12.875zm-3.453125 -0.75l-4.5 -8.90625l-4.53125 8.90625l9.03125 0z" fill-rule="nonzero"/><path fill="#000000" d="m55.911835 114.41976q-0.921875 0.765625 -1.765625 1.09375q-0.828125 0.3125 -1.796875 0.3125q-1.59375 0 -2.453125 -0.78125q-0.859375 -0.78125 -0.859375 -1.984375q0 -0.71875 0.328125 -1.296875q0.328125 -0.59375 0.84375 -0.9375q0.53125 -0.359375 1.1875 -0.546875q0.46875 -0.125 1.453125 -0.25q1.984375 -0.234375 2.921875 -0.5625q0.015625 -0.34375 0.015625 -0.421875q0 -1.0 -0.46875 -1.421875q-0.625 -0.546875 -1.875 -0.546875q-1.15625 0 -1.703125 0.40625q-0.546875 0.40625 -0.8125 1.421875l-1.609375 -0.21875q0.21875 -1.015625 0.71875 -1.640625q0.5 -0.640625 1.453125 -0.984375q0.953125 -0.34375 2.1875 -0.34375q1.25 0 2.015625 0.296875q0.78125 0.28125 1.140625 0.734375q0.375 0.4375 0.515625 1.109375q0.078125 0.421875 0.078125 1.515625l0 2.1875q0 2.28125 0.109375 2.890625q0.109375 0.59375 0.40625 1.15625l-1.703125 0q-0.265625 -0.515625 -0.328125 -1.1875zm-0.140625 -3.671875q-0.890625 0.375 -2.671875 0.625q-1.015625 0.140625 -1.4375 0.328125q-0.421875 0.1875 -0.65625 0.53125q-0.21875 0.34375 -0.21875 0.78125q0 0.65625 0.5 1.09375q0.5 0.4375 1.453125 0.4375q0.9375 0 1.671875 -0.40625q0.75 -0.421875 1.09375 -1.140625q0.265625 -0.5625 0.265625 -1.640625l0 -0.609375z" fill-rule="nonzero"/><path fill="#000000" d="m59.2563 120.26351l1.0937538 -0.15625q0.1875 0.9375 0.640625 1.34375q0.453125 0.40625 1.109375 0.40625q0.765625 0 1.296875 -0.53125q0.53125 -0.53125 0.53125 -1.328125q0 -0.75 -0.5 -1.234375q-0.484375 -0.5 -1.234375 -0.5q-0.3125 0 -0.78125 0.125l0.125 -0.953125q0.109375 0.015625 0.171875 0.015625q0.703125 0 1.265625 -0.359375q0.5625 -0.375 0.5625 -1.140625q0 -0.59375 -0.40625 -0.984375q-0.40625 -0.40625 -1.0625 -0.40625q-0.625 0 -1.0625 0.40625q-0.421875 0.40625 -0.546875 1.203125l-1.0937538 -0.1875q0.203125 -1.109375 0.90625 -1.703125q0.7187538 -0.609375 1.7812538 -0.609375q0.71875 0 1.328125 0.3125q0.6249962 0.3125 0.9531212 0.859375q0.328125 0.53125 0.328125 1.140625q0 0.578125 -0.3125 1.0625q-0.3125 0.46875 -0.9218712 0.734375q0.7968712 0.1875 1.2343712 0.765625q0.4375 0.578125 0.4375 1.4375q0 1.15625 -0.859375 1.96875q-0.8437462 0.8125 -2.1406212 0.8125q-1.171875 0 -1.9531288 -0.6875q-0.78125 -0.703125 -0.890625 -1.8125z" fill-rule="nonzero"/><path fill="#000000" fill-opacity="0.0" d="m28.325115 272.39633l43.212597 0l0 34.992126l-43.212597 0z" fill-rule="evenodd"/><path stroke="#595959" stroke-width="1.0" stroke-linejoin="round" stroke-linecap="butt" d="m28.325115 272.39633l43.212597 0l0 34.992126l-43.212597 0z" fill-rule="evenodd"/><path fill="#000000" d="m47.104088 291.12488q-0.921875 0.765625 -1.765625 1.09375q-0.828125 0.3125 -1.796875 0.3125q-1.59375 0 -2.453125 -0.78125q-0.859375 -0.78125 -0.859375 -1.984375q0 -0.71875 0.328125 -1.296875q0.328125 -0.59375 0.84375 -0.9375q0.53125 -0.359375 1.1875 -0.546875q0.46875 -0.125 1.453125 -0.25q1.984375 -0.234375 2.921875 -0.5625q0.015625 -0.34375 0.015625 -0.421875q0 -1.0 -0.46875 -1.421875q-0.625 -0.546875 -1.875 -0.546875q-1.15625 0 -1.703125 0.40625q-0.546875 0.40625 -0.8125 1.421875l-1.609375 -0.21875q0.21875 -1.015625 0.71875 -1.640625q0.5 -0.640625 1.453125 -0.984375q0.953125 -0.34375 2.1875 -0.34375q1.25 0 2.015625 0.296875q0.78125 0.28125 1.140625 0.734375q0.375 0.4375 0.515625 1.109375q0.078125 0.421875 0.078125 1.515625l0 2.1875q0 2.28125 0.109375 2.890625q0.109375 0.59375 0.40625 1.15625l-1.703125 0q-0.265625 -0.515625 -0.328125 -1.1875zm-0.140625 -3.671875q-0.890625 0.375 -2.671875 0.625q-1.015625 0.140625 -1.4375 0.328125q-0.421875 0.1875 -0.65625 0.53125q-0.21875 0.34375 -0.21875 0.78125q0 0.65625 0.5 1.09375q0.5 0.4375 1.453125 0.4375q0.9375 0 1.671875 -0.40625q0.75 -0.421875 1.09375 -1.140625q0.265625 -0.5625 0.265625 -1.640625l0 -0.609375z" fill-rule="nonzero"/><path fill="#000000" d="m50.448555 296.96863l1.09375 -0.15625q0.1875 0.9375 0.640625 1.34375q0.453125 0.40625 1.109375 0.40625q0.765625 0 1.296875 -0.53125q0.53125 -0.53125 0.53125 -1.328125q0 -0.75 -0.5 -1.234375q-0.484375 -0.5 -1.234375 -0.5q-0.3125 0 -0.78125 0.125l0.125 -0.953125q0.109375 0.015625 0.171875 0.015625q0.703125 0 1.265625 -0.359375q0.5625 -0.375 0.5625 -1.140625q0 -0.59375 -0.40625 -0.984375q-0.40625 -0.40625 -1.0625 -0.40625q-0.625 0 -1.0625 0.40625q-0.421875 0.40625 -0.546875 1.203125l-1.09375 -0.1875q0.203125 -1.109375 0.90625 -1.703125q0.71875 -0.609375 1.78125 -0.609375q0.71875 0 1.328125 0.3125q0.625 0.3125 0.953125 0.859375q0.328125 0.53125 0.328125 1.140625q0 0.578125 -0.3125 1.0625q-0.3125 0.46875 -0.921875 0.734375q0.796875 0.1875 1.234375 0.765625q0.4375 0.578125 0.4375 1.4375q0 1.15625 -0.859375 1.96875q-0.84375 0.8125 -2.140625 0.8125q-1.171875 0 -1.953125 -0.6875q-0.78125 -0.703125 -0.890625 -1.8125z" fill-rule="nonzero"/><path fill="#000000" d="m60.0532 284.328l0.15625 0.96875q-0.453125 0.09375 -0.828125 0.09375q-0.59375 0 -0.921875 -0.1875q-0.328125 -0.1875 -0.46875 -0.484375q-0.125 -0.3125 -0.125 -1.296875l0 -3.703125l-0.796875 0l0 -0.859375l0.796875 0l0 -1.59375l1.09375 -0.65625l0 2.25l1.09375 0l0 0.859375l-1.09375 0l0 3.765625q0 0.46875 0.046875 0.609375q0.0625 0.125 0.1875 0.203125q0.140625 0.078125 0.390625 0.078125q0.171875 0 0.46875 -0.046875z" fill-rule="nonzero"/><path fill="#000000" fill-opacity="0.0" d="m181.73961 343.6719l46.771652 0l0 37.88977l-46.771652 0z" fill-rule="evenodd"/><path stroke="#595959" stroke-width="1.0" stroke-linejoin="round" stroke-linecap="butt" d="m181.73961 343.6719l46.771652 0l0 37.88977l-46.771652 0z" fill-rule="evenodd"/><path fill="#000000" d="m196.21825 367.5368l-2.96875 -9.671875l1.703125 0l1.53125 5.578125l0.578125 2.078125q0.046875 -0.15625 0.5 -2.0l1.546875 -5.65625l1.6875 0l1.4375 5.609375l0.484375 1.84375l0.5625 -1.859375l1.65625 -5.59375l1.59375 0l-3.03125 9.671875l-1.703125 0l-1.53125 -5.796875l-0.375 -1.640625l-1.953125 7.4375l-1.71875 0z" fill-rule="nonzero"/><path fill="#000000" d="m207.1912 372.19305l1.09375 -0.15625q0.1875 0.9375 0.640625 1.34375q0.453125 0.40625 1.109375 0.40625q0.765625 0 1.296875 -0.53125q0.53125 -0.53125 0.53125 -1.328125q0 -0.75 -0.5 -1.234375q-0.484375 -0.5 -1.234375 -0.5q-0.3125 0 -0.78125 0.125l0.125 -0.953125q0.109375 0.015625 0.171875 0.015625q0.703125 0 1.265625 -0.359375q0.5625 -0.375 0.5625 -1.140625q0 -0.59375 -0.40625 -0.984375q-0.40625 -0.40625 -1.0625 -0.40625q-0.625 0 -1.0625 0.40625q-0.421875 0.40625 -0.546875 1.203125l-1.09375 -0.1875q0.203125 -1.109375 0.90625 -1.703125q0.71875 -0.609375 1.78125 -0.609375q0.71875 0 1.328125 0.3125q0.625 0.3125 0.953125 0.859375q0.328125 0.53125 0.328125 1.140625q0 0.578125 -0.3125 1.0625q-0.3125 0.46875 -0.921875 0.734375q0.796875 0.1875 1.234375 0.765625q0.4375 0.578125 0.4375 1.4375q0 1.15625 -0.859375 1.96875q-0.84375 0.8125 -2.140625 0.8125q-1.171875 0 -1.953125 -0.6875q-0.78125 -0.703125 -0.890625 -1.8125z" fill-rule="nonzero"/><path fill="#000000" d="m216.79584 359.55243l0.15625 0.96875q-0.453125 0.09375 -0.828125 0.09375q-0.59375 0 -0.921875 -0.1875q-0.328125 -0.1875 -0.46875 -0.484375q-0.125 -0.3125 -0.125 -1.296875l0 -3.703125l-0.796875 0l0 -0.859375l0.796875 0l0 -1.59375l1.09375 -0.65625l0 2.25l1.09375 0l0 0.859375l-1.09375 0l0 3.765625q0 0.46875 0.046875 0.609375q0.0625 0.125 0.1875 0.203125q0.140625 0.078125 0.390625 0.078125q0.171875 0 0.46875 -0.046875z" fill-rule="nonzero"/><path fill="#000000" fill-opacity="0.0" d="m181.73961 247.67192l46.771652 0l0 37.889755l-46.771652 0z" fill-rule="evenodd"/><path stroke="#595959" stroke-width="1.0" stroke-linejoin="round" stroke-linecap="butt" d="m181.73961 247.67192l46.771652 0l0 37.889755l-46.771652 0z" fill-rule="evenodd"/><path fill="#000000" d="m200.04445 271.5368l-13.671875 0l6.5625 -12.875l0.625 0l6.484375 12.875zm-3.453125 -0.75l-4.5 -8.90625l-4.53125 8.90625l9.03125 0z" fill-rule="nonzero"/><path fill="#000000" d="m203.2983 271.5368l-2.96875 -9.671875l1.703125 0l1.53125 5.578125l0.578125 2.078125q0.046875 -0.15625 0.5 -2.0l1.546875 -5.65625l1.6875 0l1.4375 5.609375l0.484375 1.84375l0.5625 -1.859375l1.65625 -5.59375l1.59375 0l-3.03125 9.671875l-1.703125 0l-1.53125 -5.796875l-0.375 -1.640625l-1.953125 7.4375l-1.71875 0z" fill-rule="nonzero"/><path fill="#000000" d="m214.27124 276.19305l1.09375 -0.15625q0.1875 0.9375 0.640625 1.34375q0.453125 0.40625 1.109375 0.40625q0.765625 0 1.296875 -0.53125q0.53125 -0.53125 0.53125 -1.328125q0 -0.75 -0.5 -1.234375q-0.484375 -0.5 -1.234375 -0.5q-0.3125 0 -0.78125 0.125l0.125 -0.953125q0.109375 0.015625 0.171875 0.015625q0.703125 0 1.265625 -0.359375q0.5625 -0.375 0.5625 -1.140625q0 -0.59375 -0.40625 -0.984375q-0.40625 -0.40625 -1.0625 -0.40625q-0.625 0 -1.0625 0.40625q-0.421875 0.40625 -0.546875 1.203125l-1.09375 -0.1875q0.203125 -1.109375 0.90625 -1.703125q0.71875 -0.609375 1.78125 -0.609375q0.71875 0 1.328125 0.3125q0.625 0.3125 0.953125 0.859375q0.328125 0.53125 0.328125 1.140625q0 0.578125 -0.3125 1.0625q-0.3125 0.46875 -0.921875 0.734375q0.796875 0.1875 1.234375 0.765625q0.4375 0.578125 0.4375 1.4375q0 1.15625 -0.859375 1.96875q-0.84375 0.8125 -2.140625 0.8125q-1.171875 0 -1.953125 -0.6875q-0.78125 -0.703125 -0.890625 -1.8125z" fill-rule="nonzero"/><path fill="#000000" d="m223.87589 263.55243l0.15625 0.96875q-0.453125 0.09375 -0.828125 0.09375q-0.59375 0 -0.921875 -0.1875q-0.328125 -0.1875 -0.46875 -0.484375q-0.125 -0.3125 -0.125 -1.296875l0 -3.703125l-0.796875 0l0 -0.859375l0.796875 0l0 -1.59375l1.09375 -0.65626526l0 2.2500153l1.09375 0l0 0.859375l-1.09375 0l0 3.765625q0 0.46875 0.046875 0.609375q0.0625 0.125 0.1875 0.203125q0.140625 0.078125 0.390625 0.078125q0.171875 0 0.46875 -0.046875z" fill-rule="nonzero"/><path fill="#000000" fill-opacity="0.0" d="m121.178474 110.37795l-49.637794 0.3149643" fill-rule="evenodd"/><path stroke="#595959" stroke-width="1.0" stroke-linejoin="round" stroke-linecap="butt" d="m121.178474 110.37795l-46.210777 0.2932129" fill-rule="evenodd"/><path fill="#595959" stroke="#595959" stroke-width="1.0" stroke-linecap="butt" d="m74.9677 110.671165l1.1174316 -1.131691l-3.082573 1.144165l3.09684 1.1049576z" fill-rule="evenodd"/><path fill="#000000" fill-opacity="0.0" d="m335.79855 110.046234l-52.566925 0.34645844" fill-rule="evenodd"/><path stroke="#595959" stroke-width="1.0" stroke-linejoin="round" stroke-linecap="butt" d="m335.79855 110.046234l-52.566925 0.34645844" fill-rule="evenodd"/><path fill="#000000" fill-opacity="0.0" d="m202.2021 189.85826l2.9291382 57.826782" fill-rule="evenodd"/><path stroke="#595959" stroke-width="1.0" stroke-linejoin="round" stroke-linecap="butt" d="m202.2021 189.85826l2.7557526 54.404083" fill-rule="evenodd"/><path fill="#595959" stroke="#595959" stroke-width="1.0" stroke-linecap="butt" d="m204.95786 244.26234l-1.1800232 -1.0662537l1.2794495 3.0289154l0.9668274 -3.1427002z" fill-rule="evenodd"/><path fill="#000000" fill-opacity="0.0" d="m152.28084 100.12861c-1.3888855 0.74759674 -5.2353363 3.096672 -8.333328 4.485565c-3.097992 1.3888855 -6.51532 2.885826 -10.254593 3.8477707c-3.7392883 0.96193695 -10.150925 1.6032333 -12.181107 1.9238815" fill-rule="evenodd"/><path stroke="#595959" stroke-width="1.0" stroke-linejoin="round" stroke-linecap="butt" d="m152.28084 100.12861c-1.3888855 0.74759674 -5.2353363 3.096672 -8.333328 4.485565c-3.097992 1.3888855 -6.51532 2.885826 -10.254593 3.8477707c-3.7392883 0.96193695 -10.150925 1.6032333 -12.181107 1.9238815" fill-rule="evenodd"/><path fill="#000000" fill-opacity="0.0" d="m224.35957 154.4252c-1.2292175 1.434372 -4.8482056 5.6688538 -7.3753204 8.606293c-2.5271301 2.9374542 -6.011368 6.5590515 -7.7873993 9.018372c-1.7760315 2.45932 -1.9807587 3.7567902 -2.8687744 5.7375336c-0.88801575 1.9807587 -1.7760162 4.097992 -2.45932 6.146988c-0.6832886 2.048996 -1.3670044 5.1224823 -1.6404114 6.1469727" fill-rule="evenodd"/><path stroke="#595959" stroke-width="1.0" stroke-linejoin="round" stroke-linecap="butt" d="m224.35957 154.4252c-1.2292175 1.434372 -4.8482056 5.6688538 -7.3753204 8.606293c-2.5271301 2.9374542 -6.011368 6.5590515 -7.7873993 9.018372c-1.7760315 2.45932 -1.9807587 3.7567902 -2.8687744 5.7375336c-0.88801575 1.9807587 -1.7760162 4.097992 -2.45932 6.146988c-0.6832886 2.048996 -1.3670044 5.1224823 -1.6404114 6.1469727" fill-rule="evenodd"/><path fill="#000000" fill-opacity="0.0" d="m283.3491 110.81365c-1.2248535 0.17497253 -4.855652 0.43743896 -7.3490906 1.0498657c-2.4934387 0.6124191 -5.118103 1.5748062 -7.6115417 2.624672c-2.4934387 1.0498657 -5.205597 2.4934387 -7.3490906 3.6745377c-2.1434937 1.1811066 -4.59317 2.843399 -5.5118103 3.4120789" fill-rule="evenodd"/><path stroke="#595959" stroke-width="1.0" stroke-linejoin="round" stroke-linecap="butt" d="m283.3491 110.81365c-1.2248535 0.17498016 -4.855652 0.4374466 -7.3490906 1.0498657c-2.4934387 0.6124191 -5.118103 1.5748062 -7.6115417 2.624672c-2.4934387 1.0498657 -5.2056274 2.4934387 -7.3490906 3.6745377c-0.53585815 0.29528046 -1.0908813 0.6206207 -1.636322 0.95144653c-0.27270508 0.16540527 -0.5430298 0.33218384 -0.80740356 0.49725342l-0.18215942 0.11500549" fill-rule="evenodd"/><path fill="#595959" stroke="#595959" stroke-width="1.0" stroke-linecap="butt" d="m258.41345 119.72643l0.34048462 -1.5535355l-1.9953308 2.6134415l3.2084045 -0.7194443z" fill-rule="evenodd"/><path fill="#000000" fill-opacity="0.0" d="m283.3491 110.55118c-2.5809326 -0.3499527 -9.011383 -1.0061188 -15.485565 -2.0997314c-6.4742126 -1.0936127 -14.78566 -2.624672 -23.359589 -4.4619446c-8.573929 -1.8372726 -19.772522 -4.549431 -28.083984 -6.5616837c-8.311462 -2.0122452 -18.153992 -4.59317 -21.784775 -5.5118103" fill-rule="evenodd"/><path stroke="#595959" stroke-width="1.0" stroke-linejoin="round" stroke-linecap="butt" d="m283.3491 110.55118c-2.5809326 -0.3499527 -9.011383 -1.0061188 -15.485565 -2.0997314c-6.474182 -1.0936203 -14.78566 -2.624672 -23.359589 -4.4619446c-8.573914 -1.8372726 -19.772537 -4.549431 -28.083984 -6.5616837c-4.155716 -1.0061264 -8.694229 -2.154419 -12.647644 -3.166008c-1.9766998 -0.5057907 -3.807129 -0.97740936 -5.370331 -1.3800049l-0.44700623 -0.114990234" fill-rule="evenodd"/><path fill="#595959" stroke="#595959" stroke-width="1.0" stroke-linecap="butt" d="m197.95497 92.76681l1.3685608 -0.8101883l-3.272232 0.32231903l2.7138672 1.8564377z" fill-rule="evenodd"/><path fill="#000000" fill-opacity="0.0" d="m50.35958 271.7953c0.3416443 -3.8460388 0.8534546 -16.751099 2.0498695 -23.076126c1.1964111 -6.3250275 2.393261 -9.403763 5.1286087 -14.874023c2.735344 -5.4702454 6.326332 -11.964554 11.283466 -17.947495c4.9571304 -5.9829407 11.963692 -11.881897 18.459312 -17.950134c6.4956284 -6.0682373 12.138237 -11.707352 20.514435 -18.45932c8.376205 -6.7519684 24.78566 -18.377075 29.742783 -22.05249" fill-rule="evenodd"/><path stroke="#595959" stroke-width="1.0" stroke-linejoin="round" stroke-linecap="butt" stroke-dasharray="4.0,3.0" d="m50.35958 271.7953c0.3416443 -3.8460388 0.8534546 -16.751099 2.0498695 -23.076126c1.1964111 -6.3250275 2.393261 -9.403763 5.1286087 -14.874023c2.735344 -5.4702454 6.326332 -11.964554 11.283466 -17.947495c4.9571304 -5.9829407 11.963692 -11.881897 18.459312 -17.950134c6.4956284 -6.0682373 12.138237 -11.707352 20.514435 -18.45932c8.376205 -6.7519684 24.78566 -18.377075 29.742783 -22.05249" fill-rule="evenodd"/><path fill="#000000" fill-opacity="0.0" d="m137.31233 157.04987c0.9286957 -0.76509094 3.659668 -2.951004 5.5721893 -4.5905457c1.9125061 -1.6395416 4.2086487 -3.4982452 5.902878 -5.2467194c1.6942291 -1.7484741 2.786972 -3.222229 4.2624664 -5.244095c1.4755096 -2.021881 3.006134 -3.936142 4.590561 -6.887146c1.5844269 -2.951004 3.6592255 -7.4855576 4.9160004 -10.818893c1.2567902 -3.3333359 1.9142609 -6.7222214 2.6246796 -9.181099c0.71040344 -2.4588852 1.3648224 -4.643486 1.6377869 -5.5721817" fill-rule="evenodd"/><path stroke="#595959" stroke-width="1.0" stroke-linejoin="round" stroke-linecap="butt" stroke-dasharray="4.0,3.0" d="m137.31233 157.04987c0.9286957 -0.76509094 3.659668 -2.951004 5.5721893 -4.5905457c1.9125061 -1.6395569 4.2086487 -3.4982452 5.902878 -5.2467194c1.6942291 -1.7484741 2.7869568 -3.222229 4.2624664 -5.244095c1.4755096 -2.0218658 3.0061188 -3.936142 4.590561 -6.887146c1.5844269 -2.951004 3.6592255 -7.4855576 4.9160004 -10.818893c1.2567749 -3.3333359 1.9142609 -6.7222214 2.6246796 -9.181099c0.17759705 -0.6147156 0.35169983 -1.2123032 0.5172272 -1.7773972l0.14953613 -0.50814056" fill-rule="evenodd"/><path fill="#595959" stroke="#595959" stroke-width="1.0" stroke-linecap="butt" d="m165.84787 112.79583l0.7598572 1.3971329l-0.2030487 -3.281784l-1.953949 2.6445084z" fill-rule="evenodd"/><path fill="#000000" fill-opacity="0.0" d="m137.64043 158.0315c1.5297394 -1.0380554 6.173218 -4.261154 9.178467 -6.228348c3.005249 -1.9671936 5.4650116 -3.8263245 8.853027 -5.5747986c3.3880157 -1.7484741 7.4859924 -3.6592255 11.475067 -4.9160156c3.9890594 -1.2567749 8.251526 -1.9142609 12.459305 -2.6246643c4.207794 -0.7104187 8.68898 -1.2554779 12.787415 -1.6378021c4.098419 -0.38232422 8.797897 -0.43743896 11.803146 -0.65615845c3.005249 -0.21873474 5.1902924 -0.54681396 6.228348 -0.6561737" fill-rule="evenodd"/><path stroke="#595959" stroke-width="1.0" stroke-linejoin="round" stroke-linecap="butt" stroke-dasharray="4.0,3.0" d="m137.64043 158.0315c1.5297394 -1.0380554 6.173218 -4.261154 9.178467 -6.228348c3.005249 -1.9671936 5.4650116 -3.8263245 8.853027 -5.5747986c3.3880005 -1.7484741 7.4860077 -3.6592407 11.475067 -4.9160156c3.9890594 -1.2567749 8.251526 -1.9142609 12.459305 -2.6246643c4.207779 -0.7104187 8.68898 -1.2554626 12.787415 -1.6378021c4.098419 -0.38232422 8.797897 -0.43743896 11.803146 -0.65615845c0.75131226 -0.0546875 1.451355 -0.11619568 2.0950317 -0.1794281l0.7297821 -0.07551575" fill-rule="evenodd"/><path fill="#595959" stroke="#595959" stroke-width="1.0" stroke-linecap="butt" d="m207.02168 136.13876l-0.985199 1.2485046l2.9368591 -1.4785767l-3.20018 -0.75512695z" fill-rule="evenodd"/><path fill="#000000" fill-opacity="0.0" d="m182.22966 361.31235c-1.8031464 -0.21871948 -7.594925 -0.6019287 -10.818893 -1.3123474c-3.2239838 -0.7104187 -6.011383 -1.3652649 -8.524933 -2.9501343c-2.513565 -1.5848694 -4.807968 -3.4440002 -6.5564423 -6.5590515c-1.7484589 -3.1150513 -2.8958893 -7.48645 -3.934372 -12.131226c-1.0384979 -4.644806 -1.7502289 -9.562988 -2.2966003 -15.737549c-0.5463562 -6.17453 -0.8726959 -13.60498 -0.9816284 -21.309692c-0.10891724 -7.7047424 4.4250488E-4 -16.28479 0.32809448 -24.91864c0.32763672 -8.63385 1.0367432 -19.015747 1.6377869 -26.884521c0.60105896 -7.868759 0.93000793 -13.333328 1.9685059 -20.32808c1.0384979 -6.994751 2.732727 -15.574814 4.2624664 -21.640427c1.5297546 -6.065613 3.386261 -10.491241 4.9160156 -14.753281c1.5297394 -4.262024 3.5520477 -9.015747 4.2624664 -10.818893" fill-rule="evenodd"/><path stroke="#595959" stroke-width="1.0" stroke-linejoin="round" stroke-linecap="butt" stroke-dasharray="4.0,3.0" d="m182.22966 361.31235c-1.8031464 -0.21871948 -7.594925 -0.6019287 -10.818893 -1.3123474c-3.2239838 -0.7104187 -6.011383 -1.3652649 -8.524933 -2.9501343c-2.513565 -1.5848694 -4.807968 -3.4440002 -6.5564423 -6.5590515c-1.7484589 -3.1150513 -2.8958893 -7.48645 -3.934372 -12.131226c-1.0384979 -4.644806 -1.7502289 -9.562988 -2.2966003 -15.737549c-0.5463562 -6.17453 -0.8726959 -13.60498 -0.9816284 -21.309692c-0.10891724 -7.7047424 4.4250488E-4 -16.28479 0.32809448 -24.91864c0.32763672 -8.63385 1.0367432 -19.015747 1.6377869 -26.884521c0.60105896 -7.868759 0.93000793 -13.333328 1.9685059 -20.32808c1.0384979 -6.994751 2.732727 -15.574814 4.2624664 -21.640427c1.5297546 -6.065613 3.386261 -10.491241 4.9160156 -14.753281c1.5297394 -4.262024 3.5520477 -9.015747 4.2624664 -10.818893" fill-rule="evenodd"/><path fill="#000000" fill-opacity="0.0" d="m166.8189 181.9685c0.6557312 -1.2025452 2.6776123 -5.0839844 3.9343872 -7.215225c1.2567749 -2.1312408 1.8027191 -3.4956207 3.6062927 -5.572174c1.8035889 -2.0765533 4.537628 -4.8105927 7.215225 -6.887146c2.6776123 -2.0765533 6.1727905 -3.9877472 8.850403 -5.572174c2.677597 -1.5844269 4.3188934 -2.6229248 7.215225 -3.9343872c2.8963165 -1.3114624 7.4308777 -2.8958893 10.16272 -3.9343872c2.731842 -1.0384827 5.1902924 -1.9138184 6.228348 -2.296585" fill-rule="evenodd"/><path stroke="#595959" stroke-width="1.0" stroke-linejoin="round" stroke-linecap="butt" stroke-dasharray="4.0,3.0" d="m166.8189 181.9685c0.6557312 -1.2025299 2.6776123 -5.0839844 3.9343872 -7.215225c1.2567749 -2.1312408 1.8027191 -3.4956207 3.6062927 -5.572174c1.8035889 -2.0765533 4.537628 -4.8105927 7.215225 -6.887146c2.677597 -2.0765533 6.172806 -3.9877472 8.850403 -5.572174c2.677597 -1.5844269 4.3188934 -2.6229248 7.215225 -3.9343872c2.8963165 -1.3114624 7.4308777 -2.8958893 10.16272 -3.9343872c0.68296814 -0.2596283 1.3488312 -0.50904846 1.9797058 -0.7431183l1.0292206 -0.3786621" fill-rule="evenodd"/><path fill="#595959" stroke="#595959" stroke-width="1.0" stroke-linecap="butt" d="m210.81206 147.73123l-0.67092896 1.4419556l2.517044 -2.1156158l-3.2880554 0.0027313232z" fill-rule="evenodd"/><path fill="#000000" fill-opacity="0.0" d="m87.94494 247.67192l52.566933 0l0 37.889755l-52.566933 0z" fill-rule="evenodd"/><path stroke="#595959" stroke-width="1.0" stroke-linejoin="round" stroke-linecap="butt" d="m87.94494 247.67192l52.566933 0l0 37.889755l-52.566933 0z" fill-rule="evenodd"/><path fill="#000000" d="m102.05719 271.5368l-13.671875 0l6.5625 -12.875l0.625 0l6.484375 12.875zm-3.453125 -0.75l-4.5 -8.90625l-4.53125 8.90625l9.03125 0z" fill-rule="nonzero"/><path fill="#000000" d="m105.311035 271.5368l-2.96875 -9.671875l1.703125 0l1.53125 5.578125l0.578125 2.078125q0.046875 -0.15625 0.5 -2.0l1.546875 -5.65625l1.6875 0l1.4375 5.609375l0.484375 1.84375l0.5625 -1.859375l1.65625 -5.59375l1.59375 0l-3.03125 9.671875l-1.703125 0l-1.53125 -5.796875l-0.375 -1.640625l-1.953125 7.4375l-1.71875 0z" fill-rule="nonzero"/><path fill="#000000" d="m116.28398 276.19305l1.09375 -0.15625q0.1875 0.9375 0.640625 1.34375q0.453125 0.40625 1.109375 0.40625q0.765625 0 1.296875 -0.53125q0.53125 -0.53125 0.53125 -1.328125q0 -0.75 -0.5 -1.234375q-0.484375 -0.5 -1.234375 -0.5q-0.3125 0 -0.78125 0.125l0.125 -0.953125q0.109375 0.015625 0.171875 0.015625q0.703125 0 1.265625 -0.359375q0.5625 -0.375 0.5625 -1.140625q0 -0.59375 -0.40625 -0.984375q-0.40625 -0.40625 -1.0625 -0.40625q-0.625 0 -1.0625 0.40625q-0.421875 0.40625 -0.546875 1.203125l-1.09375 -0.1875q0.203125 -1.109375 0.90625 -1.703125q0.71875 -0.609375 1.78125 -0.609375q0.71875 0 1.328125 0.3125q0.625 0.3125 0.953125 0.859375q0.328125 0.53125 0.328125 1.140625q0 0.578125 -0.3125 1.0625q-0.3125 0.46875 -0.921875 0.734375q0.796875 0.1875 1.234375 0.765625q0.4375 0.578125 0.4375 1.4375q0 1.15625 -0.859375 1.96875q-0.84375 0.8125 -2.140625 0.8125q-1.171875 0 -1.953125 -0.6875q-0.78125 -0.703125 -0.890625 -1.8125z" fill-rule="nonzero"/><path fill="#000000" d="m125.888626 263.55243l0.15625 0.96875q-0.453125 0.09375 -0.828125 0.09375q-0.59375 0 -0.921875 -0.1875q-0.328125 -0.1875 -0.46875 -0.484375q-0.125 -0.3125 -0.125 -1.296875l0 -3.703125l-0.796875 0l0 -0.859375l0.796875 0l0 -1.59375l1.09375 -0.65626526l0 2.2500153l1.09375 0l0 0.859375l-1.09375 0l0 3.765625q0 0.46875 0.046875 0.609375q0.0625 0.125 0.1875 0.203125q0.140625 0.078125 0.390625 0.078125q0.171875 0 0.46875 -0.046875zm3.361786 -0.453125l0 -2.4375l-2.421875 0l0 -1.03125l2.421875 0l0 -2.421875l1.03125 0l0 2.421875l2.4375 0l0 1.03125l-2.4375 0l0 2.4375l-1.03125 0zm8.794556 1.4375l-1.09375 0l0 -6.96875q-0.40625 0.375 -1.046875 0.75q-0.640625 0.375 -1.140625 0.578125l0 -1.0625q0.90625 -0.4375 1.59375 -1.046875q0.6875 -0.609375 0.96875 -1.1875153l0.71875 0l0 8.937515z" fill-rule="nonzero"/><path fill="#000000" fill-opacity="0.0" d="m181.73961 266.6168l-41.228348 0" fill-rule="evenodd"/><path stroke="#595959" stroke-width="1.0" stroke-linejoin="round" stroke-linecap="butt" d="m181.73961 266.6168l-37.80127 0" fill-rule="evenodd"/><path fill="#595959" stroke="#595959" stroke-width="1.0" stroke-linecap="butt" d="m143.93834 266.6168l1.124588 -1.1245728l-3.0897675 1.1245728l3.0897675 1.1246033z" fill-rule="evenodd"/><path fill="#000000" fill-opacity="0.0" d="m181.73961 362.6168c-33.74803 0 -67.49607 -38.519684 -67.49607 -77.03937" fill-rule="evenodd"/><path stroke="#595959" stroke-width="1.0" stroke-linejoin="round" stroke-linecap="butt" d="m181.73961 362.6168c-16.874023 0 -33.74803 -9.629913 -46.40355 -24.074799c-6.327759 -7.2224426 -11.6008835 -15.648621 -15.292076 -24.676666c-1.8455963 -4.514038 -3.2957077 -9.178528 -4.284416 -13.918243c-0.49435425 -2.369873 -0.8733597 -4.758545 -1.1287842 -7.156616c-0.12770844 -1.1990356 -0.2245102 -2.4004211 -0.2893982 -3.6029968l-0.008705139 -0.18411255" fill-rule="evenodd"/><path fill="#595959" stroke="#595959" stroke-width="1.0" stroke-linecap="butt" d="m114.33267 289.00336l1.1534576 1.0949402l-1.204567 -3.0594482l-1.0438385 3.1179504z" fill-rule="evenodd"/><path fill="#000000" fill-opacity="0.0" d="m113.23622 247.05774c0.16316986 -2.859146 0.16229248 -12.007874 0.9790039 -17.154846c0.8167114 -5.146988 2.0419922 -9.069992 3.921257 -13.7270355c1.8792648 -4.6570435 4.739723 -9.885391 7.354332 -14.215225c2.6146088 -4.329834 5.6373596 -8.168854 8.333328 -11.763779c2.695984 -3.594925 5.228348 -6.6194305 7.8425293 -9.805771c2.6141663 -3.1863556 6.535431 -7.7602844 7.842514 -9.312347" fill-rule="evenodd"/><path stroke="#595959" stroke-width="1.0" stroke-linejoin="round" stroke-linecap="butt" stroke-dasharray="4.0,3.0" d="m113.23622 247.05774c0.16316986 -2.859146 0.16229248 -12.007874 0.9790039 -17.154846c0.8167114 -5.146988 2.0419922 -9.069992 3.921257 -13.7270355c1.8792648 -4.6570435 4.739723 -9.885391 7.354332 -14.215225c2.6146088 -4.329834 5.6373596 -8.168854 8.333328 -11.763779c2.695984 -3.594925 5.228348 -6.6194305 7.8425293 -9.805771c2.6141663 -3.1863556 6.535431 -7.7602844 7.842514 -9.312347" fill-rule="evenodd"/><path fill="#000000" fill-opacity="0.0" d="m150.58792 170.58792c0.9151459 -1.2418976 3.660553 -4.7064667 5.490814 -7.4514313c1.8302765 -2.7449799 3.7261658 -5.8814545 5.490814 -9.018387c1.7646637 -3.136917 3.5284424 -6.0122375 5.097122 -9.803146c1.5686798 -3.7908936 3.2038422 -8.693787 4.3149567 -12.942261c1.1111145 -4.248459 1.894577 -8.953621 2.3516998 -12.548546c0.45713806 -3.594925 0.32589722 -7.517502 0.39108276 -9.021004" fill-rule="evenodd"/><path stroke="#595959" stroke-width="1.0" stroke-linejoin="round" stroke-linecap="butt" stroke-dasharray="4.0,3.0" d="m150.58792 170.58792c0.9151459 -1.2419128 3.660553 -4.7064667 5.490814 -7.4514313c1.8302765 -2.7449799 3.7261658 -5.8814545 5.490814 -9.018387c1.7646484 -3.136917 3.5284424 -6.0122375 5.097122 -9.803146c1.5686798 -3.7908936 3.2038422 -8.693787 4.3149567 -12.942261c1.1111145 -4.2484665 1.894577 -8.953621 2.3516998 -12.548546c0.2285614 -1.7974701 0.31004333 -3.6768417 0.3425293 -5.2947845l0.0043029785 -0.29942322" fill-rule="evenodd"/><path fill="#595959" stroke="#595959" stroke-width="1.0" stroke-linecap="butt" d="m173.68016 113.22995l1.1099701 1.1390076l-1.0845947 -3.1040268l-1.1643829 3.0749893z" fill-rule="evenodd"/></g></svg>
